<mxfile host="app.diagrams.net" modified="2021-11-12T16:43:37.107Z" agent="5.0 (Windows NT 10.0; Win64; x64) AppleWebKit/537.36 (KHTML, like Gecko) Chrome/95.0.4638.69 Safari/537.36" etag="DSM9XUSAVL9LEbw0rTGL" version="15.7.3" type="github">
  <diagram id="zB-L0bQSs73ft6aX-WCO" name="Page-1">
    <mxGraphModel dx="18" dy="460" grid="1" gridSize="10" guides="1" tooltips="1" connect="1" arrows="1" fold="1" page="1" pageScale="1" pageWidth="850" pageHeight="1100" math="0" shadow="0">
      <root>
        <mxCell id="0" />
        <mxCell id="1" parent="0" />
        <mxCell id="4RYRgsrVSUQU46YHIujC-7" value="&lt;font style=&quot;font-size: 18px&quot; face=&quot;Times New Roman&quot;&gt;(c)&amp;nbsp; Disinfection mechanism using UVC.&lt;/font&gt;" style="text;html=1;align=center;verticalAlign=middle;resizable=0;points=[];autosize=1;strokeColor=none;fillColor=none;" vertex="1" parent="1">
          <mxGeometry x="1060" y="450" width="310" height="20" as="geometry" />
        </mxCell>
        <mxCell id="4RYRgsrVSUQU46YHIujC-8" value="" style="shape=image;verticalLabelPosition=bottom;labelBackgroundColor=#ffffff;verticalAlign=top;aspect=fixed;imageAspect=0;image=data:image/png,iVBORw0KGgoAAAANSUhEUgAAA3QAAACqCAIAAABqLpouAAAAAXNSR0IArs4c6QAAAARnQU1BAACxjwv8YQUAAAAJcEhZcwAADsMAAA7DAcdvqGQAAC2wSURBVHhe7d0JXFNX3jfwbOwgO4JUZXFBxb1uVVvsWIHWeYRaK0ynU5dOK75jX612lNb3EfvMfFzGVvt01LYz1qXjqGOtS20B61aXarUibV2wAoJWRGWVLZCEvP/kHK8hXBAhCUn4fT98Mud/cnOTuYyZH/fcc65Uq9VKAAAAAABMQcb/EwAAAACgzRAuAQAAAMBkEC4BAAAAwGRwzSUAAACAVbhdWns5r6KovLaovK6wtLawWFl8r04mlXRycwj2dwn0dvLzdPTzdOoT4tHZ24m/xvogXAIAAAC0p2u3qk9fKvk2syinoMrNWS6VSmpVWpW6nj9twNlR5qiQ36tWhQW5Rg32H9HHO6yLG3/OaiBcAgAAALSD+nrttsM3U08XFpXXuTjJK2vU/ImWUcil9Vqtv6dT7MjAxKeDZTIpf6K9IVwCAAAAWNq+k7e2HLihUtVX12p4V2u5OsllMsmMZ0N++0Qg72pXCJcAAAAAlnM0s2jj1/nlVaoqZVtjpSEnB1lnH6eXJ3SLGuTHu9oJwiUAAACAJag12mX/uvLDlTJNvbZWJXJJZds5O8qHR3gl/763Qt5uo+QIlwAAAABmd+NOzbubs26VKGvrzBIrBRQrH/N3+e9XIroGuPAuy0K4BAAAADCv05dKlm29qlJrVOqH5C4HhW5iTp26Xi6TursqArycKmvUao22vFJFnRQcqc03bZaLo+ztl3uP7OvDawtCuAQAAAAwoy+OFazfe83ZUa6sa/IiSwe5jAKZm7N8TH/fsQN8w7q4eXs48Ofuo5RZUKSknHro3N2CYqWjg6zuYWPrSZNCn3+yCy8sBeESAAAAwFxO/Fy8dFMWL8Q4KGQqdX3siM7006e7B+99mJt3a2jPW9JvSGWS5sfZl0yLoMDKC4tAuAQAAAAwi6u/Vr7xvz+rNU2GP5lMOqy31/TY7uHBrVkLvbJGvf3QzR1HfuW1GIVc9r9vDOj5mOXWWke4BAAAADC9imr17NWZJfd010ryLgMKubSTq2LRS70H9/TkXa11q1i55vOcS3kVTQ27d/Z2Wv/mIA9XBa/NDOESAAAAwPQWrLvwy6+VNWJrpLs4yUMDXVOmR3h7OPKuNvt4X97ek7dEbxpJQbZfSKdVsyN5bWYy/p8AAAAAYCK7vi24erNKNFkqFLKoQX4fvDHAhMmSvP5fIUmTQnnRkFqjvZRfsevbm7w2M4RLAAAAAFOqVmq2pF+vVorcK9zFSf7MUP83X+zBa5P67ROB86f2kIvdZFylrt+cfoM+GK/NCeESAAAAwJQ2peVLxRKeg1zWI9jNTMmSiRneOXH8Y44KkYBH+XLrwRu8MCeESwAAAACTuXG3ZvfxW1U1IqctvTs5vDujDy/M5pXobk9E+jg6GGc8tUb7nyM3b9yp4bXZIFwCAAAAmMzm1OsOYicOydu/7+3uYokp24te6uXcKFwS+mAbvs7nhdkgXAIAAACYRmWN+tsfixpP2VbIpU8O9OsX0tI10ttILpNOf7Z748Fx+mAnfy6mD8lr80C4BAAAADCN7y6WeLga37aRqDXaV5/rzguLmDgq8DF/Z14YcFBI6UPywjwQLgEAAABM41hmUUW1ihf3KeTSyU91CfIViXpmNS22u1OjwXGVWnv43F1emAfCJQAAAIAJKOs0Z7JKeWFAU699bmQgLyxoVD8fZ0c5LwxkXC1TNns78jZCuAQAAAAwge8ulLg5i8zXCfJx7hrgwgvLGt3fh7cMODrIv7tQzAszwO0fwZRuFRZdysrlBZhIaEhwWEgwLwAAwFqt3pl98NzdOlWDk4IKuXRKVPCMZy16waXg3C9lKRsvNz5POWFYwFsJPXlhagiXYErbdqb9fCmbF2AKUokksLPfnFkJvAYAAGv15tqff869x4v7ZDLp+nkDw7q48dri4hd/33h6eN/uHh+8MYAXpoZhcTAx/LFiWjieAAC24nZJLW8Z0Gq17ZgsSWcfJ94yUFRex1tmgHAJAAAAYAIlFSKJzdNNZGUiS+oiNktd9KOaCsIlAAAAQFuVVarUGpHRJk83S9ySpxkULhvfMYg+Kn1gXpgawiUAAABAW90urW28qCTp7GPp5S2N+Hs5Nb5Vj0IupQ/MC1NDuAQAAABoq2qlWiblbUN+no681U4u5t2rbzR7Wy6T0gfmhalhtjiY0radaT9dyhb7xwWtF3R/tviW9OufHbjBOm3XqqTIgT08eQEAYC+u3Kic9/efVGrjWDWqn8+7M/rwoj18vO/avu8KjRZIcnSQvf9/+vfu6s5rk0K4BFNCuDQHIVzagQXrLrw8oSvCJQDYn5KKuqkpZ3lhICzI7eMFg3jRHt7556Uzl0XuG7QjZZiPh1nOqmJYHAAAAKCtKKjJxcbFi++Z69LGFhJdIIk+qpmSJUG4BAAAADABT3eRVYfuVZvr0sYWulsuEi5FP6qpIFwCAAAAmECg2HLlDnLZj9nlvLC4vMLq2kb3fiTmO21JEC4BAAAATCA0yK3xipL1Wu0PV8p4YXHnrpQpFMaD9fQhe3czy1QeBuESAAAAwARG9fV2aJTk1BrtsZ+KeGFxx38qanzmUiGX0kflhRkgXAIAAACYwOMR3qJj0AVFyrzCal5YUEW1+lJ+BS8M1Krq6aPywgwQLgEAAABMQC6TDunlxQsDDgrZlvTrvLCgz7+96eoscvPJgeGdRCe2mwrCJQAAAIBpjOjj7djoJpAqdf3xn4pzCqp4bRGVNeqdRwuqaoznqrs4yUdH+vLCPBAuwS6UHN2SMmfZ/Z+0bN4NAABgSWMG+BrdC4dxUMg+s+zJy8UbLje+AJTU1GpG9/fhhXkgXIIdOv+v7Tm8KSZ7+7IvL4m0AQAA2sa3k+MLT3VxdpTz+j6Vuv5MVum+k7d4bWanLpZcvHavWqnh9X2UcX/7RKCfp8iSSSaEcAn2IzhmSXLKhy8OpWZBSQnra+xS2r9O8maDNgAAgAlMiQquVRmnOqJSaz/8IvfKjUpem01Red3KbVd50RBl3ISnH+OF2SBcgr3x8Q/lLQAAAIvz0Z28DG588pJpKvaZ0PKtv9SKDs3LZc+N7Bzgbd7TlgThEuxNyd1rkq5Devjoh7zvX39Zevr9ZSnvny0pOrth/Xmqz62ncsuDNhtGv5TGr9q8P6quv5Rzy+lLZzfo+recbreFygAAwIa88FQXrVbLi4YKS5Rrd+fywgw2fJWfU1ClUouES41WO9X8py0JwiXYj5tpSykC/udc6Pj4qEdfv4uSpT5r6pz8z4ajpbxNu11/8AZrHGzuUk4AAAA9n06Oc6eEK+Qi82nqVPVffld45LxZzlacySrdfvjXykYzxImDQjZvSniQrzOvzQnhEuzPtYO7H0TDhvyGzUwaTP85NCk55c0/PGgnhGf/RMmSXbU5KyZUcmPX98KU866TZz38Uk4AAIAHxg8NeObxgMbLEhFNvXbNzuw7pbW8NpGKavWq7VedxN7RyVH+9BD/mOGdeW1mCJdgP8SjYcuUFhVIJKF9evlR27vXkGCJ5E4R/7MyuF+kt0QS3mc0xdZihEsAAGiZN1/sEegjfqZQpdGu2mHiiy/f23FVWVcverWlj4fD/Bd78ML8EC7B3hhFQwAAgPbyVoJ4pFOp6y/nV+w+XsDrNtt/qjDjl/KaWpFZ6uTt3/eSmvGOPMYQLgEAAADMIqKbx7wpPRwUInFLWVf/6df5otdHPiq1Rrvx6/yaOpFkqb/Usgd9DF5bBMIl2JvSXzJuSiQBfn4Sn8BgieT85UsSSVH2xWv8aebOnQcXZerb3n5dJJJrl3/Rne/MObmL7wEAAKBtnh3ZecLj/o5i+ZJC4WcH9DNG22brwRtaiciZSXrTCY8H0AfgtaUgXIL9YLPFP0qjHDm6Zw+JxCcggHp1Kw0tZdO99QJ8u0okN3Z9pFtvyKDdY8DgB/PNdZN4Rlju6hQAALBnc6f08OnkyAsDFC6/OFaQfbNN9xy/XVq79ZsbFdUqXhvwdHeYOyWcFxaEcAmPJudm1fq91wpLlLy2SoN/n6D/x9R3RIx+QfWuk19kDR2/YU+N5s0G7b4xb0wO5u3RL85sxWJGAAAA4mbHhYquTET+sT+Pt1plc9p10QXb5TLpnOfDeGFZ0qYW+QQQReFy1vuZ1Hj+yS7xY4OM5sFt25n206VsC1403CEEdfabMyuBFzZuwboLL0/oOrCHJ68BADqMZVuvnLpY2njOjUwqdXJs/ck+0Uk8DnLZ2IE+yS/15rVl4cwltNIXxwpe/us56z+LCQAAYA1enRiqFJtzU6/VUkBs9Q/fS0Oaei29HS8sDuES2gQREwAAoCX8PR1//0w30UXOTYveYsq4YHo7XlucvQ2LU8qhuMMLsCB3F0XKtIhL509hWNzkMCwOAGAf1BrtiylnKqpNsPxQMzxcFf9JGd7UJZ4WYIfhsrO30/NPduE1mJpwzaWAYuXAcE9KDOHBbrjm0hwQLgEA7Mbu4wUbvsoXvY+OSTg5yGY+1z1+bHsGIQyLQ+tRrBwd6bsqKTJlegQlS94LAAAATaDY5+as4IUZODvK2jdZEoRLaA3ESgAAgNaJGREgk5llkE8uk/5xYggv2g+GxeHRFJYoP9qbxwbBeZcBDIubA4bFAQDszFenbx//qeh2SS2vTcHP0zFqsP9zFr8fT2MIl2BKCJfmgHAJAAA2BMPiAAAAAGAyCJcAAAAAYDIYFgdTwrC4OWBYHADA/lRUqz/ady3rekV5ZVuXvfRw1a0JOPO57tTgXe0KZy4BAAAALIqS5YwVGcd+LLp+u6a8StXGn1/v1hz44c705RnmXp69hRAuAQAAACxq3Z5cdb1WWWeypdRV6vrqWs0n+/N43a4QLgEAAAAs6lJeRaWpzzJSvvwpu5wX7QrhEkwMF1yaml1dFQ0AAKTePDNezLTbR4UJPWBK35356VzGJV6AifTq0S16/BO8sHGY0AMAQFbtuPptZrGyTsNrU1DIpb8Z6r9gak9etx+ESwCwHIRLAABSU6uZvjyjUqmuNdFll5QsPVwVm5OHujjJeVf7QbgEAMtBuAQAYFRq7T+/yjt3pbRK2dbzl94ejhHd3JMmhTkorOLaNIRLALAchEsAALuHCT0AAAAAYDIIlwAAAABgMhgWBwDLwbA4AACjUmvX783Nul5ZXqXiXa3l6ebQP6zTq8+F4JpLs0C4BLBmCJcAAKSmVjNz5fl71SoTzhaniLlx0RBrmC2OYXEAAAAAi1q7J5fypamSJVFrtOVVKtz+EQAAAKAjupRXWVlj4ts/Ur48fxW3fwQAAADoeOrUprw3j0CtMdmp0LZAuAQAAACwqP6hnZwdTZzBHBQy2i0v2hXCJQAAAIBFzY4Lc3KQUxzkdZvRriit0m553a4QLgEAAAAsysNVsXHRkAmPB3Txc6Z2G38e83cZN9hvc/JQavM3aFf2sxTRpk2bNm/eLHvs2T8k/Ncrz/XmvQBgTbAUEQCA3bOfM5d5eXlHjx799ddfVaq2LkYKAAAAAK2DYXEAAAAAMBn7GRZPSUlZunRpr6g33vq/f3w1LpL3AoA1wbA4AEBT5q+7UHKvjhcP4+nusOZP/XlhZXDmEgAAAKD99enmcau45te7D/+hzXo+5sZfZn1w5hIALMfWz1w+M/8kb4H9+ua90bwFYFkZV8uXbrxcXfvw9dWdHGTvzuw7pKeVfpfizCUAAABA+3uksGi1yZIgXAIAAABYhfkJPWUyKS+aQBv8+Xe9eGGVEC4BAAAArMKTA3xfjAp2avrOkI4KWdyYINqM11YJ4RIAAADAWsx8rvuc+DBXZ7lM2uAUJpUuTvI3JocnTQrlXdbKTsJlVlZWfn4+a1OjrKyMtQEAWufH7HLeAgCwrOjhnbcufnzGc91G9fPx93IK9HEeHuE9c2L3f/+/x6OHB/CNrJgNzxbfs2fP3r176dEwSvaKekN5r/B6xn+oHRERMXXq1ISEBGqwZwGgfdnQbPFZ72fSY/zYoOhhnVkPwWzxjgCzxQHayPbCZWFhYXJyslGmFBiGSwGFy9dff33WrFnOzs68CwDag22Fy5ybVdQID3YTIqZouEQWsV34hQKYgy2FS0qTS5cu/eijj5RKJe+SSKKiop566ilqDBo0yMvL65uL8tqK2+7KC+Xl5WlpaVlZWWwzEhgYuHDhwrlz5/IaACzOFsMlwyLmqu3ZvDaALGK7EC4BzMFmwuWmTZvmzZsnnK2MiYmZOnUqPVJkZD3M+r3XOns7Pf9kF1ZSuNyzZ8/mzZuFlBkSErJ7925KoqwEAEuicOnuonBzkfPain13oaSyRs2LZiGL2C6ESwBzsI1wmZycvHz5ctaOiopatmzZyJEjWWnEKFwKKJvSTgoLC6nt7Oy8bdu2uLg49hQAWMzJC8UtTGzt7rMDN26X1PJCj2Kx6IdHFrFdCJcA5mDt4VKpVCYmJu7Zs4faXl5e69evT0hIYE+JYl/99P8BrDREu6KEunTpUlZSQl20aBFrAwAYMRwWp6+U8C5uSZNC2SwfI8gitgvhEhq7mH37cu6dSzm3s67dpUfeC3p9wztHhPrTY5+wgH49Hkx2NGLt4TI2NjYtLY0aISEhqampbZ/3TTmV0iq7ahP5EgCawsKlECvDg92oE1nEzuAXCobyC8r+tvHoiYw8XkOzxgwJeWt6VPcuXrw2YNXrXM6bN48ly5EjR54/f94kKwrFxcWdOnWKoiq1k5OT2f4BAIy4OysGhnuuSopcNTuSJUsAsGM7Un+cPHcLkmXL0bGiI0bHjdcGrPfM5aZNm6ZPn04NCoKULL28RKJxq2VmZo4aNUqpVNJuaecsawIACApLlIE+xouX4USXncEvFJj5f9t/6LTIWhDQEr8Z2eO9tybyQs9Kz1wWFhYmJSVRg8JfamqqaZMlGTRo0MaNG6lRVlYWHx/POgEABI2TJQDYpR2pPyJZtgUdPaPzl1YaLilZsssit23bZqb76yQkJLALLjMzM9mEIQAAAOhQ9NdZfssLaC06hnQkeWGd4VJIe3FxcTExMazTUFlZ2VE92pJ3tcqSJUvYMpnCFHIAAADoOP628ahaU88LaC06hnQkeWGd11zGx8dTuHR2dr58+bLh1ZDUuXnzZsqUhjd+pA1eeeWVRYsWte7WjmvWrJk3bx41Vq9ejZv3AEDzcImencEvtIO7mH37pYXbeNHQzOeHRQ0P7xMWoJBb9dRnS6IEeTn3ztEzORu+OMu7Gtq6IpGtT2R1hywvL4+dtpw1a5aQLNmVkSx0GiZLQtsvXbp08ODBp0+f5l2Pgt6FnbzcsWMH6wEAAICOgKISbzU0f9qTc14a3b9nIJKlIToadEzoyNDx4V0NCcfT6o6asDbQ1KlTWYPS5KhRo1jibEpWVhZts2bNGl63mLOz87Rp06hB2ZTdvwcAAAA6AtE10mc+P+zl3w7hBYih40NHiRcGhONpdeEyPT2dHgMDA4UbPCYmJgp3Bm/evHnzWnH+Mjo6mjWw5iUA2CKtVlvfBKMLn4QtW3hBlOGem3mJ4WYM27hxf1PYfgAsLOvaXd4yEDU8nLegaaJHSTieZgmX+/fvl0ql7733Hq8beuWVV+hZEh4efuvWLd6rp1QqWcIT5vHs2bNHNPOFhISIXmQ5ffp0Ns285aKiothSR3v37mU9AAC2ggKc9rXXZHK54Y/Uy0v9zDPKdevo+1Cj0TzYMiaGnlW+/XZNTc1DI52wPf1U//3vtKvGL6FNNP/4h2bCBHpHtqVm1Cjd/n/5Ra1WCy9v5odeeO/ePZVKRbviOwWwFNEzl33CAngLmiZ6lETOXJ44cYJlPmI0R5v36vEuve3bt/NeqXTlypW8VyLZuXMnPaamplZWVrIehsrx48dv2bLlyy+/rKioCA0NHTNmjGG+zMrKYtFwxIgRrGfFihWsIVi0aFFpaem1a9foy/HUqVPCCU6G9rB8+XJetBj779vGuecAAO2i/uef6VHp71/Wrx/7oUDpePiw65w5yj/9ib54Wb6k9FZfXk6N0vz8oqKih+a5+h9+kB04wNqqf//7zp07Ri/RnXJ88UX5a68pDh6sc3Epj4ykz+Bw5ozrihXVa9fSlzzlS75p0+iz3bhxg77PeQ3Q3nCdZUs0f5QePDdt2rScnBz64qDH9PR0ISzOnj1727Zt1E/Cw8OF3EnJMjExkb3k+PHjCxcupB7qp7BIOfXdd9+l74urV6+yjZmPP/6YQmFBQcHEiRPd3d0PHjxILw8KCuJP62fnsAZb27KsrMxomHuZnrCmOiVLypdRUVGsZDZv3sxbLcbm9AjvDgBgK+gbmJ1QzBs+/PiyZec//PCndeuO799/60ndFffen35aeugQ/dGu/wrnW1JZXV0tnNEURRtr9IM5twcPpkfv77+vPnGC/fEvqN+5U/7559S4+OqrhzZu/GHNmlM7dpxbvry0b19KtOXl5SVbt549cyY9Le3rr76in+xJk2jjOz177ti+/ct9+6gn9euvv923T78zALAfD8JldnZ2WFgYNegxKSnp8OHDrH/dunUJCQms/Ze//IVdE0k2bdpEm7GXjBkzJjo6mnqofe7cOXqkl3Tt2lXYCaHQSbuiqGqYJo0IU2pY2jOaxEOdoqsFsXvtCCgjPurUnM6ddTPnCeb0AICNkslk9FXWs2fPPnpVKSmsX334MEU9wxFt3RnHh42J0wYK/Vf6xd/9rlj/177TN98YRlJdVD2pW8enolu3vLi44ODgiIiIvn37Bvzudzd37CidM8fBwcHd3Z3+P2LAgAGDBg0aOHCgt7c3bU+fMyAggDamHtKvXz/6PwsXFxf9XgHAHoif1czNzWWp0cj169fDw/klnJQyn9T/Zcw8/fTTFE+psXPnTsqa9AUXGxtrODJOuY3+kO3duzcrReXn57MGW4TI6FRiTEyM6HWWtDHbXtDMBKBx48bxgXw9dmaUZVmCk5cAYKPoC83Nzc3Ly8vHx8fPz8930CDef/PmQ89TGtGdtkxPl928Wdm9e11kZIV+1qP/kSOGF0fqHi9epEadq2unTp0o1/r7+9P70tcpfSGHhobSx6DISIGSnqJOemQJkn1OtiWhoEkvpyRK/fQsANgBkXBJydIoOAo++eSTCRMm8EIMGxOfMmUKtSluGo2M+/r60l+3vBAjrGHJQuTt2w2utO3evTtvNWJ05WUzJyCN4iMbf6cvOFYaDfoAANgQymcyPblc7nj/+/POkCGULFkifAT6S+cLxozRXYY0eTK1Pa5f137zDRth128hUetPFvhmZXmfO0fvyFBMpOzo6elJX+NUss/DCPFR+JwC1g8A9kHkn/Ts2bOjo6OFoXDBypUrc3Jy1q1bx2sxbEx86NCh9NizZ0+jkfHi4uKbN2/yQozR8DR9jCUG4uLi2LONCemQ+f7773mrIdqtYbikL03d96ZBGGUlAIAtotjHhrw1eXkOb79NPcUREZUjR7q6ulLOY9u0BIVRh127qHF3xAj6VnTv06dyzBgq3VNTq6qqhJOgqilTNG5u1Ih45x3p//wPPaWbIa7VUnZk2GYA0NEYh0tKltnZ2Y1X/9m+ffvChQspXPK6CTt37szNze3SpQt9rXh4eBw6dEgYGaf8R3/LXrlyhW0pShjdZmmP0mSKgUH3R3kaMxptp09rdCMfxmjuOTttSYTEaTS8DgBgK4JPnuz+0kuOTz9d/8QT8oEDHXfvLuvXL3PhQl9fXzc3t5aHS11C/ec/pRUVd4cOrYuMpO9terlK/7e975kz5eXldXV1LEHKhw379YMP1K6uiupqvw8/dOndu3bOnKqsLKwrBNDBNQiXlCzXr1/PLp00xCaGHz9+3PBCzPDw8GPHjvFCIjl8+PCYMWNOnDjx5Zdf0tcKk5GRIYyMU9YMDQ1tvD6RIaNw2XJGayfRy6dPn26UL/fs2fPRRx/xQk+YZs7G352dnXHmEgBslGtxsfuPPzqePetw5gxFQ+rxunhx4Nq13pWVDg4ObJuWoK9uiX4FojuDB3fq1MnV1dXR0VEyY4bGzc2lqMhp61a2RiaFS/rOdI+Ly/nnPwvGjqXtHQoL3T76yGXYMOXbbxue4ASAjuZBuGTJUve10pCQLCk78i691157jbbPzc2lNmXK9PT0vn37UpuNiTOGI+Pu7u5z5849dOhQXFwcy5fnz5/v3bs3Peq31RFGt1t4Sx4BpVJ2F0cBRck+ffosX7786NGj9F8hKSkpPj7e8JJKeq+FCxeyNns7nLYEANt1KTb2i1270tPSDn7zzbeffXZh5kyVi4vfDz/4v/EGfeW2ZMlJpj4/33H3bmrcHjOGTbWhNuXLKv2F+G4nT1ZUVLDgKJfLaQP/6Ojyjz/O+Mc/cuLi6B3lVVUeq1bVvfGGsBkAdDQ8XFJGpKRIDd1lMvdRZKSexYsX0+PYsWN5r5Svl/7nP/+ZElt4eDj10LOUPi9evEgB1HClIQqUsbGx69atYyulT5w4MSMjIzMz08PDg141ZMgQSqiD9YuoMRERESxfCgsetdzq1auNrrwsLCxMTk4eN24chWOjc5aEkiU7Tymspmm0XiYAgA2hqEdfv7169aK/88Ojohz//Odc/be3+48/Vm3ZUlVVVf+w5YeIVqut10/lUbu6Dl658rGEBEVUVP0TTziMG+ekH4MKOnas+soVNq2HvsYVCoWnp2e3bt2Cf/tb1bJll9aurejWjTbz2bhRWF9Tt18A6Eh4uAwLC6OvACPsVGV2djav76NYyV5FqZF36TferMeeEsyfP99wpXSKkkVFRfw1Wi09y/oFbID76NGjjzpxm5Ki0YKXzRg0aJCwZKbwXpP0C/wCANgimUymO4/o78+W/unatavH/fEc6enTLTyPqBvv1k/lUVRXe1+65JKRwcbZ6dHp/hVTTvv3V1dXs6hK+ZJCraurq6+vL0XMwGefvSVc2r5/P05eAnRMDa65tAYs4VHaE72lePMomFK+fOh1k7TZkSNHeHH/luLOzs44cwkANo2iHlvZR6FQODk5UdZk/Wq1uqampiUj4/U//EBRkhpfrl27b+/eA+npB7/5hv1QO1+/4KXP4cOUGg1n7bBTmC4uLj4+Pt6/+Q3rrC8rY1deCpsBdFyenvTvRHLwIC+NvPuu7lnh4kNqUNlo0Z4GYmN12yxYwEvmxg1dT2Sk7in66dZNt5OMDP6sBVlduBRWSv/ggw9YzyOZNm3a5cuXjZa9NLRs2bLU1FQhgBYWFm7X37UyLi6OvS8AgB3QBc3MTNau6Nq1JQlPN5y0dSs17gwZ4tyzZ69evfo1pHj2WXrW5/LlutOn2ZB3fX297lX6nbOzmO73L2oq6d2bPctKgA7t3j3do/7m/iLYswK2oHhqqr4QQyGSnYAbNUpf661Zo4uV773H7m6gQ5vt2CEZOlT3lGVZXbikhDdr1ixqHD161Oj2jy0UGBh46tSp3bt3U9CMioqiHYaEhFBjyZIllDsXLVrEt9NbsWIFGxMXJvcAANgoSnKU5xjN2bOOr75KndW+voXPPkvfhAqFgm1GDLcUaDQauX5M/M7gwT4+PvRd2rkh15dfZgtbuhw6VFlZKfXyUr/wQs3atcqrV1UqlVqtrn//fefZs2mDe127lowb5+rqSm9KoVP3lgDQQhMn6h4pcTYVCvX/TiVdu7IbHOh8+qlk3jzdS/r1k2zYQP/CdT/nzknmz5d06qR7yrKsLlwSYarN0qVLWU8rxMXFbdy48ciRIzU1NdeuXaNGSkqKsLAlk5mZySb60MbNLKIJAGD9DNe51IwapRgxQnHlitrV9fycOZQUPTw8hKUue+7b1y8y0p16FAqZXM5+dAtYfv21vKCANijt37/xLXaoTT3VTz1FGwR99VVxcbG0osJx927XOXNcevd2cHRUODgo3nqLOmv8/H6eOZPelMIlvVD/ngDQYkOGSEaP1jWamtzM+mNj9YX+DCWLj5QsU1MlM2boe/X7WbVKl0QphlqWNf6zpz+XlyxZQg0Kf8nJyazT5JRKZVJSEjttyd4OAMAWsdswGq5zST9VISG58fHfrl0rGT++S5cubm5ulPPYlqLy8/PV+qWLS/r0UfXv7+7ubnS/b2pTjzo+ntouRUWas2fzVq26HRVF27MNCLWzEhNPrlwpfeaZoKAgCpeGe9B6eNCjRp84cToToDkvvKB7TEvTBUcjwpi4/lbbOhs38oH1LVtEcuT48ZLr13nbUqTWeUEMZb4+ffqwG+ds27at8b0o2y4xMZFdbTlt2rSWTzMHgI7smfknecvAN+/pzzG0E/oOLysry87OLikpoVLIbfTo5OTk6enp7+/v5eWlWwhdd8VXOW1ZXFys0WiEeEcNSo1+erQrQtt369aNrRnHtmHovSoqKq5fv057oPTp6+tbXV1N29M3tkqlqq+vVygUFCjZm9Ijvalw5pJee+/ePYqwtAd6Njg42Ch6tgsr/IWCJQ2aLDLunLmLLyZjSux/6p9//mAg29CCBbprJUePluiXgNShBKlf1UuyerXk/uI23Jo1uvOU/fpJLlzgPZGRuussY2Kau0zTDJo5elY6YOHs7CxMu5k+fTpbh9KE1qxZw5LlyJEj2QKfAAA2ys3NLTw8fODAgf3794+MjOSzb/r1i4iICA0NpchIKZOFTmHLwYMHD7qPSnpV9+7dfXx8HnvsMXoVJUvR5Ec91E/P9u3bl/YcEBBAbdqeXj5gwADaFT1SGRISQrmTvSl/pR57be/evYOCgujZdk+WANara1ddWCSNR8ZZz4sv6gs9NoPHcHJPe7Peq2HoG4qdUKS/iWNjY48ePcr6246S5Tz91QmBgYHbtm2jIMv6AQBsDkU0BwcH+lOcop7hFBwqKSxSmhSm1Ahb0rO0pSHa2NPT08XFpVOnTuwCTcPZP4aon56l7Ej7oe1p/9Sg/Mre1N/f39vb2/BNBezd6V1o/+7u7k3tH8B8fswuX7/3Gi+sHxv1NhoZF8bE2aQfwib3kH79eMMKWG+4JHFxccuWLaNGWVnZuHHjGt9l51FRTp0+fTpLlpQpKVnilo8AYOsot8ma0Djh8SfECM8avcqI4WZC2xB18k0bYds3swGAWX1xrOCZ+SdtI2LOmKGb6E2E+EhYm3LkkCH62kpZdbgkixYtEk4uJiUlJSYmFhYWsqce1Z49e0aNGrVp0yZq01/qp06dwqrpAAAAHY3NREw2H/zzz/WFHhsT168yZs2sPVyShISEI0eOUByk9vbt20NDQ5OTk8vKytizLXH69Olx48bFx8dn6pcUHjRo0Pnz5+mRPQsAAAAdDUVM/5Bh7j76eTPWiY2MnzzJ77JDj2xM3HBW0PDhvNF4Xnn7sdLZ4o0VFhbOmzePzcIhzs7OMTExkyZNokeWOxvLysras2fPjh07WKYk9KpZs2YtW7YM11kCQCtgcrGdEf2FQkejrdeUFWap66pZacbZ4hs2PFiE0lDj2eKCbt10qXHpUsl//7fuLpFLlojMCvf01C1FNHWq5H5GsoxmZovbTLhkTp8+nZycbDS5J0SP8uKIESNqa2vZ1HJ6ZGtYCqZNm7ZkyRJcZAkArYZwaWfwC+1QfswuX7D+/vI9ehQrlZVF1fcK69V1vMtM4ZKtFvTaa5KPP+Y9hmJjdackRdPh669LPvmELzzEdtJ4caKEBN1tHjt10m1jwfXSbW8poqaMHDnyyJEjqamplBTZQkUkLy+P4mZaWtrSpUuXL19ObSIkS0qTc+fOvXbt2saNG5EsAQAAwN1F8fyTXUoKLlSWXDdMlubC7rhD2fHgQX1tgHrYYDe7pbgRNjJOmXLXLt0jJUijZEnYNvfu6cJrYxkZulTa+H3NycbCJRMTE0NJsbS0VLiBuOHUnMDAQNazaNGi8+fPU6xcvXo1YiUAAACwWLn+zYFJk0ItESuZxYt1uZDy3+TJulXQ2fWR9EhtdgElpU/REfPx4/kaQ+wGj8ItHw3RHlispJBKOfLTT/W9+li5YIFk3DhdKvXx4Z0WYWPD4s1ISUlh9yKnNIkoCQDmgFFUO4NfaIeSc7PqwA934scGBfrweReWu0MPOXhQlwLZfRqNUHxMTW1yRJtdask0ddUmYQPoohqPpJuC/QyLAwAAALRCeLBb0qRQIVla2vjxumsi589/sNp5p066E5aU/Jq/VnLiRL7gJb2wqWRJPv5Yt2jR1KkPdkWN116TnDtnjmTZPIRLAAAAAPOjtLdqlS5KarW6n/Jy3fTwhya/IUN0W9L29MLmTZ6su6zz+nW+f2pQ4myP5dYRLgEAAADAZBAuAQAAAMBkEC4BAAAAOLWmnregac0fJXsLl2GjZvzxw5uVNWpeAwAAAIjpG96Ztwxczr3DW9A00aMkHM8H4TImJkZqYPbs2fwJiWTlypW8VyoVbsB44sQJKnNzc1lJGvdYXu6pT12dcDoWAAAAHiIi1J+3DBw9k8Nb0DTRoyQczwY5LCkpSXvfunXrWCcly4ULF7LObdu2JSYmUohkTwEAAADYKNEzlxu+OPvZlxm8ADF0fOgo8cKAyJnLpnzyyScrVqxg7YSEhPDw8H//+9+sBAAAALBRfcICeKuh9zYd+3DryZ+vFuL6S0N0NOiY0JGh48O7GhKO54M79MTExISFhQknLJnc3FxKk8ePHx8zZgzrmT17NnWmpaWdOHFi7NixOTk59Cr2lGEP7S09PZ31E+FdzCdPjxofHHT+7J3H3V0UrB8AwFRwQxc7g18o/Omve05k6MIDtNGYISF/fyeOtRucuVy/fr3+ukod3vUwFD35C6RSSpa8V3d/yzT9QLo2Ojo6KSmJ95pTSEgIu6U4JWbeBQAAANC0t6ZHKeSYqtFWdAzpSPLCMFwKcZBQIuzRowd/olk5OTn8NVrt8ePHee99K1euTE9PNzobCgAAAGANunfxemv6U7yA1qJjSEeSF01dc7l48WJKjW2c900vX7hwYePECQAAAGAlpsYO/M3IFp1QA1F09OgY8kLvIaeC2fWU3333HSvJgQMHnn76aV40a/bs2UlJScLFmgAAAABW6L23Jia/Og7j44+KjhgdNzp6vL6PH8fc3NyYmBjWJtOmTYuOjmbJkgLiwoULWf/27dtzcnJeeOEFVjZj5cqV2dnZGBAHABuVsjEr/extXgCAvZsaO3DXmj+MGRLCa3gYOlZ0xIzOWTI8XLIcySfmSKUTJkxIS0tjT1FApKDJ+hMTEw2nhzfjk08+oS3ZqwiWxgQA25JdULlqe/as9zMRMQE6iO5dvP7+TtzWFYmLX//N8+MjRVfB7ODomNCRoeNDR4mOleF1loYeLEVkN+IXf//ZO0OxFBEAtMXv//rD7ZJa1g4PdosfGxQ9rDNWrrEz+IUCmIN9hsuUaREIlwDQFks2XRbCJUMRM/tmpbTRYmfIIrYL4RLAHOwwXC5Yd6FSqeYFAECr5Nys4q2HQRaxXQiXAOZgh+ESAKDtDIfFibuLIn5s0JYD13Hm0p4gXAKYA8IlAIAIIVyyWDlhWECgj7NoFgE7g3AJ0EZY0gkAQBzFypcndF3/5sA/RHejZMl7AQCgWQiXAAAiECsBAFoH4RIAQET0sM6IlQAArYBwCQAAAAAmg3AJAAAAACaDcAkAAAAAJoOliAAAAADARCSS/w+sQA15Lbms8wAAAABJRU5ErkJggg==;" vertex="1" parent="1">
          <mxGeometry x="870" y="310" width="690" height="132.69" as="geometry" />
        </mxCell>
        <mxCell id="4RYRgsrVSUQU46YHIujC-1" value="" style="shape=image;verticalLabelPosition=bottom;labelBackgroundColor=#ffffff;verticalAlign=top;aspect=fixed;imageAspect=0;image=data:image/png,iVBORw0KGgoAAAANSUhEUgAAAp0AAAIWCAYAAAAVojYlAAAAAXNSR0IArs4c6QAAAARnQU1BAACxjwv8YQUAAAAJcEhZcwAADsMAAA7DAcdvqGQAAHkwSURBVHhe7d0HfFRV2sfxJyQhCQkQem+GKl3aKoqAvSCgq6urKHbQXQXLWnfBVVy76L6K7qpgbyvFjihNUWkCggpKBOkgLRBIAgTeec6cSyaTSTJJpuf33c/svfdMySQy8M9zWtwRFwEAAACCqIo9AgAAAEFD6AQAAEDQEToBAAAQdIzpBAAAKAONTrt375asrCzJzs6WmTNnmltOTo7ExcWZ+/Pz8815fHy8ec7hw4elZs2acs4558jxxx8vKSkpkp6eLjVq1DD3VwaETgAAAD9s3rxZPvzwQ/npp59k+vTpsmrVKhMuyyMpKUk6d+4sp5xyinTt2tWE0VgPoIROAACAYmzbtk2+/vprmTBhgixdulR27NhR7qBZnKpVq0rdunWlf//+cvXVV8txxx1nqqCxhtAJAADgQbvCNWw+9dRT8v7778uPP/5o7ykqrkq8VE1OlfiEREmomuK6JUt8fKIkJlWTKq62AznZcuhgrhw8kCv5eTmuwHrAtBUXv6pUqWJC5+WXXy5XXHFFTFU/CZ3FyM45JGkpCfYKAABUBlrJfOaZZ+Tpp582575ouGzZ+WSp3ShDGh7TVVq5zqul15cEV8iUuDjXI+LMeE49P+IKsCJHXCFTXOEzR/bt2iqZ382Q3zeskt/X/Sjrf/pG8g8dMK/rrVWrVnLrrbfKVVddZcaARrtKHTozN+6T1ZuyZV9OvmzdlWeus3MPmcCpbXpsUDtJGtZKNgE0NSVeGtRKMm2tG6dJRpNU+0oAACCaHTx4UKZMmSJ/+9vfZN26dUUqkdVq1JH6LTpJr3NvkIatukh6/eaSUr2aHMkX0d52J1yWzBVGq1QRnVsU57pl78qSPTs2ym8rvpLFn74gOzb9LHn7suxj3bTy2aVLF3n00Ufl1FNPta3RqdKFzmWrs2RZZpZ8/cNOEzIrQsNn30515ISOtaVr65q2FQAARJPMzEy57bbbTFe6dq0XiJPUmnWl59kjpMMJg6Vpux4mV2py0se5g2b5aQDVUBlXxRVqE4/Ilp++lO9mvSNfffiy5OZk20e5paamytSpU6M6eFaK0KlBU0PmvBU7ZOvOPNsaeOf3ayxDT2okDWsn2xYAABDJZs2aJcOGDZONGzfaFrfU9PrS/fSr5PjBN0vNug3dyyAdCuwEIk1gifEiNau5QmdV13lSghzOPyLbNvwqn7z6qHzz6euFwqdWOzUcR6uYDp1ayZz85Sb5bOE22xIaWv0cMbgl4RMAgAil8ef555833el79+61rSJV4hOkXZ9BcsbVj0jdZq1dQfOIHDkc2LCpNH2luWJCuitwxldxXxu6tmeVeNchX9b8tEzefeZO2ZC5XJoc01H++/K7ckKHWvaB0ScmQ6eOxXz1s/UmbOp5eWjXuapIZZTKJwAAkUfHb/7zn/+UcePGmfDpqF6nsZx5zWPSuf+fTNd3/sHyZQh/1EwRqeEKnCUNA01ITDDLM+3bs1tSq6e7ruOlbZ3D0qtFFami85WiTEyFzkCETTVycCsTGNX0hVvlsbdWm/Py0tfS1wQAAOGlsUe7qJ944gnb4ta4TU+56M43TXXz0IHghE0NXBoWa7nCplY5/U1gGoB1/KjOiE9MipdmaflyUpt41/s8IAdct7S0NPvIyBYze69ryNRwOHnupgoFzq4ZNY8GTnVGrwamrSL0PY14Yqls2ZlrWwAAQKhp4PzHP/5RJHC2/8NgGf6vT6VO0+AFThXvCpx1XPmwLIFTOROW9P0fyM2Xjfvj5bnJi+X000+Xk046Sf773/+a+yNdTIROHbupoU4nClWUr7U5na72itD3OPKJZRWeMQ8AAMrn8ccflwceeMBeuXU75XL50z1vSUpa7aB1pzv5snaqzlIvW+As6ogccr3Npx+4RebMmWN2SRoxYoS88cYb9v7IFfWhU4PmbRNWBGxWui6n5FmR1Krp1yt22quK0dfScKyVTwAAEDqffPKJqXJ66n7acBk8+nmJT0gK+Mx0T7pOvFY4qyUVBNAKcb1I/aYZ9sK9fNOdd94pK1eutC2RKarHdL4yfZ0ZwxloWu3UCUDqs0XbgrLM0rDTm8nlZzS3VwAAIFh+/fVXs77lmjVrbIvIsSdeIBfe8YYrcFaVw/nB61LXlKVLIqWnBChwulSpEi/79+6Sp24bLD8v+8q2ivTp08eE61q1InOGe/xYF3seVbRa+OLHv9mrwDpw6LB8n7nH3HRnomDQ19Zw26FFddsCAACC4brrrpOvv/7aXok0PKabK3C+Jsmp6cENnK5bSlWRWgHewFDrhcmpqdKyfU9ZMmfa0bU8da1Rve+0004z15EmKrvXdUZ5MCqcoTZh2pqAjEMFAAC+TZw4Ud577z17JZJUrbqcd9PzUqNO46AHzoQ49zqcwQhbhw4ekpYdusjwu583lU+Hrj06e/ZsexVZoi506kSc56atrdAM9UgyduJKJhcBABAEW7dulaefftpU/xwnXXintOjY24S2oHJ9yeopIlUTAtet7u1gXr50O+lcOXnIdbZFJCsrS0aPHm229ow0UTWmU4OmThqKtZCm3eyv3tPD58x5AABQNhptfvnlFzNx6O2337atIk3b9ZGrHpkl8YlJFd43vSSarJJc/6Q3qNiKi36pEh8ve3Zukwev6ydb1/9sW8WM6+zdu7e0a9fOrOWp161bt5bq1atLvOs5GRkZ0r59e0lKqvgKPf6KmtCpgVPX4QxWd7QGPl0aqWGtZElNiTfXqcnxsnVX3tGJRDqzPVgymqTKc7d0s1cAAMAX3bLy999/l127dsn//vc/+eabb0yIcugC6hqyfv75Z1PpdFSJT5TL/vmRtO15WlCrnJqqEl2Bs06qO3iGImQlVk2QJV9+Is/edaHk5fpXmKtbt660atVKWrZsaZZc6tq1q9SpU8feGxxREzp14pCOgQwkDZYZjVPltF71zH7p/lQaNfTqEkrB2M/9totbm8XoAQBAYQsWLJAPP/xQZsyYIYsWLZJDulhlGQy4dIwMGDZWDufnu5NhGTlP0eWPzNH+n700ElzZNznRlS+SXOdVQhM4HYmuhPvD/Fkycdw1sm3jr7bVfxpAL7jgAhNAtQoaDFEROp31LQO1dJGGS12y6PRe9f0KmsUJdBDW9zLlgT72CgCAym3fvn3y2WefmR2EvvvuO9m/f7+9x3/pDVrKiX+8XXqeeY3EVUlwhceydatrStIAqYEy3nWsVtUV8FznTvj0pFtcVtGwGaZkpRXPPTu3y/zP35XFs94zVc9DBw+4gnGcOebs3yN7d26TA3k59hlFpaeny9VXXy033nijCaKBFBWhM5DrcWrQ1MDZsHaybakYDcQaPANV+WT9TgAARKZMmSIPP/ywzJ8/37YUViUhUZJSqktiYrIkJKVIvOs6rkq8K/AdkZS0WtKi40nSuF1PadKml9Ru1FzyD+ab+/yhD9NQWdUVLqu74oJ2lx8Nml4vEWkhSsd4xse7Yqbrvebsz5WDebmuIBwnBw+4Qmd2luzavlH27dkpW9b9LPM+ekV2bdsgOfv22GcXaNCggTz66KNy8cUXu37Giba1YiI+dGqoGzZusTlWhFYRRwxuGbTu62Wrs8wkp4rS9znhlq4BC8UAAESTdevWmQlAL7/8sm0prF7zY6VVl/7SpF1vc0ytWdcVsAqXHnVcZ4IrhFZJiJP8Q4flcL5/1U0nEGkXeQ3XP8N6dF428kt0RcVVqWKqnEdc/9NjnCt8aiU2znU7nH/EFUTzzeSj+TPelvmfvek6/8U+s8CgQYPk//7v/6R584oXxCI+dAaiyqlBTsdL6rjN4mio1VnxmZv2FZo8pJOKGtRKkq4ZNaVr65Knoenzx0z6qcLDALQae/vFbewVAACVw7x58+TCCy+UzZs32xa3pGo1pEWnk+SEoaOlQcvOUqNuPVcIjJPDh1xxykd3uQk2ZYw3+nCtZtZIcf3bn+QOm9EYNMtCw3kVVwpNqBonO7dulW+mvymfv/Nv+d1rTGiLFi3k/fffly5dutiW8ono0Kl7oI98YlmFqpwaOB8b2cnMDvdFv8aULzeb7nF/vs75/RqbLTKLq0QGqjKrSyhR7QQAVBa6tNH1119v1pn01P4P58lJF93pCp3HmxB45PAR92SgANLXTXP9k6sLueu4zVgPm75UiU+QhESR7Zs3yXvP3i3ffPqG5OcftPeK1K9fX959913p16+fbSm7iA6dFZ2oU1KFU0OhVlD9DZveNHyOHOx7gK1WPHXiU0Xoa+vXAAAg1r3yyitm8ornjPQadZvKKVeMk24DL5H4xEQ5dKBixZySaFe6Bs5KmDWL0OWntDt+4RfvyWuP/1X27ChYdkqXVJo2bZr07dvXtpSNK89HLt2fvCJ0Uo6vwKmhUMdfaqgtb0VSn6vB0tdC9VpVHXtle3tVPpO/3GTPAACIXS+++KJcc801hQJno9bHyVWPzpEep1/uuqoSvMDpSpkaNtNTCZyO/Px8U03uc9qFcsczM6V+09b2HpEdO3bIyJEjZf368g17jNjQqWGwIouxa9j0VSl0AqevsFhWzmvpJCJv+vVLGkNaGh0Xql3/AADEqm+//VZGjRolBw8WdOO27NJfLn/gE6nX5BiziHswO2RrpbnHcFbG7vSS6M/80MF8ad72WPnrI5OlgUfwXL58uQmeZV0nVUVs6NTAWZFxkTru0puGOJ3oU5HX9aavNXbSSp8BUWfLV4QuQg8AQCzasmWL/OUvf5Hs7GzbItKqywC5bOxUSa1ZTw4GsTtdM6YuhaQ3AmdxjsiB3EPSom1nGX73fyU5tbptF/noo49k/Pjx9sp/ERs6Zyz83Z6VnVYYvWeaazjUbTQDtcC8J31tX8sl6UQgnYleXhUdXgAAQKTSNSAXL15sr9xLIQ0e/YIkpdYM+EQhT5oxdXvKmlQ4/aLhv9Mf+stFf3nYtrg99dRTsmJF2ZaKjMjQqSGuIl3rOpbTm04Y8uc1dfKRjsnU4KqBsbhZ7940zOryTt6Km2zkj4pWewEAiEQaVv7973/bK5GEqily1nVPSt0mx0h+EPdFV7rsZq1qrgAU0bNaIsvBvMMy4PzrpeeAP9oWkQ0bNsh///tfe+WfiPyRa4Arb9jSkOgdFPW1/FnrU8eA6lJFz93SzUwE0rUy9XzG4339mkmuSy95d7NriG1QO8lelY2+72BUZgEACKd777230DjOnmdfK217nx7UGepKK5u6L7pWOqly+k/XQo2LqyJDr/+nJCUXZCydBLZpk/8TnyO20lleJ3Ssbc8KlLYskgZDDZlaldRzX/Q+DaDF3a/0a/gah3l6z/J3sW/ZFf2TicZn5kmtj/fI2JXh/1501YGh9873WZUOtfFzNkitu+fJ2E/X2hYAiH26APzcuXPtlevf4PQG0uusEVLGLdHLTDNmfLzr67EEdrnkHzokTY7pICcNGm5b3HvjP/LII/aqdBEZOisStHTnIG+ljY0sbbcih1kKaXjJSyH5qqhWZL3NWKh0ztmRL7sPHpH7VuXJ1M0Fv9mGg/5ZcCrf81bssK3hMSczS3a73st903+Tqcu329bweO3LtXLimM9lwmdFt0ADgED68MMPZdeuXfbK9e/2wGHS0BVmNNQElSt1JieIVNUqp21C2VRxhfaeAy+QKnpi6bhcDZ/+iMjQuS+n/AOIfU0gKilc6LjNsixtpK9f0uP16/nqYi+pQlqSkiq00Wjogv2yNCt4A8TLYuzElQFZOisQhr70gyzdWDCDM9QW/7pT9uYclOc+Xy0zfyhYCBgAAiUnJ0cmT55sJqA4klNrStdTh7kCp20Ioipx7tnqJM7yO3QgX9p2P1m69D3btojMnz9fvvnmG3tVsogMnbr/eXn4GjtZWqg4oVPR7vjSaGW0JL6qk7qHe3n8umm/PYteT3Yq3JehwTNcvJex0iW0wuXJIRn2zE2DZyQY/fJ3smoTKycACIydO3eaLtizzz5bLrroIhM+HZ36/UkaZ3SRw0FMnc7YTV2Pkypnxej6nVWTqkjjlh1si5ixubpovD9iqtLpq5pYWld9RmP/Zqd7Kq1q6Ss0N6xVeQeRtKxWRab0rmavRNbuPxy24KnLWHnuFqW/IGjFMxxaut7LlKs62ivXz2VnbtiC5+3nFfwFoka5gicAVMT27dvl8ccflw4dOshdd90ls2fPNrvdOBq06iInX3KvHA7SWE4nbKZUFamX5l4iCRV36KBI5+PPkoRE1w/Wev/99+1ZyWJqIlGaDtbwUlKA1TGaGkLKo6SllHy9//LOYF+9KXxdroE0pFGiuTl0bOekdQfsVWjp8AjPIRI6/GL6wvB0KQ/pXNfcHDq2c9KCLfYqdBrXSpEnrzjOXols2pVjKp4AUB4//vij9O/fX2677TbZtm2bK1gWJMuEqsnSpseZMuyf70t6g2YBr3Jq2IzTrnRXyGxQQ6RudXfwpMIZGIfzD0uLdt0k0fXf0aG/UPgjIkNnIJXUrV2RSTplDcaBrN5Gq4ndU0zV03Hlkpywje/UIRKevwjoxgHhGt858ZJ2purpuPLNVWEZ3zmwYwNzc+jYzmmLNtgrAPDP1KlTTeD84YfCPTfJqenS+9wb5JJ/TJHL7v9IatZrHvA1OTVwJrsCpobN2qkiSYnudTkJnIFVJd6VTTTZW1lZ/q2tHnckmJualtOjb/1iljkqKw1oUx7oY6/ctIpVUveprstZ1mqnBk5ddqc42n3rPdloxBNLyxVqdDb+Yzd0sleRSWemz97u318cT/16oNBj0xPjZM1p1c0xEPS/jb8bC0yZu7nQY/XPj/55CFTQ15nps1fvtlcle2ruxkKPTXe9hzV/72OOoaSTiS4aP89UOh3vjOor7Rq7/gYHgFLMmDFDLrjgAtm7d69tEalWo450O3W4HD/4ZqlZv5EJLMFaj1OXQ0rXhd9d5wTN4ND1Og/k7pPRg5pJTrb739CEhIRC664WJyJD54Rpa8x6imXlK3TqTPJh4wq22fKmFa8zehVUd/xRWpD1FTovG7eoXJVVnV2vi9SHmlYgB8zbZ8Zi9q+bYIKlViadwNitZrzM6useYqDtFekqH968qqmCFkfDum4zqstV6eoBGiy1MukERh2X6wTz8v7C4ijt560VyAHPLDNjMfu3TjfBUiuTTmDs1iRNZt3Y1Zxre0W6yof3bmiqoIGgYXLhr/7t5f/6V2tlUWbBY6unJMond55sjgBQHF1/87zzzjMThxx1mrSRP/7tDWneoafocE739paBjx2aZHTMZrrrn6XISzWxxVfojIuLKzSEojgR2b2emly+md4aRry7vbWKWdJ4yuemlW1hbn39knY30uDrvVaoPqe8XfmBqrqVlY651KD58nr3by567bQ5lU1d9F35W+UsTmld7Bry9Wf42SJ3mNRrp01vGj6dX1L8rXIWp7SVE3TMpQbNl+0YUL122pzKpi76rvytchantC52nWGua2suzHTPGtRgqeMwtU1vVz9fUI1/9IOV5j5/bp6BU+nr6vPLK25als9bjY/2SP+v9smtK3IlKzhFDwAhcuDAAbn99tsLBU6dKHT5/Z9Ii449zf7d7rGbQQicrpupcBI4wyYx0b+iRESGzvJOulEaRryVtq5mWWYva+AsqZtcA6d3UKxIECpvAK8o7xDgq/vbadNKaEV4jvP0ZV9u4VDqK4g7Y3d9bQ5QFqWtMpDl9V58dX87bVoJrQjPcZ6+zFyx1QTCDxa7A7eOwdSbtulNw6Mu+q6cYFpeK4OwhNLeQ0dkzo5D8oTrl5dOX+yR/20K78YBAMpP91H3XKsxvUFLuey+aVK7SYYcyA3eb5WaMau6/vpPTyFwhs4R0WqnZypISfFvaYCI7F4vrfu6JBowPZfEUctWZ5nu2ZJot2pJ22BqONVu/9K6bn11rVeky9fX64WCr+51vXaqkk73uhM8tXtdH1MaHdOpSyY5NHAu6Z9W4phOX93reu2Ef11J4LGRnY7+t9OZ6P5M3Jr85aZCFWj9Zae0rU59da/rtVOVdLrXneCp3ev6mNLomE5dMsmhgXPJbT1KHNP56Ac/mVA5uGdT+edFnU3g1EqlJ23X+//xzvIKTQrSCUaes9vLQqua6tS5hT+DBxPiZW9aiqxrWke2165u2hafnCbHpYfnFy0A5bN7924588wzzSLhjgtuf1V6nHFZUAOno1aqe9F3Qmdo6G5EO7dtkHsuPlZy97v/7WvXrp2sXFl6bovI0KmhoqSJOiXRwOA9rlPd9uyKUiuO+tyhJzUy1TJnSSQNNvo87dotrYu8uEk/5R3Pqcoz0SlSaSjV9Tmd7ngNmk6oDTWnwu38mdD/9k6oDTUNpbo+p9Mdr0HTCbUl0e71q59fIE9e3l16ZdQx1U29dhZ218k/L17f++hYTA2de/0IwDqm03MikS6npJOJyjum0wmd3uLzD0v6nv3SNnOzbGhUW9Y3qSMnu/4szLZjhQFEB12jcfDgwfZKpHWPM+Wy+z4w1bAjQdxQXcNLout31Eah/2u7UkuomiBfvv+KvHj/cNd/X3eEHDNmjIwdO9aclyQiQ6eqSFDzNTmotAlFgaDVNu/QUpGqrQZfrbzFitErco+OA1W6U9GojPIPpagI78lqWuWuyB75FTF6aubRcaBKdyoadXJTexVaGlxHvVIwrlODphNqy6u40OmolnNA+nz3i8w/ro3sT6kqPwxMk2OrU+0EosW9994r48aNs1ciZ10/Xk78481yMC+4VU4NLzWSRWpVc58jNFJSE2TCvVfKlx9Msi0i7777rvzxj3+0V8WLyDGdqiJdyr4mB2m1UINFsGhg8VUl02V5yqs8uyVFKg2bnoFTZ6yHK3Bq2PQMnDq0IlyBU8OmZ+DUGevhCpxK9173nEg04tTWFQqc6sjgmj5v68+oLqfUSzBBc1udmlI9211d/S4reJURAIH32muv2TORqinVpeNJF8qhg6H5HLOoRmjFJyTIlnUbZM1PBUW8xo0bS9u2be1VySI2dHbJKP+6gNp16muHGQ0WwRgf6YwH9abvoSKTiMqzL3wk0nGg960qCJw6jtN7P/ZQ0eESnqsP6DjOYP4yUhIdB3rf9N/slXscp/d+7KGk40OdiUdKx4JedlLhveoDqWlyFTmxtruimeMKnqn73X9GVmeXPh4XQOTQHYccVapUkZTUmiEbYOn6cgiheNdf2Su/myMbVi+3LSI9evSQLl262KuSRex/rorOQtZqp4ZPbzoxJ5BVLX0tX6FFv3ZJSyv5I1YqnRo4nUlGOo5T1+QsaeJQMOl/E+fPhY7jvP1PbUqcOBRMGjidSUY6jlPX5Cxp4lAw6ThQrXI6dBzn7YMKT8gDAF/y8goPhXOP4wzP3/EIHl2Lc3/2fvn4lYdti7vt8ssvt1eli9jQqUFAK4jl5UwU8UVD4rDTm9mr8tH3p6+jN+/Qol9bFy8v75hUpRXZWJpA5BjTLiksE4ccnr+I6J+BcEwccnjOah9zRosKL7FUEc/NWG3Gcyodx6mz3lkMHoA/NHgg9iUmxctXH06SDZkFVc727dvLOeecY69KF9GF6fNPqlhFUru2iwuel5/R3EzSKU+wNbPUR3YqtmKq1TRf64WWxWm96tmz6KdBU+kYznCN43Q4v2zof7tAVrzLQ4Om0jGc4RzHqfbkFqyRGYhxnAAqj2rVqtkzK06jBVN7Ykli1QRZ/8tK+eS1R22L2z/+8Q+/1+hUETt73VGRWewOrUaWFDCcZZG+XrGz2DGYGjR1nKlWIJ3llHzRCSo6M7oiYm3WOiKfLh5/zfMLzBjO2wd1sK3BsS3viJz77T5ZuLtg7OYxv7nHhP3aouCXwF614uXDPqlSP4kqChDJevbsKYsXuyeWJFRNlqsf+1KatOlpdyAKHg0vddNEUqsScYNJ1+XMy90nT902RH5a9IVtFTn77LNl6tSpfu9GpCI+dOpkHO2qrigNi96LxhdHl1fSoKvd5rrTjR69u9C9OWM4PWdFl5dW47QSC8Qq7+DZYv12199GIr81rWuue6W7AucfCJxANJgwYYLccMMN9krkhPNHy7k3PiEHPIYQBYOGl2quvFOvOqEzWOLjEyQ//4C8/NCNMvf9F2yrSHp6unz55ZfSqVPRtclLEvHzvnS9zYpsi+nQ7u4RTyw1gbI0OpZSx/ppxVHP/QmcGowDETj1a4W72xcINg2TGio1XKqdtdJkZ3qaOTeB83gCJxAtOnbsKKmpBT2AK7/9QH5fl2mW1wm2A67fWw+xylpQVImPl/xDB+R/z97rCpwv2laRBNd/1/Hjx5c5cKqID53K1+zw8tBudF0gvqLd3w4Nm/pa+poVHcPp0CpnaSEXiAWewXNvWrK5mS51DZxVCZxAtOjXr58MHDjQXrl+idy0Wr763+Om/BjMSUb6yodcoXNvrvscgZOYlCDZWTvktcdvtuM4C2rJt99+u1xxxRX2qmwivnvdoROCAhXslAY7DXi6FmZZZ4lr2NSqpj9bY5ZFWYYAALHC6WrXfzVMlzqBE4g6uu/6SSedJAcPuicl6haYQ0a/JD3PvkIO5eUf3S4xWOpXF0lOpJu9orS6mZAQJ798v0heeXiErF1ZeCfHq666Sp5//nlT7SyPqAmdGvTKux97aZxJQnrUrnzPEKpfV2/7cvJN6P36h50maGpbIGkI1hnxJU1SAmKVBk9FlzoQvbQC9thjj9krkcTkVBn0lwly3OnD5PChw3L4cHD6wfVvjyRXBqqXppNe3G0oG13UP6FqFdm9fbvM+/hVmfbCfZKTXXhi9ciRI+Xxxx8v02x1b1ETOlWgJhX5S4NgoMNlcZg8BACIZjt37pTzzz9f5syZY1tcIaNKvPQ9/1Y54YJbJb1efdEJ7fmHAv/vqgaZqvHuSUUJrmP0JJvw0apmfGKcHMk/Itm7d8uXH02SLz94UTZm/mAf4abjdXV//TvuuKPCwyWiKnSqQHezRwJnG03GcgIAotnWrVtl0KBBsnDhQtviVqvRMTLwz2Ok2bEnSP0WrUWLnmbjogA67EozGjzrpLkrn5ESbjRlFbd8lC5HFFcldD08+qXiXD8j/YrbN2+S9ZkrZOXi2fLVhy/Jnp3bigyD6Natmzz33HPSp08f21IxURc6lc5C10lBsUC707VbncAJAIgFO3bskOHDh8uHH35oWwqkN2ghdRq3kZadB0ibXmdKQkLVwPaJuxJNlSpHJC0pTlLDuxeJdURSqlWXOg2byiGvafZaNdy3d7cr7G21LcGjW5Mezs+XLet+liVzpsqeXb/Lzm0bZOv6X3wG4lq1aslf//pXufnmm6V27dq2teKiMnRql/dtE1ZEffDU8aO6CDyBEwAQSw4dOiTjxo0zS+vs3r3btlZOaen15C8PvS1djx/g+rm42zRn783aKw+NGChrVy5yN0aA6tWry7XXXmtuusVloEVl6FQaPHWpolCNuQw0Jg4Bbkuz8mX29kMypFGitKzGLAAgVmi8WL16tdx3330yc+ZM2bx5s72n8jn9/Cvlzsdektz97g0x4hPi5ZcVi+Uvf+xprsMpLS1NOnToIGeddZZcc8010qRJEzOxKBiiNnQqrXSOmfRTQJctCgWtcN7+pzZmAXqgsus+O9sEz/TEONl1dg3bCiCW/PzzzzJv3jx59dVXZcWKFWZppby8PHML1qz2SFGnTh15++235ZRTTrEtbjrxqnfv3vLrr78WGUsZaPG60Ht+wdbDNWrUkFNPPVWGDh0qxxxzjBx33HGSnFy25SPLI6pDp9JKp04uKm7P9EijyzLddnHrMq8NCsSqVjP2ytr9hwmdQCWgwSc3N9eM+1y7dq1s3LhRcnJy7L1uugbk999/b5bncVxwwQVy3nnnmW778qhatap89tlnJvQ69DWHDBkiBw4csC1lo6/5zTffyLPPPmtbRPr27WuWFtIwrfFKv5cTTjhB2rRpYx9R2Pbt22XWrFmSlZVlqosaDn/88Ud55JFH7CNEzjnnHLnwwgsLhcay0PeQnZ0t99xzz9GhDn/729/k4YcfNuehFPWh06E7AwViG8pg0u0t2XEIKEyrnFM3HzTd691qurfFBFC5zZ49WwYMGGCvxIQwXQe0InQWtgZCx6OPPiq33XabvSqfyZMnm/Dq0J16Jk2aZK/K56uvvjIL7Tt0uaL777/fXpXPpk2bpGfPnkeHONx1113y4IMPmvNQipkBVLrkUKC2yww0DZnO+yNwAoVp0BzbPpnACcQordBppU2rm3v37j26a1FJvB9T3gqnJ+8aWyBeMxi831cghh/oa5b1dfTx+/fvl127dplKrFZvKyqmRu1rJXHKA33MupeRQre2nHBLV/PeABSllc7xmXmmix1A7NCg8/HHH8vpp58uLVq0kIyMDHPUcYS+llNC5Fi5cqVZDF7/m7Vq1cr8d9M1O7XirL88lFfMTRXVSuLtF7cxSxGFc2a4jt3U96B7qTN+Eyje0AX7ZfSKXDOhCEBs0KrYrbfeagKmzlzXSTNaLdOq2UcffWQWkNdxheUdp4jg0f8+OjZVtzTdsmWL+e+mNyeInnvuuWYyWHnE7PokGjid0BeqyqcGXmeikH5dlkMCSudUOHcfjInh5QBc/vWvf8nTTz9d4iQdHVOpyyn5opN0EDw6uciXRYsWycUXX2x+SSjOt99+K1dffbWZEFZWMRs6Hdq9rZXPGY/3NWMqdbmiQNNwqROEtBv9sRs6yRm9GjB2E/CTzlr3PAKIbsuXL5cXXnjBXokkxsdJ/+PqyXXnt5XTTiw89+KZZ56RadOmmeqadrnr7dNPP5Uvv/zSPgLBoFVL/Tl7/tw///xzGTt2rBl/6+jYqqZceXYrufistlKnVjXbKrJgwQKz8H9ZxXzo9KTjKl+7p6cJooGir6UV1cvPaE43OlAOs/qmyph2STKld8FfaACily53pEshOc47qYl8/n+nyPP/Ol0++981cv2lBQuia0VNly3SLlvtctebLlL+97//3T7CLdbX8gy1d9991/ycPX/up512mgmhjmMap8nUR06Slx4eIG++MkweuecMe4/b119/bc/8V6lCpyM1hVmyQKRwZq/3r0vvABALvGeJZ7SoIfGuf3eP7D8kklJVevRqbu/xny6wjvJLSkoya4CWRUbz6tK6bS05or3oh+OlS9fGkl69oLhWnvVNK2XoBAAAweG9heKylTtl/848iUtLlJ3rd8mHH/1o73HTMJSYmFjsTRdW91yzE2XXoEED6devn9l1SMdz+vo5683zv92KX3bLnC83SFyS65eIQ7ky/9vfZPfegnGcGmTLitAJIGx08pDOXNddiXQWO4Dod/zxx0vbtm3tlcj0+Vtk4F9nyZWjP5Vzhr0s789Yae9xhyEdT6hLK2nXrudN2z/55BOZO3eutGvXzj4D5TVx4kT54osvivycnZveN3jwYPtokc07cmTYP+fLpbfOlAuGvyG33P+JvcfN87H+InQCCBvdichZo1PPJ60r33Z0ACKHrut400032Su3+T/ukEkf/iLfLikY66l0V5wzzzzT7AOuYwo9b7q+p+5X3rBhQ/toVIRWOXVLTv25ev+s9aa7IOkySU2aNLHPEFm/bb+8MeM3mTxjtRw4ULC8lT5+2LBh9sp/hE4AABBQN954o9k7PSUlxbYUlp6eLmPGjDHbRiJyHHPMMfLKK69Ix44dbUtRuu3nO++8Y7rjy6pShM7snEOSuXGfzFuxw+zPnrlpn72n4lZvypZXpq+TZauzzA0AAIjccsstMmvWLLMIfPv27U1XunaT66Lx2pWry/OUdXILgm/gwIHmv9tTTz1lxoFqpVmrn7p+p4bNt956y/zSUB5xR7ynmUUhDZVbd+bJll255rh1V54Jmdm57na9P9R0kXhdq/OYxu5lYPRa1whlWSWggHanX7kkx16JTOyeIsObsyg0EEt0uaN9+/aZ/dR1EkuNGjXsPaE1YcIEueGGG+yVewH7O++8016Vz+TJk03lz6GV20mTJtmr8pk9e3ahiVN33323jBs3zl6FVk5OjrnpBKPU1NRyVTc9RV3o1AC5LDNLvl6x01QswxUqK8oJpV0yasgJnWoTRlEpEToBhAqhM/yiqntdu69HPLFUxk5cKZ8t3OauZkZh4FQanLW7f8K0NTJs3GJzDgAAEKuiJnRu2ZkrYyetNJXNWKRBWkM0EGt0WaSlWfnl3ltdnzt7e3T+cgkAKBA1ofPVz9ZHbVXTX/o9ArFGu8+7z86WWh/vMWtx+hs+nTU89bkD5u0zRwCVi44A1J1v8vMLlutB2em4Wv05hns70agJndodHesqw/eIykcrlQ5di1MXgi+tcqn3a8jUNTwd5a2UAog+W7duleeff15uv/12szf75ZdfbsZgzpw50z4C/lixYoU8+eSTMmLECDnvvPPMmFadlb5yZcEC/aEUNaEzVrvVPcV6JReV05L+aTKkUcGMRw2PWrnUKuacHYWrF9O2HDLtWhHVBeMdui/7rL6p9gpALHv22WelT58+JijpWp+6K9Ebb7xhJtScc845cumll8qaNWvso+HL7t27TWDXBd916ar//ve/Mn36dBPkR40aJX379pW77rpL9uzZY58RGlE1kQhA9ElPjJMpvavJk50Kr9CgVUzvHYicHYqcqqY+V5+nz29Zjb+ugFj3yCOPmIXlf/vtN9tSWG5urgmgf/zjH+XXX3+1rfCkQXL48OFmdyENn77s3LlTHnroIbn++utNt3uo8Lc4gJAYlZFkqp7davq3GLQ+Tqub+jwNnwBim3adey8NVL9Wkpz1h0ZyXPu6tsXtu+++M5VPXfvTX3Fx0fn3iK6RWRbPPPOMTJs2zV65tW6SJuec0FiOaVrdtrjpQu9a/QyVqFmnU2evVwas14nKQLvQPcdretO1OrXCSdgEKgeNItddd5288MILtkXk4lOby33XdJZjGqfJ/rRGMmX2Ohk19mPZvacgD/zvf/8zWzaWFj5133Hd3vGBBx6wLdGzTuc111xjdnHyJ2BrsB40aJCsXbvWtoiMu66LXHVOK6lXv6b8Hl9X/u/VRTLu33PtvSI9e/aUr7/+usILv/sjJnYkAhB9dLKQ92x2pzudBeKBymXz5s3Stm1byc52r1LRpG6KLHv9bKmTniSSUE2kfjORasnyzweny5jHAzOZ6MEHHzTjGisiGKFTt6DUrSgD4cKBzeT1+/tKYrzrF/iUWiINm0ru/gNy4dVvyIczfzaP0a1I3333XRk6dKi5Dia61wGEhU4OWnNadRMwdbymTjbS7ncCJ1D56JJITuBUtdOrugJnshw5cEiOxCeKHHGFpryDcvEFXe0jKk635IxEWpUNlB4d60pitUQ5cvCwHElyhffcQ5JcM1natK1nH+H+2WvoDwVCJ4Cw0cqmbn2p4ZPJQkDlpeMWPcNW1t6Dsjf7gMQluP5OyD8ocjhfpGq8fDpjlX1EAe1SLstNNWzYULp06WLOI80xxxwj7dq1OzqW09f3UNzN24+rd8vhvHyJq+K670COK2lXkfycg7JhfcEEI/069evXt1fBRfc6AAAIK622adf066+/bltEhvRrIhPv6SPp6Ski9VvKZ/M2yJ//8o7s2O0KT9b9999vQtqhQ/4vOajh7MQTT5RWrVrZlvILRve60tnlOrFq3759PsNkcTTS6TjVLVu22BaRh27oIndc2sEV2l0/x3ot5J9Pz5UxT8yy94ocd9xx8tVXX0lKiuv+ICN0AgCAsHv//ffloosukry8gkmGTeunSO0aVeXgkQTZtC1bsvYW3KeLxuvs66SkJNsSesEKnRVxzz33mPGqjqoJVaRlo2qSXDVBcg7Fya8bslwhv2Ad5DFjxsjYsWPtVXCFPXRmbs+RZ+dtkjmZWbJ4/V7TlpYULz2aVpfLezWQq/o0NG2ebp2WKU/M3mCvRJ4YkiGjT25qrwpr++AC+eX3gt+Krj2+kfznorb2qrApy7fL5a+vlOw894LV+j6W3tZDMuq607/31/V2cka6zP6Le7xJ//9b5vqeiq6P1cj14enRrLr8bWAzOemYmra1KM/n6/v4+LrOJT4eAIBod9999/kVgNq0aSMfffSROYZTJIZOrY4OGzZMpkyZYluKd+GFF8qrr74asuAe1gFUGjjP+s9yE+ScwKk09GnguvqtomM31Ac/7LBnbtOWF7725Bk41X+/2Sxf/up7u8mn5mw8GjiV+30UPHavx32lyT7g+7Gb9xyQD13v/2zX960h1xf9uXgGVn0fU4t5LAAAseLvf/+72ZGodu3atqWok08+WT7++OOwB85IlZqaaoKv7uhU3Bqf2q47FenjQlkpDmvo1MDphEKtEs79azc58uTJ5nhL/6amwudNg5rznDb13BVIDWga1EqiFUaHrwCnQdQJes7rluTFi9uZ9+p5c6qc3pz7V9/TW87tWMe0aZDUkOuLVn6Vfv/O+/YO2gAAxBoNQyNHjpRly5aZHXV69Ohh1pHUcYfnnnuuWU7ogw8+kNatW9tnwJcaNWqYPdb156jrfHbv3l169epljrr/uu7J/vDDD0u1atXsM0IjbKHzvum/HQ2P2t2sgc3pPtbj44MzZO9DJ5prT+8u/d0cNYyN7NvYnKvXFm+zZ741rpl0NEz6CnBOENWg1791ujkPNO2m/+CaTvaq+Gqo8/70fTjvRX9WxVVoAQCIJU2bNjULoi9atEgWLlwoixcvNmGzf//+Ur164V11wsl7wXadEBUpqlatKp06dTL7rusOTgsWLDBH3bGoQ4cOYVkyKmyh0zP4XdrD/6n6s1e7q5Eaxs6zVUM165ei4ye9DbKP1wDn3bX95nfu0BqswOkorSKrwdIJ4wPbpEuv5gUfLrrYAQAIvx9++MEMBRg9erRtcdMxnrqz0pdffimHDxdM1oFb2EKn5xjO4iYBedOgqGMi1alta5nKoXbLK+0aL60SOKRzwd6tTsVUeb6uBr1g0fc3amqmvRI5rmmaPSvgGSz156I3Z5iBE4wBAEDo6dJMun2m7hikW2p6L6q+f/9+U1k866yz5Nprr5UdOxga5ymsYzrLygmKGsKcWe0DPEJiaZVA7bZ3utidiqny7LL3NwDrJKe40XOO3qrf+ZW9pyjnMf3+vdRMIlKXHFff5yx6pwLshGnlVF81GBc3+QiIVpkb98nkuZtky86C/ZQBIBL97W9/k7vvvlu2bSu5CKQzyF966SUzi1zX3IRbVIVOz651x2UeXfP+TLZxutg1wL003714qucYylDQyURvDOtgrwp4dq17hmnP6qtnhRaIBY++/YtMmLZGRj6xzLYAQOR54403zOQcT52PqSnXDDpG/vO3XjL68u5yfI/mkqi7KFmffPKJPPLII/YKURM6n5yzwWcXuHaxO9VLfybbeHaxa9VQX9dZJunCbgV7kZbGe/a6r0lPDu+Z61rtvO4d90b7nibYWevKM0x7jl31rNACsSA7x/+dRAAgHPbu3Sv/+c9/Co3THDm0tcyacIr8d+zxcu2fu8gTj14gX7x3lTx6z+kSH18QryZMmCAbNhS/xndlErbQ6bmEkT9dxjM9JgrdMjWzUNe2Ux1UZe1id9b41Pcz1COQBpqG4/FDMgqNz/SeVOQZKFuPW3D0+9NzB13siDX3De8gw05vJo+NLFjZAQAiiU4MmjNnjr0SOaFTXXnkpuOkTnqyHMnJlyNJNUXyDktKQhW5ecRJMnJYL/tIkT179sjTTz9tryq3sIVOz67s4tar9ORvha8sXezuxd+LdtkHiwZPz6/trMepPCczlYYudsSSjCapcvkZzc0RACLRrl277Jnb8V3qSlqNqnLk4GGRuCoSl5SmG5+L5LturuB58gmF93X33Au9Mgtb6NQ1Np2qnwa/QS+sONo1rhVAXcez8ZhvinSB66Lxnt3azs2zi720SqBnF7ujLF3rFeG5tqjnbHTPIDn5qo5Fvj/tnnf4E6yBaMFEIgCRTrvXPbVrWt0dMB1x9qgOH5H01CRJqlqwwY3OekcYQ6d2c79yafujwVPHOersbqc7eeyna49W/jy71n0FRuVZqSytEujZxa7K07XuPXtdb7pfemn0a+ti+Eq/Pw3UyqnkFvdetErqPE8DuPM8INqNmfQTE4kARLR69QoXpr7W4k+iR4TSKqcjvor8vmOf5HlsAKMLtSPME4k0XH18XWezfJBnCNQgqksG6WQdfYyzpqeGLg1tvpzVoWCf1p89xng6oTbN4zcO5Vlx1K/vqbp9jqpVrWDFfs/20jhfz/n6njwXw/9p635T4XUCtjPZyJeTMwq+d30eEAu27swzRyYUAYhUGjrj4wv+PZ+7ZJusWLFd4pITJO6IK1xm73IlKlekqpogO7dkyfOvL7SPdNNtPCGun5WLPQeAkBt673wTONNSEmTKA31sKwBElksvvdQsm+TonFFTHvtLdxnQvb5IQqLE128uP6zdI7eP+1SmzynYCKZVq1aycuVKqp0uhE4AYaVjOuet2CFdXX+Bd23tuycDAMJt+fLlcuqppxZaGD4pMV4a102WOjWqyt68I7Lp9/2yd1/BpODExER5/fXX5cILL7QtlRuhEwAAwA/vvvuuXHPNNWYZpNIkJSWZ/dl1B6O4OM+ZRpVXWMd0AgAARAutWM6aNUsGDRpkW3zr1q2bvPfee3LPPfcQOD1Q6QQQNjqW89XP1pvu9daN02Tsle3tPQAQufLy8uTHH3+UJ598stAanKmpqXLttdfKiSeeKDVq1LCtcBA6AYTN9IVb5bG3Vtsrkdsubi1n9GpgrwAAsYTQCSBsCJ1A5ZJ34JC8NHmh/LRmm/yYuU2279pn70G0WPreKHtWdozpBAAAQTd74a/yx9GvyfPvzpe5i9YQOCshKp0AwoZKJ1A5aOAc9dD75vwPXZvLn87sKh1bN5D6tdNMGyJftwvGmyOVTgAAEJG0S/3xSXPN+Uk9Wslz/zhfBvTOIHBWQoROAAAQNDqGc/2W3dKnS3P5992DbSsqI0IngKDSZZF016Hy7q2uz122OsteAYg2P6353Rz/dGYXc0TlRegEEFQ6ZnPEE0vNHutjJ670O3zq4yZMW2Oee9uEFeYIIPr8mLnVHI/NYLx2ZUfoBBBUqzdl2zMxi8APG7e41Mql3q8hc/LcTbbFHUIBRB9nlnrDutXNEZUXoRNAUD13Szfp26mOvXKHR61cahXz+8zC+xd/s2KXaR87aaVs3ZlnW0W6ZtSUx0Z2slcAgGhE6AQQVGkpCWZ7y5GDW9kWN61ifrZwm71y00qotjtVTX2uPk+f37B2smkDAEQnQieAkDi/X2NT9cxokmpbSqaP0+qmPk/DJwAguhE6AYSMBkkNnhokS3J6r/omcPobUAEAkY/QCSDktMtcQ6V3BVOvdVei2y9uQ3UTAGIMoRNAWHRtXVNevaeHqWo2qJ1kJhtNuKUr22ACCIunXv9Wul04Qa67z71dJwKP0AkgbLSaqVXN1+7pyWQhAEU8+MKXJgj2vfwF21JAw6Fz38ZthVfCcALkpXe9Z1tKty/noPuY6z6Wlb7X0657xXxdJ7zOXfybvReK0AkAACJS/drucd0aCL//2b3IvGPBio3mqPd9+d06c+5w7mvVON0cg00D5jvTV8jvdk1Spe/h+f8tsldQhE4AABCRendqYs8KgqT6cO7P9sxtxS+FA+kPq93LsXVqE/zhOlrNdN7bRWd0kqXvjpSPnrnUnKcmJ5p2uBE6AQBAROrStoHUq+Wudv6QWbCub+b6nfbMbYUNmcozkJ50XHN75rv727t66vB87JCb3ywScj3t2VewkcUxTWuZY5P6NeTua06S/4w5z1w73vp0hXk95z34em1t1yED+ljnPWiwdZ6jQwc8OcMM9D0rHWow+tFPzWs4r3Xvv78oNATBGbagR32snuvrBBuhEwAARKxObeqb45oNu8xROZXMAb3dm06s3bT7aKhyAmnLxukm/CkNVr66v0c+8EGR8aD62p6P1df+1wtziw2o3ds3tGci/37jWxPkvF9TvTD5O3noxS/N6zn0XAOhd/DUIQP6Ws570GDrVH09K776dZxrDbx6feO4j2TWgjUFY1RdR339vz05w1x7+mjuKvNYVd6xrGVB6AQAABGrT+em5ugZLJ2q55WDu5ujcsZ1OoG0t32eVgk1WKWmJMoDfz3FdH+/Mu58U0HVQPbJV6vN4zxdOaS7edydV59krp3g5osG279c0sec6+M0sJ5z4+sm6HqGz4lTvzNH57W1C94Jkl/M/9UcPVVLrmrep97O7df26Pej35/zus571+/t4jM7yf9m/Gh+Thq49Xn6dfR7Vvo87+Cs79cZEnDHlSfa1uAhdAIAgIjl2UWuwVJDpIYlDY3a/d6xtbsS6ozrdAKp3qe+WuIOo/ocrSpqV/Ll90w+WkXctrOg+qn09W6+9A/mXIOcBjjl2b3v7Zrzj5On7zy70BhUDbpadVQaWPXrq4lTl5j3oMHUqVJ6vwd1tes19Xtwvo+zTmxtjsoJmwuWbzBHJ5A6r6fBU79H/Tr6PTvWbcmyZ276vekwAOV8nWAidAIAgIillUQn+GmwXLJyszl3ut07ZtjQaSt5TrjT6qA/tEpYktRqVe1Zyfr1aGHGcGqF0QmfGv50bGZpfE04SvP6uvpzONrFbsOmE4SdanBpaqQm2TM3f7+3QCF0AgCAiNbJVjPXuEKc033uhE2nQqcBb9ZC9/hEz4qjQyuj2o3sfXOqmsXZt/+AOfo7E13fj+cEol89xqIqp9vb8+Y94ag4R7vYXWFTw6wGbKdr3ZOOdfX+GnrTYBxOhE4AABDRnKWPNHA61T0nWHpWND+c4x536XS5K2dGuXane878dmaSey/grl/DeZxO/tEwqzxf05M+Vheh96xoen6dE7s3LzTZaOK0JUfHZOrX1lnj3jPSi+N0sWvYfNH13pQTRJWzLqlWQp0xqPq19PvQmfDhRugEAAARzXNcpwYuZzynwwmEzjjN7u0bmaPyHJfpjKfUm/dMcodWDp3H/d+b84+2/fG0Y825LxpU9fWc19bnK604anVRu8adcKxjPXU8pz7upoc+LjQbvTSeXezO9+rZtW7WBnW9V/0ZOeNX9Wvp97E/112xDSdCJwAAiGieYUv16Vy4+9zzPg2Y3t3Iz9xzjgl9zpqfSp+jM7u9H6vBTR/rjPXUQPuvm08z78EXDaP6HCfYKj3XWepP3n6mbRHztbTN+3E6891XF7/3+EvHwD7H2DN3GPbsWtcgru9Vw67z/vWo1xPuHWSuPYV68fq4Iy72HAAAIKC6XTDeHJe+N8ocEZ0C8d+RSicAAACCjtAJICIs3Zgt4+dskLU7c20LACCWEDoBRIQr31wlo6dmSvfHFtsWAEAsIXQCiAi7cw7ZMwBALCJ0AogIU67qKGPOaCGzbuxqWwAAkWDL9r3mWNdj9n95EDoBRIRuTdJk7JktzREAEDl+zHTva39sRsX2Zyd0AogITCQCgMj09qffm2OHVvXMsbwInQAiwtCXfmAiEQBEmL8+OE3mf79OmjVMl6vO72Vby4fQCSAiOBVOJhQBQHjpGM6Z81fLiH9Oli8XrzFttw7vJ0lVE8x5ebEjEYCIUOvueSZwpqckyK4H+9pWANHO2ckG0UkrnBo4+/cq2H6zvAidACKCjumcuny79G+dbm4AYgOhM/roLPVjM+pLh1b1TZd6RSucDkInAAAAgo4xnQAAAAg6QieAsNOxnDpzvdX9880sdgCINrsPHpGxK3NlwLx9MnoFS7/5Qvc6gLCbtGCL2XvdMfGSdjK8d0N7BQCRbWlWvgxdsF/W7j9sW0S61YyXid1TzBFuVDoBAADKaXxmnqluegZOpUG0++xscz/cCJ0AAABlpN3p2o2uNz0vjt5/5ZIce1W5EToBAADKQKuYWt30t4o5ad0BU/XU51VmhE4AAAA/zd5+yAROzwCZnhgnLasVjlR67dnmdLdrAK2sCJ0AAAB+cGane3an96+bIGtOqy5Pdkq2LW43H1PVtA9plGhb3LSrXV+nMiJ0AggJXRZJdx0q797q+tzZq3fbKwAIvZfXH7Rn7uqmBs1ZfVPNeXGm9K5WJJA+9WvlrHYSOgGEhC6J1P2xxWaPdV2L09/w6azhqc8d8MwycwSAcBjTLsksgaTVTQ2TozKS7D0l08ct6Z9mnqc37xBaWRA6AYSEVioduse6LgRfWuVS79eQOX7OBtviDqEAEA7Dm1c14VGrmxoey0LDqj5Pb/o6lRGhE0BILLmthwzpXNdeucOjVi61ijknM8u2uk1bscO0a0V07c6CsU/9W6fLrBu72isAQDRhRyIAIaVVSw2UZZGekiBjzmhhdinScwCINFM3HzS7Ejm0C93f7vfKgkongJAadXJTU/Xs1iTNtpRMH6fVTX0egRMAohehE0DIaZDU4KlBsiRa2dTA6W9ABQBELkIngLB5ckiGCZXeFUy9nnhJO3OjugkAsYHQCSCsdHLQmr/3MVXNlrWTzWQjrYLqNQBEq5LW7qysmEgEAAAQALrbkE4o0uWRdB1PgmdhhE4AAAAEHd3rAAAAAaB7so/PzJO1+w/bFnii0gkAABAA3Wdny9KsfNOtvuvsGrYVDiqdAAAAAeBUOLXiiaIInQAAAAg6QicAAEAAOLPVdfY6imJMJwAAQADoeM7Z2w9J/7oJBE8fCJ0AAAAIOrrXAQAAAkCrnKNX5JoF4lEUlU4AAIAAaDVj79EZ7EcG1zRHFCB0AgAABIBWOKdtOSRda1SRURlJthUOQicAAACCjjGdAAAACDoqnQAAABWUnXNIJs/dJN9n7pGMJqkycnArew8chE4AAIAKyNy4T8ZM+km27syzLWKC5+1/amOOcCN0AiVYtGqXLP45S3Zk5cnOPQdlx54DruMB2Z+Xbx8BRL5qSfFSu0ZVqeO61a6RKHVqJknPtunSo126fQSA8tLq5qufrTeVTl+04nl+v8b2qnIjdAJeZi/dLt/+uFPmu27ZOYRLxK7q1RKkd4da8odja0v/bnVtKwB/aMjUsKmhszSn96ovt1/cxl5VXoROwPps4TZ5a+YGWb8tx7aItG6Sav5Bblo/RWpXT5S6NZNMtahaMtubIXrsz803VfrtWrHfe1DWb90v83/aJas37rOPEGnm+jN+8cCm5h9HACXT7vRH3/7FHP1FdzuhEzBVzbe+2Cg/rN1jrts3ry4nd6vjDpv1UkwbEIs2/J5j/vzPWbpDVq7ba9o6tqwhF5/SxPz5B1DUstVZMnbSykLd6WkpCZKaEl9oTGeD2u51Oj3b1G0Xt5YzejWwV5ULoROV2n8/XCvvzNpozhvVSZZLTmkqZ/WpnH8ZoHL7ZP5WefOLDbJ5R665vmhAE7n23JbmHIDbK9PXmS51T10zasrYK9vLskxXGJ240rYWjOXUtnkrdthWt2GnN5PLz2huryoP1ulEpZR38LDc//LKo4FT/3F95e4eBE5UWvpnXz8DTtDUz8b9L68ynxUAbp8t2mbP3NVNDZaP3dDJnBdHA6n38klTvtxszyqX+LEu9hyoFNZtzZG/v/iTLPklS2qmJcrY4R3ktJ6MYwNUx1Y1pEOL6rLo593y8/psWfDTLulyTE3zWQEqO9OFvitPmtevJjdfkCEDutez94iZD6ATUR292tcynyWlx76d6pjHNKydLH8a2ERaN0kz91UmdK+jUtGqzah/f28mUOhfAnf8ua00qZts7wXg2Lg9Vx5+42f56be90qZpmjz5l86SlEjnGFAc7UL31b2OAvwNgkrlkTd+ORo4n7ihE4ETKIZ+NvQzop+VXzZkuz47P9t7AKB8CJ2oNHTS0Nzvt5tuQq1wJiTwxx8oiX5G9LOin5m53+8wnyEAKC/+1UWloMvCOJOG7rikDRVOwE/6WbnTFTyVfob0swQA5UHoRKWg63AqnZmrg7sB+K9nu/Sjs9qdzxIAlBWhEzFPdxrShd91HU5dexBA2elnRz9D+lnSzxQAlBWhEzFPt7ZUuvA7gPJzPkPOZwpA8XR5JRRG6ERM0zXTdF003dqShd+BitHPkH6WvNcjBCBmHc7Te9U3C8XrLkV6jcIInYhpzqQH3UsdQMU5nyUmFAFF3X5xG5nyQJ9SdymqrAidiGm6m4r6w7G1zRFAxTifpfmETqCI7JxDMnnuJtmyM9e2wBOhEzFr8ardsnf/IWndJFWa1kuxrQAqQj9L+pnKzsmXRavcv9QBcLttwgqZMG2NjHximW2BJ0InYpbuHa36dGCJJCCQnGrn4p+zzBGA29adeeaoFU8URehEzNqR5f7wN2tQzRwBBEbT+u6eA+czBgD+IHQiZu3cc9Aca1dPNEcAgeF8ppzPGAA3Z5mkjCap5ojCCJ2IWTv2HDDHujWTzBFAYDifKeczBsDtvuEdZOTgVnL7n9rYFngidCJm7bT/INapUdUcAQSG85lyPmMA3LTCeX6/xlQ6i0HoRMzan5dvjtWS2RUCCCTnM+V8xgC4LVudZWavz1uxw7bAE6ETAAAgAB59+xezTufYiSttCzwROgEAAAJAx3PqVph6RFGETgAAgADQ/dZ1K0wd14miCJ0AAAAIOkInAAAAgi7uiIs9B2LKabfOM8cZj/c1R/i2ZWu2PPfqcnsVW1o2qyHD/9TRXiGQ+HwBBXbnHJLxczbInMws6dYkTZ4ckmHvgSdCJ2IW/yiWbukP22To8A9l7YY9tiX2jLi8izz5z36SnJRgWxAIfL4At6Ubs2XoSz/I2p25tkVM8Jx4STtzRAG614FKauqnq2XABe/FdOBUz73yvZx1yVTZvafgHwQACAStbg54ZlmhwKk0iHZ/bLG5HwUInUAlNP4/38nQKz+U3Vl5tiW2zf5mg3Q/5Q1ZuZoFmwFUnHanj56aaW56Xhy9/8o3V9krEDqBSiQ375BcefNnMnrMXNtSeWhF9/hz35HZX6+3LQBQdlrF1Oqmv1XMSQu2mKqnPq+yI3QClYR2L2s386R3frQtlY9WdnVIwXOvLLMtAOC/2at3m8DpGSDTUxKkZe1ke+Wm155tTne7BtDKjNAJVALarazdy9rNDJGRd8yS0WPm2CsAKN3YT9eawOnZnd6/dbqs+XufIrPVb+7XxLQP6VzXtrhpV7u+TmVF6ARinHYna7dyrE8YKqvx/1kiZ/2ZCUYA/PPywq32zF3d1KA568au5rw4U67qWCSQPjV3oz2rfAidQAzTbmTtTq4sE4bK6tNZa+X4c1yBfH2WbQEA38ac0cIsgaTVTQ2To05uau8pmT5uyW09zPP0VpnX8CR0AjFq5B0zTTcySrZy9U7pftob8u3iTbYFAIoa3ruhCY9a3dTwWBYaVvV5etPXqawInUCMMROG/jzVrE8J/7gnGE2WSW//YFsAAIFG6ARiiHYTa3exdhujbMxyUqNmyF0PunfaAQAEFqETiBHaPazdxNpdjPJ76N8LZehVH5gQCgAIHEInEAO0W1i7h5kwFBhTP8mU4899mwlGABBAcUdc7DkQU0671d1NOuPxvuYIIHD4fAEFpi7fLkNfKhgTrjPU/Z3dXplQ6QQAAAigktburMwInQAAABWgOw/pUkgaNnU5Je+diOBG6AQAAKigiZe0k10P9i11l6LKjNAJAABQQbon+/g5G2TtTrbWLQ4TiRCzKuNEhy1bs2Vl5i57hfJIToqXP/RobK9QHCYSAYV1f2yxLN2YbaqcWvFEUYROxKzK9o+iLmo+/j9LWF8yALp1qidP3tdP+p/QzLbAG6ETKKzW3fNMtVMdefJkc0RhdK8DMWD0mDlmUXMCZ2AsXfG7nPXnabJy9Q7bAgCoKEInEAM+nfmbPUOgaID/dvEWewUAJXMmD3VrkmaOKIrQCcSA3FwqnAAQTlOu6mgWhddZ7PCN0AkAAFBBWuHUXYiodBaP0AlUMi2b1pARl3eRMbf2keEXHSsN66Xae8qnfevaMuq67ub1Lh7cTtJrJtl7ykcn8TivN+SsjIC83p1/7WVe78wBLSU5ifXzAATe7NW7ZfTUTLMlJnxj9jpiVmWaXduq10uydsMee1U8DV5jbzveXrnt3pMrd437Wp575Xvb4r+J40+T4X/qaK/c9PWuHDVDpn6SaVv8o2FwwsMDiryeLgN1ychPZfY3G2yLfzSsvjnhLBM0PenkIH09nSxUGl/fH9yYvQ4U1ur++UfX6GT2um9UOoFKQqub3oFTpddIdoW9gUXCWWn+ddcJPgOZvp6GPa0wloWvwKkaNkiTT94cYiqqZTHlpXN9fk/tW9eRT14bXOEKLwB40vGcuhWmHuEboROoJK6/vJM98+2KCzvYM/+MGN7FnhWlVcuyvJ4+/uIhxQ++1/v/NLiNvSqdBsqS1tjUIHvmgBb2CgAqTvdb10lEOq4TvhE6gUqiZbMa9sy39HT/x05q17VWNEvSsnnJX89Teo2kUsdaNqxfzZ6VrmGD0h/bsAGVTgAIJUInUEl8+kXJa3kuXb7NnpVud1aefLt4k73ybfqsdfasdFt+3ydr12fZK9/mL95qz0q38pddpS6U/+2izfYMABAKhE6gktBtMnVSji86uebhZxfbK/+MvHNWscFu9tfrZdLbP9or/1x584xiX+/TWWtl0jv+v56+jr5ecZ57ZVmZJyYBACqG0AlUEjq7vftpb7rC4A9Hw6dWFx96eoEcf+47pnpZFjr7u/upb8hbU1aZGetKw+vYx74xW0iWVmn0piFQX2/qp6uPvt7SH7aZsHzWn6ea67J4a9oqOf6ct83rOe9Fq7NX3vyZjLxjlrkGAIQOSyYhZrFkEiqKJZOKx5JJAMqKSicAAACCjtAJAAAQIGv3H7Zn8EboBGJAacshoXwqugUngMrlyiU50n12tizNyrct8EToBGLAHX/tWeo6lygb3c2orLs0Aai8NHBOWndAdh88IgPm7SN4+sBEIsSsyjbRQWeiP/XCUlm6vPQ9xVG85GT37kdMICoZE4mAAk7gTMzPl7S9ubIrPVXSE+NkVt9U6VYz3j4KhE7ELP5RBIKHzxfg5gRO1XHVRmm0dZfMP6617E1LJnh6oXsdAACgHDwDp6eDCe6QSVd7YYROAEDEG5+ZJ7U+3iNjV7o3DgDCTcOmzlTvXzfBVDR90fu0ynnfqjwTQCs7QicAIOLN2ZFv/tHWf7ynbj5oW8Nj8txNMvTe+fLK9HW2JXzGz9kgte6eJ2M/XWtbwue1L9fKiWM+lwmf/WJbwiNU72N486qm61xvQxol2tbCJnZPMfdP6V2t2GBamRA6AQBRZeiC/WHtrvw+c49k5xySVz9bL/NW7LCt4TEnM0t2u97LfdN/k6nLt9vW8Fj8607Zm3NQnvt8tcz8YattDb1IeR8oitAJwG/DbvpU4hqNP3q7aMRMe0/FPPD0gkKvW5bbg/+33L4KYtmTnZLtmZsGz0gwduJKydy4z16F19CXfpClG7PtVXiNfvk7WbUp/FvzRsr7gBuhEwAQ8VpWq2K6KB06li5cwXPE4MLrt46Z9JM9C70nh2TYMzcNnuFy+3kd7JnbKFfgC4dIeR8oitAJAIgKOm7Oc+ycju30NXM42BrWTpaxV7a3VyJbd+aZimc4tHS9lylXFawpu3ZnbtiCZ+NaKfLkFcfZK5FNu3JMpTHUQv0+dKyxM864VtY+OZQQL7nJiVIjwf3LEgrw0wAQdvfe1FuObB5V6PbVhxdLnVoFXaqNG6TLpu/+VORxd/+ls30EKgOdmOH5D7kuWROO8Z19O9UxN4eO7Zy+MDzjB4d0rmtuDh3bOWnBFnsVWgM7NjA3h46pnLZog70KnUC9D13uqLRby8/2muBZb8ceSc49ILtqpprnHpfOLnHeCJ0AgmL5qp0y7Kbp0uaEiYXGYLbo9ZJc+pcvZP6y8E56QGRxqkWl3WZvP1SkeqT/8IdjOZrbLm4tDWoX7M//2Furwza+c+Il7UzV03Hlm6vCNr7znxd1NtVGxz/eWR6WcZWBeB/65620W9ahI1Jr9z5pl7nFVDl/bVHfPPfkOiwI740diRCz2DEl8HQi0WvvFnQjXji4i7zz3EB75bZrV57cNGa263Glj3P78wWd5fmH+khaWpptKTBv8RYZPGyq7NjlXpdRK52LPjlDGjVqZK4RXv58vrQCqYFQx2LqeoUaDLUyqf9QK12/UJeTUcUtsu0vXb5Gq6CBoDPTl2Vm2auSTZm7udBj01IS5NV7ephjIOjM9Nmrd9urkj01d2Ohx6a73sOav/cxx0DQGeELf91pr0r2+ldrZVFmwWOrpyTKJ3eebI4VFcr3ETfN/d+2x7I15uhL9X25knAo3wTOnzMayqYGtY7+2WaZpMIInYhZhM7AKy10auC84NoPZNY8/7ux/tCjhcx467QiwZPQGdn8+XzpQu66rqYTCDVUarj0pLPSR2UkSasZe83koPLSf+SX9C/6y4tDK5C3TVghY4e3l66ta5pgqZVJJzBmNE6Vx27oZM4ffesX+WzhNnNeHqf3qi+3X9zGXhWlFcgBzywzYzH7t043wVIrk05g7NYkTWbd2NWca3tFusqH925oqqDF0crf1c8vkCcv7y69MuqYQKcVQSfUtWtcXV68vo851/aKdJUP7tnUVB99iZT34c0JnafOXWGO3jRo5iQnSm5SVVmV0ciM5ayZECezT2TrS1/oXgcQMM+8uqxI4PzbTSfI3l+uMeMvd/44Up4aV7gy+u3i32TmN4FZegmRJctd0DzKV9XHadNKaEWUNmFDx1xq0PxskTtM6rXT5lQ2ddF35W+VsziZm0ruYtcxlxo0X7ZjQPXaaXMqm7rou/K3ylmc0rrYZ67YagLeB4vd37uOfdSbtulNq4S62LpamFmxNUlXltC1HSnvozif9+vk8zb7hA5mn/VlHZubwKl/jpcOSCNwFoPQCSAgtMo5c27hHVrG3XOKPHxX76NVzFq1kuSmq7rI/XedYK4dr71XfIUK0euKZokmVOpROVsCOvTcmY2ulVC9aeWztJt3wNTr0rrW9+UWnmzkq/s7NcX93rpm1DTH8mroMQHOlyyv9+Kr+9tp00poRXiO8/QlO6/wbwa+up2r2/eiFciKaOIxvtJbpLyPstI/386fY/2zqUNJSvsFqDKjex0xi+71wCupe/233/bKwIvelV/XuasI1VOTZNbU3tKjUw9z7endj1bLRdd8aK98d7HTvR7ZwvX50nGhuj6nMy5U/9F3xoyWxFf3ul47E38ymqTKYyM7HQ2jOhN9X07ps+Inf7nJLJnk0IlFz93SrcQxnb661/XaqUo63etO8NTudX1MaXRMpy6Z5NDAueS2HiWO6fTVra3XzoSbdo1ryIvX9z4aArVbe68f70XHUupSRQ6d0PPOqL4+w6SKlPeB4CJ0ImYROgOP0AlHuD5fo1fkyvjMgpCn1SUdExoOGlx1fU6nO16DphNqQ01Dqa7P6XTHa9B0Qm2oaWAc9cp3RyfwaMBzwmQoRcr7QAFqwAACokaNqtKiWQ175foLf1+eTJ9d1V4V9v701fbMrVnTmj5nsAOeNGx6Bk6doBSuwKl073XP8Z/DTm8WlsCpdO91z/GfY85oEZbAqXTPc88Z4yNObR2WoBcp7wMFCJ0AAkLHaw7s19xeuT00/iv5v0mrJDvb3W2o4z7vfGheoWqpuuyCyNgvGpFLl1/SmfAOHTenVc5w0UlHzsQjpTPWz+/X2F6Flk46ciYeKZ2xPurkpvYqtHSyjzPhR+lM8ctOKrxtaChEyvtAYYROAAFz47CuMqBvwT92Wu38612fSPU2L5iF4WsfO0EefmqhvddNu+jPO+08ewX4poHTWQBex3HqxCFn5nuo6ThQrXI6dBznyMGt7FVo6ThQrXI6dByn937soaLjL7W66NDxk7cPKtguNFQi5X2gKEIngIDRaud7/x1UKHiWZOTwXvLSY73tFVA8zx2HxrRLqvASSxWhgVPHcyodx3n7n9qUOHEomDRwOpOMdBynrslZ0sShYHpuxmozjlLp+EldCzMcE3Yi5X2gKEIngIDS4Dnzf3+Urz++RC67sIO0blV4jFvzpjVcYbOHrPr6bHn2X30Zywm/aNBUOoYznOM4lRM4VTjHcSrPWe3hHMep9uS6g54K5/jJSHkfKIrZ64hZzF4Hgqcyf76Wrc4yyy3pGM5wdas7dPKQLrekYzjD1a3u0EXbr3l+gRk7efugDrY19CLlfaAoQidiFqETCB4+XwDKiu51AAAABB2hEwAAAEFH6AQAAEDQEToBAAAQdIROAAAABB2hEwAAAEFH6AQAAEDQEToBAAAQdIROAAAABB2hE0BEuuGuWRLXaLy5XfqXLyQ7O9veAwCIRoROIMbs2pUnA//4v6OBrbhbi14vSf/zp8r/TfpRNm3dZJ8dGd79aLVMmLTMXom88d5yeXrSGnsFAIhGhE6gklq3YY/M+Wat/PWuz6RJt3dMNfHnNT/bewEACCxCJwBDq4k9T/tCFq9YbFvC58JzWstT4wZKnVrJ5nrk8F5y0/BW5hwAEJ0InUAlMO6eU+TI5lFHb78tvlYeuPvEo6HOsXdfnpx32XLZvHmzbQmfm67qItt/HGHe77P/6itpaWn2HgBANCJ0ApVQ88apcs9fe8ov866UAX2b2la3TVt3y8T3tturwr5ZslWG3TRd6h773NGxoTVaTyjSNT/spk8LjR+9aMRMe09hDzy9oNDjjj93ipkw9NtveyWjz0tH2/Vr+KrALl+107yfNidMLPQ6+vgb7prnc/KRv98DACCwCJ1AJVarVpJMfPwMOaZ5Ddvi9sGnqwsFNp2cpEHthLPflNfe/Ul27Mq197iro9o13+6Ej03QU+ed0docHfO+XVekeqrBcuLrK+yV2103x/tV0XTeT5f+r5j3s3pNlr3HTd/TtE9+kb1799qWsn8PAIDAInQClVyLFtXlhD6N7ZXbug1ZRwObhrULrv3ABDXH3246Qfb+co3s/HGk3HFzL9sqMmHSQnnw/5bLqSc0K1RB1erpwhUL7ZXbghVb5dd1e+yVyB96tJCBxw+0V8Xz9X5KU57vAQAQWIROANKudW17VtQzry6TWfM22CuRCwd3kYfv6m0qklopveP6noUCplZJExMPysB+zW2L22vvFa5gvj99tT1zG3Rma7+qnN7vR+lEo41LLzo6ZvX72ZfLsIs62HvL9z2wLigABBahE0CxtEI4c+46e+V22QWFw5iGtiaNC8LiDyu3yKq1q1whrnmhiUqffr7q6LhM7Vr/en7B2qCNG6TLlRfUtVfF8/V+dJKUTjRq3KCgWtu5XW156O4+0qhRowp9DwCAwCF0ApBVq3faM7fmTWtK9erVZc+eA/Lb+oIucDX48l8LTdrR22vvrrT3Fujbo6GcdWpLe+UeNzl9dlVz7t213vcPzU1ALI33+6memiRn9D9gr3yryPcAAAgcQidiVrWkeHPcn5tvjvBt3uIt8snna+2VWzNX6AzEEkXeE4qcbmvPrnUNjnf8paa9QjRwPlPOZwwA/EHoRMyqXcNdVduxp+RKWGWmXc9//9dXhWZye4bAGq6fYYtmhWe2T3vlmKNjJ33d9qweKT069TCP9Z5QpN3Wn329vVDXesf2DaVdy3b2qmw8q6fFqej3gKKcz5TzGQMAfxA6EbPq2H8Qt2flmSMKrNu0T8b9e5G06TuxyKScO0edeDRw6VhH7wlBl43cKK+892uRJZX+9/GvcumNXxRaGsn7+RoSp3y4ulDXur/LJClfM+3vGfeFWebIc/94Xb/zzgfnm/dS0e8BRTmfKeczBgD+iDviYs+BmPLga6tk1pLtcuelbeWU4+rZ1tin4UmXB/IOk/7QWeA6KceTTvoZeNG7hYJicXRC0KJPzig0PrOk5+sySTPeOq1I6PR+jlZfZ03tbcKwv+/H871U9HtAYV9897s89PrPMqB7Xbn7svJVqQFUPlQ6EbPq1Ewyxw3bcswRxevYroFMefmCIoFTaXXxlWfPlh5d69uWsvFVnXT4u0ySJ329qa8MKdP7qej3gMLWb91vjs5nDAD8QehEzOrR1j0u8dsfC8/Mhlv3zg1k5PAe8u2nl8mK2ZfIkNOb2XuK0pnoM968QN598Tzpf0KzInu2O681a8oJPiuEI67oVuQ5/i6T5IsuibTo0z+X+H7+9fd+hd5LRb8HFJj/0y5z7Nk23RwBwB90ryOmDb33W8nOyZeJdx4nTeul2FYA5bXh9xy58qHvpHq1BJl8fx/bCgClo9KJmNbnWPdOO1Q7gcBwPku9O9QyRwDwF6ETMe0PNnTOWbrDHAFUjPNZcj5bAOAvQidiWv9udaVZ/RRZuW6vfDJ/q20FUB76GdLPkn6m9LMFAGVB6ETMu3ige3HyN78o+xJCAAo4nyHnMwUAZUHoRMw7vVd96diyhmzekSvvzNpoWwGUhX529DOknyX9TAFAWRE6USlcfEoTc/zvh2tl0ard5hyAfxau3GU+O8r5LAFAWRE6USnopIeLBrj/sXzojZ9l4/aCvcYBFE8/Kw+/+Ys5188QE4gAlBehE5XGtee2lH5d6khW9kF52BU8Dx06bO8B4It+RvSzop+Zfl3qms8QAJQXoROVyt/+3FbaNE2Tn37bK7c8u4KKJ1AM/WzoZ0Q/K62bpLo+O23sPQBQPuxIhEpn3dYc+dfrq2T1xn1SMy1R7rikjfRqz0LXgEPHPeswFK1w6i9pd7p+WWvegB29AFQMoROVUt7Bw/LIG7/I3O+3m2vtNnTGfAKVmc5SdyYN6XAU7R1ISqRTDEDFETpRqek/rs4ySo3qJMslpzSVs/o0MNdAZaILv+s6nLosktJfwhjDCSCQCJ2o9HQv6be+2Cg/rN1jrts3ry4nd6tjZuk2rUeXImLXht9zzJ9/3dpSdxpSug6nLovELHUAgUboBKzPFm6Tt2ZukPXbcmyLmAkUfTrUkmYNqknt6olSt2aS1KlRVaolx9tHAJFvf26+7NhzQLZn5cnOvQdlg+vPuIZNHdfs0K0tdachFn4HECyETsDL7KXbzT/IC37aJXv3H7KtQOxJS4mXPsfWNlVN9lIHEGyETqAEi1ftlkU/75YdWiHac9BUi3a6bvvz8u0jgMhXLSleateoaqr0tWskSp2aSdKjbU3p2Y5VGwCEDqETAAAAQcc6GAAAAAg6QicAAACCjtAJAACAoCN0AgAAIOgInQAAAAg6QicAAACCjtAJAACAoCN0AogaS7PyZXxmnqzdf9i2AACiBYvDA4ga3Wdnm+CZnhgnu86uYVsBANGASieAqLH7IL8jA0C0otIJIGpolXPq5oMypFGidKsZb1sBANGA0AkAAICgo3sdQNRgIhEARC8qnQCiRqsZe03gZCIRAEQfKp0AooZT4WRCEQBEH0IngKihFU7PIwAgetC9DiBqOLPX+9dNMDcAQPQgdAIAACDo6F4HAABA0BE6AUQFnTw0ekWumcE+dMF+2woAiBaETgBRQcdyOmt06vmkdQfsPQCAaEDoBAAAQNAROgEAABB0hE4AAAAEHaETAAAAQUfoBAAAQNAROgFEDF0WSXcdKu/e6vrc2dsP2SsAQCQhdAKIGFcuyZHus7Ol1sd7zFqc/oZPZw1Pfe6AefvMEQAQWQidACKGVioduhanLgRfWuVS79eQqWt4OspbKQUABA97rwOIGBoWtdqpgdPTqIwkc5/ngvBDGiVKy2pVTJtnyOxfN0Emdk8x9wEAIgehE0DE0aqldpeXRXpinIxplyTDm1c15wCAyELoBBCRtKtdq56eXe7F6VYz3lQ39QgAiEyETgARTSuenuM1vWll88lOyVQ3ASDCEToBRDydLOQ9m11DpoZNDZ0AgMhH6AQQFTRwatVTA6h2o2vgZLIQAEQPQicAAACCjjIBAAAAgo7QCQAAgKAjdAIAACDoCJ0AAAAIOkIngKiQuXGfTJ67SbbsLNtORQCAyMDsdQBRYcQTS03wTEtJkCkP9LGtAIBoQaUTQFTIzjlkzwAA0YhKJ4CooFXOeSt2SN9OdSSjSaptBQBEC0InAAAAgo7udQBRgYlEABDdqHQCiAqXjVskW3fmMZEIAKIUlU4AUUEDp2JCEQBEJ0IngKigFU7PIwAgutC9DiAqOLPXu2bUlK6ta9pWAEC0IHQCAAAg6OheBwAAQNBR6QQQ8XTy0KufrTfd660bp8nYK9vbewAA0YJKJ4CIp2FT1+jUGex6Pn3hVnsPACBaEDoBAAAQdIROAAAABB2hEwAAAEFH6AQAAEDQEToBAAAQdIROABFBl0XSXYfKu7e6PnfZ6ix7BQCINIROABHhsbdWy4gnlsrQe+fL2Ikr/Q6f+rgJ09aY5942YYU5AgAiD6ETQERYvSnbnrnX5Rw2bnGplUu9X0OmruHpKG+lFAAQXOxIBCAiaFjUaqcGTk/n92ts7vts4TbbItK3Ux1pUDvJtHmGzK4ZNeW2i1tLw9rJtgUAECkInQAiilYttbu8LNJSEmTY6c3k9F71zTkAIPIQOgFEHJ0U9Ojbv5hjaTKapMrtf2pjjgCAyEXoBBCxtOLpOV7Tm1Y2Rw5uRXUTAKIAoRNARNPJQmMnFZ7NriFzxOCWckavBrYFABDpCJ0AIp4GTq16LsvMktaN00zgZLIQAEQXQicAAACCjnU6AQAAEHSETgAAAAQdoRMAAABBR+gEAABA0BE6AQAAEHSETgBRYenGbBk/Z4Os3ZlrWwAA0YQlkwBEhe6PLTbBMz0lQXY92Ne2AgCiBZVOAFFht8eORACA6EOlE0BU0Crn1OXbZUjnutKtSZptBQBEC0InAAAAgo7udQBRgYlEABDdqHQCiAqt7p9vAicTiQAgOlHpBBAVnAonE4oAIDoROgFEBa1weh4BANGF7nUAUcGZvd6/dbq5AQCiC6ETAAAAQUf3OgAAAIKO0Akg4unkodFTM80M9qEv/WBbAQDRhNAJIOLpWE5njU49n7Rgi70HABAtCJ0AAAAIOkInAAAAgo7QCQAAgKAjdAIAACDoCJ0AAAAIOkIngIigyyLprkPl3Vtdnzt79W57BQCINIROABHhyjdXSffHFkutu+eZtTj9DZ/OGp763AHPLDNHAEDkIXQCiAhaqXToWpy6EHxplUu9X0OmruHpKG+lFAAQXOy9DiAiaFjUaqcGTk+jTm5q7vNcEH5I57rSsnayafMMmf1bp8vES9qZ+wAAkYXQCSCiaNVSu8vLIj0lQcac0UKG925ozgEAkYfQCSDiaFe7Vj09u9yL061Jmqlu6hEAELkInQAillY8PcdretPK5pNDMqhuAkAUIHQCiGg6Wch7NruGTA2bGjoBANGB0BnhJi9ZIx8vXyd5h/JtS2To1qyuXH58W6mXxoQNBJ8GTq16agDVbnQNnEwWAoDoQuiMYPPXbJNhL820V5Fn+Ant5O6zutsrAACA4rFOZwRb4AqdkeynzbvsGQAAQMmodEawf89cIf+etcJeifRpVd+ehc9Pm3fLntwD5lzfz6tXDTTnAAAAJSF0RjDv0Pnz/Rfbs/DR7n7t9leETgAA4C+61wEAABB0hE4AAAAEHaETAAAAQUforMR09rmOzyzuFmlrg6JyW7Vpj7z25VrZtCvHtgAAogkTiSJYsCcSeU4K8mXWrYOkSXqqvXJjIhHC5aLx80zwrJ6SKF/dd6ptBQBECyqdAKLC3pyD9gwAEI0InZVYh0a1TLWyuFvVhHj7SCD8xl9xnIw4tbW8eH1v2wIAiCYR0b2uYweXrt9hr+CYsnSNTP5ujb2Scndla4AMFLrXAQBAeYQ9dH60/Dd58OMl8nt2rm1BoNVLS5YnLjohIOGT0Ilw0fGcCzN3ysBODaRxrRTbCgCIFmEPnYOfnc4e3iFwaoem8uyfT7RXbg9+sqTEn70GVQ2sngidCJez/jXbzFxnIhEARKewj+kkcIbGXrtfuqfSlkw6wJJJiCDOUklMKAKA6BT2Smfbv79lz9wTW05t38ReoaImL10jG3ftM+e+qpIsmYRocuKYz03gpNIJANEpokLn+ce1koeG9rFXqKjSAqJWOvfkFl816tasjiR5zWAndCJcdEznzBVbpWdGbemVUce2AgCiRUSHzpKqcPBNg6AjGAGR0AkAAMojYkPnmU9/LL/+vsecw39NaqXKpzedbSqUhE4AABApInJxeF2zk8BZPjqG86fNu+0VEBt0LOejH/xkZrCPfvk72woAiCYRGTp1sXiUHz8/xJqZP2yV175ca2aw6/m0RRvsPQCAaBGR3evafavduI67z+puZrbDN50QpGtuOrTLW7u+6V5HrNCQ+Y93ltsrkX9e1FkG92xqrwAA0SAqQqcTouBbcT8vQidiBaETAKJfRHavAwAAILYQOgEAABB0hE4AAAAEHaETQETQZZF016Hy7q2uz12YucNeAQAiDaETQETQiUIXjZ9n9ljXtTj9DZ/OGp763GueX2COAIDIQ+gEEBFWbirYEELX4jzroTmlVi71fg2Zuoano7yVUgBAcBE6AUSEd0b1lYEdG9grd3jUyqVWMRf/usu2us3+YZtpH/3KErNgvKNnRm15cYR7K10AQGQhdAKICNVTEuXJK46T2wd1sC1uWsX03oHI2aHIqWrqc/V54y8/ThrXSjFtAIDIQugEEFEuO6mlqXq2a1zDtpRMH/fi9b3N8zR8AgAiE6ETQMTRIKnBU4NkSXRXIg2c/gZUAED4EDoBRCztMn/BFSq9K5h6rVth6o3qJgBEB0IngIjWK6OOfHLnyaaqqeM1dbKRVkHZex0AoguhE0DEcyqbn9zV30w2YrIQAEQfQicAAACCjtAJAACAoCN0AgAAIOgInQAAAAg6QieAiBY3LavIDQAQfQidAAAACDpCJ4CocOrcFfYMABCNCJ0AAAAIOkIngm7mD1vlxDGfy9XPz7ctoTV1+Xapdfc8GfDMMtsSHvNW7JCh986X256lYufYlnfEngEAYh2hE0E1bdEG+cc7y2VvzkFZlLlTFmbusPeExqQFW+TKN1fJ7pxDMnv1bnMLh+kLt8pjb62WbNf7WJaZJctWh28yzNTNB6XWx3tkwLx9tiU8NHCeOz+87wEAEDqETgTNa1+ulUc/WGkCp9KtC9s3rmHOQ2H8nA0yemqmCZyqZe1k6dYkzZyH0uS5m+S5aWtN4FQNaidJRpNUcx5qk9YdkCuX5Mjug0dk9nZXEHfdwmFr3mE559t9snBXvm3xbUPuYXOMzz8sBxPizXn1hDhzBABEF0IngkID53Ofrz4aONu5wuaLI/qYPbRDQQPnfdN/Oxo4NWzOurGrpKckmOtQ0cD56mfrjwZODZuPjewkaSF+H2p8Zp6MXpFrAqdqWa2KdKvpDnKhpIHz3G/3y6Ld7sA5dmVusbfh3+WYx6Tv2S9709z7rR8XhvcMAKg4QicCzlfgHH/FcabSGQq+AueUqzqaSmco+QqcY4e3l4Yhfh9KA+d9q/KOBk4Nm7P6pkp6Ymirht6BU+n7Ku72xe+HJDX3gLTN3CzrmtYxj++RTugEgGhE6ERAeQdOFc7AqSIhcKpICpxTelczlc5Q0jGcg+a7A2f17FxpsX67HPPbthJvHVdukN6Lf5ENjWrL9trVpUlyFflH+9D/DAEAFRd3xMWeh0Xbv79lz0TOP66VPDS0j8xfs02GvTTTtoq8etVA6dOqvr2Ct+J+Xtqm9ym91vaKKuk1fQVOh7/d6rcPai+DezY156s27ZGrn19w9PVeuL639MqoI5t25ciol78zbfdf1NlUUpWvwOnwt1v9ySEZMrx3Q3O+dGO2mfHuvJ52z/dvnS5rd+bK0Jd+MG0TL2lXZJyor8Dp8LdbfcTglnJGrwbmPHPjPrltwoqjr6fd811b15QtrvcxdtJK03b7n9r4HCfqHTjVmtOqhzxwKmfikI7j1NBZe3e2GatZkn3Vkky3+v6Uqub63V7V5I+NQzNEAwAQWFQ6ETCLf93pM3Aqbffn9tyM1fYZIgszC7+ezn5XM1dsNYFUb3rumJOZ5TNwKm3356ah1aEz3bXN4cx81yWYNJDqTc+9fZ+5x2fgVNruz01Dq0Nnu2ubQ6/V1yt2mkCqN12OyZuvwKlazdhrZq/7c9OJR46lWfmmzdmK0pmEtHb/Yek+O9vc9DHFqZ8UJx/+IVV61Yp3Bclk+a1pXfm1Rf0Sb1vr1TSB8+S6CbL45DQCJwBEMUInAmZQzyb2rHy0Gjqwk7u6p3pl1LZn7vt62mt9jF57tqkrbGWwvLQaOqRzXXslpqrp0Puca32MXnu2eTqtVz17Vj5aDe3byT1+UXXNqGnP3Pc51yd0qm2uPds8zdmRXyRwOrTdn5uGVoeGTG1zOKFTl2DSsKk3PS9J/aoFwdMxpl1SsbdXe1STHwamyey+qXIcYzkBIKrRvR4DIqV7XU347BfTxe7pnVF9j3aBB9vYT9cWqlaqJbf1CPlSSa9MX1eoWqmeu6VbSJdK0gA4dMF+e1V2OsloePOq8mQn9xhKDZVazVR6n44L7V834WilUzltpdl24Iica5dMOjK4aGAGAMQeKp0IqJGnt5ERp7a2V25/t4vDh8LYM1vKmDNa2Cs3Z3H4ULr8jOYy7PRm9srt0bd/KdRNHmxDGiWaaqG3Jf3TTNAr7bbr7BpHA6fSCUie9znhUseH6rVnW2lMxbNP4YonACC2EToRcBo8bx/UwV4VnRAUbBo8dUKQw3tCUKho8Bw5uJW9KjohKBTGtk8uEjydxeHDzYzxdAVPAEDlQOhEUFx2UkufwTNURp3c1GfwDLXz+zX2GTxDSYOnZ8VSu8l1C8xICZ4AgMqB0Img0eCpyxw5NHjqXuyhosFTlzlyaPDUvdhDTYOnLnPk0OCpe7GH0qiMJJ/BEwCAUCF0Iqh0XU0neOpkooEdKzbDvKx0drkTPHUykefs9FDSdTWd4KmTiTxnp4eKBk/dhcihwdNzSSQAAIKJ0Img0+C57JGzzCx2fxeJDyQNnkeePNnMYvd3kfhg0OA54/G+Zha7v4vEB5pO9HGCp04M0slGAACEAqETqGQ0eOoMdJ3FHuq91wEAlRehEwAAAEFH6AQAAEDQEToBAAAQdIROAAAABF1U7L2Osgnn3usAAAC+UOkEAABA0EVk6OzWrI4kJcTbK5SF/tyOqVfDXgEAAESGiOxeV9qF+9bCTNmenWOuUbq6aSlyTudmcmqHpuaa7nUAABApIjZ0ouIInQAAIFJEVOisl5ZM13AA/bR5t+zJde+tTegEAADhFFGhE8FD6AQAAOEU9olEHRrVsmcIJh3vCQAAEC5hD533DeppZqsjePTne91J7e0VAABA6IW9ez2S/HvmCvn3rBX2SuTn+y+2Z6XbuHufDHj8A3sl8tD5feT87q3sVflU5P0EC93rAACgPFgcHgAAAEFH6AQAAEDQEToBAAAQdIROAAAABB2hEwAAAEEXFbPXP/9pg4z7ZIls3LXPtkDpGqd3n9XdzCIPFWavAwCA8oj4SufS9Ttk9DvfEDh9+GnzLrnmlTnmCAAAEMkiOnT+np0rN77xpeQdyrct8KY/mxve/OroHusAAACRKGK71zVMaVeuVjodurPOSa0b2avK7fOVGwtVOPu1aSQvXH6yvQoeutcBAEB5RGzoHPPBInlzwWp7JdKkVqpMu+EMqZFc1bZEFg2Ae3IP2it3QE5KiJfn5/4oBw4dNm1105Llkt6tTVXy5a9/Nm2qQ6N0ObVDU/Man/+00baK9HaFuuLGa2oVeMgzn5qj4/p+x8qtp3WxV8FB6AQAAOURkaFTw6aGToeGt3euO9VMnHH8+vseueg/nx/tVnYCkAY3bXe65DXMPfvnE01Q0sDkOP+4VvLQ0D4y95fNZlykY/gJ7czknMlL1sidk+fbVpG/Dugkfx3YSSZ9vUoe/GSJbRXzWH2O95aVTrs+Vp/jePKi4+Wczi2KhGqtUmq18s4p82Xyd2tMm37fz7jeu7b7ot+TvnfP4Qf6ver3HCyETgAAUB4RN6ZTu9M9Q52677yehQKnBs2rX51zNHBq9fOJi04w4evOKQsKhbC/Duhoji9/U1BZVGd3am6OX63eYo6OxjWrmWPewcLjSLfvc1cUj6lXwxwdC9b+bo7ndHa/nmPK0rXmeO1JHUx4dDz48RLzvjWUer7WjW98ZQLzfYN6Hg2Z+n1ouwZjXzT0eVc2ddKVBnIAAIBIElGVTl9dxk7l0ZOGsGUeYz2dbmgNWx8tX2dbC7qzNbz9Z+5PttXtun7uMKgVTc+Z8ad2aGICrlbzFtiKnnK6wPW9veVRoayenGjeo/LsSlcXu752Pdd7+Gj5b673tte2ipzkCpXa/a6v5RkQ9bEaRPX9eo5l1fepjy+OBk39GqFGpRMAAPgrYkKnBi3tKna6bpWGGu129qwUoij92emQAs+JRaFA6AQAAP6KmNDpPfZRJw69c91ppvrn0Pu/WFkw0UYfo+MylY6F9KxYnti6oZlYo9XEW9752ra63XpaV1M51ID7fx7jMJUTorRq6dn17izErrSyuD07x5yri3tlmHGaG3fvKzQOVGl3uVYvtTr73y8Lqq3Vk6ua8Z0aqB+f8b0sXb/d3qOTkOqabnPthr9z8gLZa4cRKO2u9zXGU7/24GemHx1yEArOOFcAAIDSRETo9J60o0FMw59nl7LuSnTDG1/Zq8KP8TXx6NObz5Ym6akmPGqoc+h9i+453xy9g64G3Hl3DDHnWnX1HEupX0dDsLroPzMKdX87k5XUgCc+KBR+neEBWo0c+PgHhYYOOLPNfQVGZyKS98Qofd8aVn1NFtIQ7TlZSmk1snfLwO9YdEy96iZoAwAA+CPsoVPDmwYlJ1QprQ7qWEyHd/BSTpVNQ9xZT31cKLCVFPQ0KGloU94B0bO72HOWttKq6qxbBplzzxnmSicyaZBVGnA16Do0JM68dZAJtN4z3/U+Z1a+d/BWzox2Db86ocjz+3/o/D5yfvdW9qqA99fQ9zbtxjNMAAcAAAiXsIZODYNaNfQMfho2NXSi/LQirJVhh3bv6xqnGnIBAADCIWyhU6t23hOHtAtbK43BDkdaOfVcyD1U9PvyHDIQLPqzHfzs9EIz4z2HAAAAAIRa2EKnr/GU71x/WtC7gTWQ9Rw3uVBXdShpxdFzzdFgKWmcKAAAQKiFZXF4Hb/oGTi1AqiLu4di3KFWVsMVONW/Z/1gz4JLf5ZP2LGrDg36npVlAACAUAl5pdPXpKBQVuA0dHku+h4OzsL0oeC9PScTiwAAQDiENHRqV6+ONfScOOTsgY7g8Z5YFKqxswAAAI6Qhk7vZYiUrlVZNT7itoCPKXvzDhYazqAI+wAAIJRCFjq9F3BH+DnrgAIAAARbyEqMa3bstWeIFJ5LKgEAAARTyELnFce3DclSQfCP7r6kXewAAAChELZ1OgEAAFB5MIMHAAAAQUfoBAAAQNAROgEAABB0hE4AAAAEHaETAAAAQSby/w3Lz1fOzBjMAAAAAElFTkSuQmCCiFi8PIP1m0mPGTdJzeeEh6cngwb259r18+zfu4fETRspW6oMLVu0YczQcdSpE4eXlx//+EdOcn6VX4WpKixZspq2bTuRlJhOgH+wev8IFazaMmL4OPLmtVEBzkbv8X2ICl/duvahefMOKoBpQUuFKwtXLGxdsbF3x8U9EA+fMOycvDCzcsNUhS5TCy1kOenFSoUxczXOUoUufaj1dm+jTdO6i3DGTIW24sVLG2v++zF2AyGy1NsCllaMyUII8ekwfm8/GN16DtRrfPQaISt7IosUpUrlWvj5hfHPf+Zh2sx5+nxax6Sff5aLL774krjGDZg9aw5tW3Smbu0melAKDIwgd04TFXKcqFe3JV269NH7ydKu+AsI8MffJ5gypcvj7uLGxCmTqFevBWXLVlNhy5yCBW2wVcvg5uavHlvrYcnBIeNKQ1ctYHkX0mu4zLUG7ip4mVo4UVCFJ1MLezV00HuE1z7XyiojZFmpkKX1r2Wupmlhy0YFSEsHN723+/2/882mjd1AiCzztoClFWOyEEJ8Wozf2w/G+Us3yGvmTA4VdnLmLkhMiVhWrljOrh0H9aAVHFqE9q3aU7JMZb7MUZCoqFLENWlFrlzm/O2vOYgsWpp/fpYDZ1dPevXpT8KsRZQtV51ZCQupVKEy4YXCGTAgHhdnV8aOHoe7hy82lk5UqlSHmjUbkju3KWZav11mbnoDeVNTWxwdPVVwK4yTuw82tlrDd62BuyuW2lDrud7KGRNzO1VU2FKPzczs9aBlZmanBy2tPzBrFbCs7bUaMSdcXLX3caWAiQ1rVq421vz3YewGQvxqbwtXWjEmCyHEp8n4vf2g1I3rwJ//kZvceUwppYLUres3mTtvuX7KrXev/ixYsJghQ0YQFFSczz7LxZdf5CNvXi0QeZEzpxkdO/Zk6ZK1FCsWyYoVaygUVFhvW1W5cnXMzWwYOngUnp4+WFhYEtegKRMmTqdRoxZ6twsWFg4qXGkByQVHB3d8fUJxd9f69NI6IHXU+8mystMatBvdOlh6YG7hio21O6YqsOXMY6LewwkLFbAyTx1qtVl26vXaDbPtHDxwdPLA1smdfHkt2b17t7HWvw9jNxDiV3lbwNKKMVkIIT5dxu/tB+XEyfP87V+5+TK3Kblzm2Fv40LvHgM4efwcFapUY8zIMYSGRNC37xD+9WV+veYrR14zTFVI0sLN4GFjVBAbTmBIMHnyF6BVmw4Uj41l+rS52Nk6YGPlQIumbRg/YQpRMSVwcPDSa8CcXTz1tlhubn4qYIXpbcUstN7pVYDSG8BrxVoFK0tXFaRc1dBD77LBzFw7Rah19+DMwsXLyW9uQX4TR7U8ttjaumKlQpY+VEW736GV+gytrZeHR4ixxr8fYzcQ4p29LWBpxZgshBCfNuP39oNTunJN/v5lbr1HePOC1gwfOpy4uJZ4+gfoNUEVy1ZmU1IytiokfZWjAF/kzkPOnPn12qjWrVpTpEgUvXr1pXzFynTs3Acfv1D9NOOIESMZOmIs1WrXw97RA3t3d0zNLPVTj1rACggorJ8qtLCwywhY1m4qZKlgZaWClbWLClPuWNl4YKrGaSHQwd6L2JKV9VOMJUtWYM68BVSsXIM8ptZqHgdMLG1UOHPC3MpJvc5ZFe09nMmV15wpUxKMtf39GLuBEO/kbQFLK8ZkIYQQxu/tB2fb7kP89ct85Mpnpd9UOiayFL169mfuosVUrVSbAf2GUKJEKQbED8fS0k2FI1ccHFzw8Q4mODiMPn0H0bRZC9w8vCgeVYbJk2fTuUtPAoML4+bupYcsLbAVVIHI09NX73le6x1eO9WnhSatIbuZfhWhi34q0NJKu++iA+YWarq5HQGBRRg+fgblqtRk6fL1DB06hrVrE7FQ02YtWEje/OYqUGkN+p1UkLPDRHs/KzesVOj64l/5aNSoqbGmvy9jNxDinUnAEkKI/8D4vf0glSxbi398kQ9LFV6szW0ZOmwUrdt0JTw8kvCQMAYPGM4gFbQc7Lz09llunn44Onji5OrJgP6DqVmvPmPGTqRR4xZ6D/BffJWTgiZmKixltJ1ycvLG3d2fAgWsKFjQVgUqe70vLa1WTGvIrnXZYKKd5lPzFlRhq0ABe/21VvaOzF+8BhsnF7r17MukKdPV53ro7bvymVrQonUnvAJCMLGwVmHNDnMV4AqaOpDDxApXr0AWLsvo7f5DYOwGQvwqErKEEOInGL+3H6TNm3fyr6/MyZnbAgsVUiqUq0H7Tt30ENWxXVesVbDJkSMvBfPZYGPjhKeHH9bWLtg7uWNj50KdOvX44sscfJkjB7nympI3b0G91iowsIgKWAHkz59xw+r8+e3Ip97D1NReD1gWFo564NJrr9RnmNk44OYfwswZ85k+ewFNm7bVA1aYCnwTJ01nlhrXq2cvCqj3s1KhzMTMlgKmLnqYy29iQ878poRHlmbBitU8f22s3AfC2A2EEEII8T4Yv7cfpJeqBIfFqrBkjZWZI2YFTKlSuRoF8pnxzy9yq+Bkqoel3CqI5cyVl9y5TFVwstBDknZKUOthPmfOjHlcXLz1W+xoXS1opwZz57YiX0FLvZ+s/Pm1oXqez1YFLSc1zAheZpbaKT978hSwZOqMeTg7+ZI/nwn5C5izYUMKHdp312vBataqT+nSZbC0dlTv74aFlRsFCjiTI5c10bGVWLvh9+8B/qcYu4EQQggh3gfj9/aDtXDJGv7y9/wULGBDnpx5yfF5XhWwzFQ4MtFro/LmtVDFnHx64DLTg1bOnAX1q/wKFLDW+8Ly8AjQA5Y2XQtV2lB7Td68Vuq5nR62tE5KtffSQplWq1WxYk1MVdAqaGbPl1/lZ/KM+eRXYeyLXDlp0qwNnXrGU7tWI/W5lhQwt9fDlX5bHlMncpo4ULZqHY6eOG2sxYfL2A2E+ElyWlAIIX4F4/f2g/VCFa/ACL7KUZC8BczInScfufKa6PdCzKMCl3ZVYq5c2mlBCzU0+XeYcnHxwds7RA9NGcHKQp9XKxmPM4tWk6UNzfEPKKQHrQULltCqVUf69B2KraMbPfoMoV2HHkyamkDnrn0YO34qBUwdsLZ1wcbOHUsbN/Jqvck7eNC4dWdOnD2fsfDZgLEbCPFW0tBdCCF+JeP39oOU2Zxp1KRZ/PXvX5HbxFoFLRWoVFjKmU87TWiuh6zMmi0tVGkN3B1U4NFqqLRe3rXpWrjSHmvzaaFKC1M5VHDTxn3+eW41Pj/R0aWYOWsu06bOpkSJWAqaWdGz32DqN2pBuYrVyJvPDFfPAP3ei2bmzhn3LrT2IFcBW2wcPdS8A7hx966xxNmHsRsI8X+8GbIkaAkhxDsyfm8/SJlB68HT15jbe/JFTu3UoFbMyV8go22VFpi0LhS0vq+004RakNJOHWrTMmu4tBCmvSYzaGnv8eWX+ShSOIZly1axePEaevTsSYGCZmxOSiW0cDGKFYuhVYfulCxViZx5zTC3ddRLPksnTCzdyJXHRr+x9JiJs3n+Qqt3y56M3UCIt5KwJYQQv5Lxe/vBix8xmb/+M78KT2bky2muX9GntcPSaq8sVfjRaq60gKWFKS1cac+1kiNHAX2otcnSpmuPq1Svp/eptWHjFvXcTO+Pq13bLthZO6oAlouVK1dTs0Ydpk1JwNcrCCvtnodWLuS3cCKnCmoREbEkzF1qLFn2ZuwGQryVhCwhhPiVjN/bD96lyzewsHBTgckMaxWsXF39cHb2UOHJRA9PWrjKPD2Y+Vyr0dKuOvziC60BfUZAGhg/kqrVqvH//vi/VK5Sh+Ur19O0RTty5MpPpYo1SZi5kBo1apE3TwH1HlaYmTijXY2YM4cFpSvWYENiirFEmlfGMPsydgMhfpKELCGE+BWM39tsoX3HPpiYO6nwY6OHqFwqHGVcZWjCV19pNVcmb5wmtNA7ItXCV4cOPRg/fgYuLn6MHDmJPr37s3LVGsZPmsHcecv4x2dfUbCgJTnzmJFTzf+leh9T9Rl58tnwry8LUL5ibbbv3G8sxZskaAkhhBDiPzB+b7OFE6cu869cWp9ZZuTSapzyZZ4u1K44zLjyUAtZmQHrn//MTcuWnahWrb4exnr2iKdw4RI4u3rx979/ybBho6lfvxG29q56A/ncBa3JldeaL3OaUsDCgXqNWnHp1h3j0z9Oxm4ghBBCiPfB+L3NNmrUbsZf/pmPvPm0tlgZ7bAyTxVmdNOg9auldVpqo/ejlT+/OStWrSU+fgRu7n4UKGhOhQo1mDhxst426/N/5CRfbity5Lbhb//Kj6m5M1279ePajY87YGUydgPxiZLTgkII8Z4Zv7fZxtGzF/ifv+YmZ84C5Nc7Ls3oqFTrwkF7rF1tqD3OrNn61+d56N69F8WiijN92ky9LyxHF2e+/DIHX32Zl5xfFuDvf/tKBTAbBg0ZxcPHj41P+v6qx4+ZsRuIT5A0dBdCiN+A8XubrZSuUJscXxXQa620YKWFKq0WK7NDUu155vh8Bcz09lcTJkzDzS2Iv/0tD1/l0GrBzPnLP3PpXTRMmDrTeOdPj7EbiE/MmyFLwpYQQrxHxu9ttrJ1xz7+9lle8qgwpd3fUAtVGacJM4JWZs1W/vxa+DIjT+6C/PPzXGj3RPzXFyb89fO8hIbGsG5jsvGOny5jNxCfGAlZQgjxGzF+b7Od0CIl+OyrvOTLm9EQPqMmK6NWK/O+hblVwNI7OM1tpl+V+PfP8hAdXZ6dO3cZ7yKM3UB8giRgCSHEb8D4vc12Vq1LpKBRi6UHrTym5FWhysQso5Yrd25LcubU2mgV4J85ClCych0uXLhqvFpkMnYDIYQQQrwPxu9ttvPy5WsqVanBV18WIE8eSxWyLMhrYkvuvCp45bbgr3/7itwFbGjToRdXbtw2XiV+zNgNhBBCCPE+GL+32dL9J48ZOWay3ufV//t7bv7+WQH++McvsbRyYdCIkdx/9MiYU/wUYzcQQgghxPtg/N5ma9otnfce+JrVq9ezZ88+nj1/ljFB/FfGbiA+QtIGSwghPgDG7634RBm7gfjIyBWFQgjxgTB+b7M5rWtRrWT/ew+K7M84tH4XbwasN4sxWQghxG/N+G0QQmQR49D6zb0tYGnFmCyEEOL3YPw2CCGyiHFo/abeFrC0YkwWQgjxezF+G4QQWcQ4tH4zErCEEOIDZvw2CCGyiHFovXdvC1haMSYLIYT4/+2dCXhV1bXHLyQiJAQICUnuzUAgyU1IQnIHkkDmgBVlUEEmbR1ABiuzA4IoKgiICFoUREUQB1RQxAEciqLVZ7WvfW3fs33VUrXV1gElZJ7zf3vts3dycl8iCb2XC/nWr9/q3nvtfc5e52z51v/b59yTMwGVGxiG8RLqn5ZPaU9gkaluhmEY5kxB5QaGYbyE+qflM9oTWGSqm2EYhjmTULmBOQNobqZPVJxe/DFnZ9BxdSU+Gns6rsccW3vzqX9aXqc9cUWmuhmGYZgzEZUbmDOA2tpaNDY2qpbvaGhokPOQSGhqMr49Vl9ff1KRQmNpnK+g81NcNAfFqH0UV2fmpbH6OF+gr5+M6jpe3adR/7S8SnsCi0x1MwzDMGcqKjcwfobERFVVVYsI8qVgMIssPc/JRBaJQBqvSy0wvI0WLHoOHZdnfNSvr8Hcrq6ultfkK0Fonq+jNVL/tLxGewKLTHUzDMMwZzIqNzCnGRIFJCTIdPLWIob6fCm09BxayJDV1Rl/H5L6dExUkmChft2nS+3zFVooUQyEvh/m+0L3i9r6GjT6GF9i3tUizKX6p+UVWGAxDMOc5cjswJx2SBiQINCigBI07cZoweMpHrwJiRMtZGgOatO85vk849OPNWtqamTbl/GZBRTdFy1qyKfjoT5qm+tUUr+v4tLQziOh49P3Scep/mn9W7QnsMhUN8MwDHO2IDMGc9qhhKwFgS7Jp6HEbW57C08R0tEcWtBo9Dhd0nk8z+UNzOekuo5D+/W8nnF7HmduewvP81IMuk2ljkn90zpl2hNYZKqbYRiGOZuQmYE57egdorKyMrlLRLskeleksrJSJm1PMeENaNeM5i4vL5dz6fkqKipkDNRH8+rdI4pP95OP+qntCyFDVNdUyzlpPtploxioTnPS3OSj+MhPPmpTSbFTTHR9dD99ce/o/DSPvhd6Z6u0tLRlN5LiUv+0Ton2BBaZ6mYYhmHONmSmYE47lJC1UdLW4kaLCKr7Ei1EzHORjwQD+ahOpgUViQodmz7WJ6hT6zlIXOkYqCRRRcjYGprR1GCMo7a+f75Gz0HxkFDVdRJaFIP6p3XKsMBiGIZhmH8TmZ2Zbola4n8LFlkMwzBMpwgJ6o0AoStEtcUCe4fIJBIUaPIHBklfSO/AVh9ZQG8EBxvjg3sFtPrVeKIjvychwUEI1OOEBfQKbjO25TymOc3x6LgJ83WZ/Z1F5WSmG6KWmGEYhmF8jxYknmLEEDAB6B1k+IMCjboWNjReH0uCiPxaGBmCqHW89hvCrfWcZlpElhJRIcHB6B0QiCAtqGRbzBXQem7pV3EGiD6ziJNzibHtXVtnUDmZ6YaoJWYYhmEY39OR0DKLJeWStBFaWhx57FIZgqpVJGnMxxqeVn6sjzDipHiMObV400Krdy8qjTl1XIG92r+2zqByMtMNUUvcgudjQH4syDAMw3gN8yM2aS07SubHeJ47SEpomXe01I6T53gzHQkwwhB27fcRsl/FZuxWqTi10FICTMYlfeJcHYjIzqByMtMNUUvcgvnFdl1nscUwDMN4hY52tDQt70W1ETFaUAlr550rfYz5nGaBZnja8mNCq0XEqblaxZVZaLWOkUJMlCe7th9D5WSmE3z//Q/Y8+xz2P/qa3j+oGH7hO1X9b0HXsH/fPyxGu1/1BJLzMLK09QQhmEYhjl1OiNG9O6WfhdLuH58vGmnq722xtjhMiwwkIRW+zth+nhRbWOt8RjHmUWh7DvDhNaBN99EbGY++ic6EJbiQliiE2H2EYhIciHcbliYqIdRmWiU4aI9UIwdkCzqyif7RLsf+UR/qPJRGarGhNI5T9I3QPUNVH00v7lv4P/rcwvLEXE4ETIkAzMW3KCuDLCPKESfmOHonZCBgMQM9Bmagd7xGegr2r2HONAzOhHTrl2A6krj21b+RC2xpD2BZTY1jGEYhmFOjY7ECIkg7TOP6UhokcjRPvOOVkfvcXnSMs70i8KgQGOHy3O3q2WHi8aad7daBFnbtmesnUHlZK9iCYlCuKMIA9JGIkSIraDETJwjREyQNCeCkoSJsk+LZQqf0Rcy1PCFtFgmgum4BFFPMMb0FWacRxzXQV+w7hN1c18f4WuvL1jEKfvsok/4goVw6i/ijHAU4JwoO9ZtvE9e28Kbb0P/VCdsrkLEucYg2lkMq3sMbO58US9ArKNYiEMHguOG4a7ND8pj/IVaYhZZDMMwjO9pFSet1kYgKWvZnepAaLV9R6t1vHmXqcU6EF2eschdKbOoMj1WNM4rBJV8CV4JK4+xZ5zQsqZgYHouLpr5czz42C7cu/URbNi2Axu27sDGh3bgHlHfuP1R3CvKe7Y9ItsbRCn75BjRJ8pN4jgq6Xjyy+PIJ0rpp+Np/NZHO+y7R/Rt7FLfY7Lv3oeE75HHEGJ3yx211ZsNoXXjnesQkpYFmxBUMcKs7vMQ4S5CrLNQWT6sWYVCaBYLAedAQlYR9u0/II893agl5seGDMMwDOMvVE72KpaYJISkurDxwa3Kc/YSaLWjrxBaazb/QrYX33oHettHwOYWosqRh1ghskh0Wd0liHQXCysRfcXCN0aIrmJEDM9Fr6EpyBl/EY5+/oU8x+mC1rc9cWU2+R8BwzAMwzC+QeVkr2KJTkVIUjbWbjLEydlMzyg7QlLcQmhtke1fvv0ewoeNQEhiOiIcubC5CoQVI8pVhMis0UJwFcEq6lZXPqId+UJ0FQhfMcLSRqJHVCIunTkPZRXGn+/xNbS+7YkrT5P/ITAMwzAM431UTvYqlshU9EvKwlq1C0Q8tOtpjCgZg7xxlyJn/DTkjZ+CUROnY9SES5EnytxxU1Ag/PnjqE/4Joj2uOlwFI3DB7/7ozrL6YeEVj+7W4jG+5XHYMXdm9AnMQP9UrNhcxYjLtN4dGhTQivSnY8IV16rEHOWIHxkEYJTSaQNx7r7t6sz+Y72RJU2tfwMwzAMw/gSlZO9isU2RIgTlxAnxntNRE1dLb74+z/w5T//1Wr/+rptqewfX7XWv/j7l/rvO/uFABs9OnRitRJaS2++BfMWLZH1mppaTJt5LQKtCQgSYiwoJQu97U4hMoWYIksQJvy9k90IFu2gRGqLcqgblvB4hNoz8ejuJ+W5fAELK4ZhGIbxMyond4ra2lpZ1tXVoaGhQdabm5tlacYSlYyQ5BysVY/bGhsbZelLmpqapOl46uvrZdlefJ7QdXUUY4DVLoRTNtaoXx3Ov/kOWKKHCZ8De198Vfp+94c/YtMjO/Hg47uxbdeTeOhxYaqk9nZR3v/oLjz42A5hT2DLjiexVfh/sX0H7rrvPrz05lvyPB1RVXVqn4pQS8wwDMMwjL9QOfmkkIghMUIliRgtYEh0Ud0saCzWoQhOdOLOe1sfHe5+5lnkn38BSiZMQ9ElM1A4UZQTZ6Do4umiFEa+8Rdh/PTp6oiuQfNTbBSPFlxUkiDU8WnT481tgsaTmekphBbtQq3dvEm2X3nrMAYkpKN3ilP+uvLKefOlf/8rr+PQm0fw2ltv47XD7+C1t9/BwcNH8Prb7+FV0T7ywUc48tFv8dav3serb7yNQ2LcO6L9tvA/t/9FUBQUSpv41HXotr6uzqKWmGEYhmEYf6Fy8kkhkUVJnkSWFjBalGgxoxk8ohjJhRdg997WzxpUVdfis79/gX99+x2++/57fHfsexw7dkyUx1QpfN8fQ2l5uTqia+gYqNRGbe0jdJuuha5DXxOhfXrXTiOFVmIWVm82Hh3+7ehnsrzquuthiUrB5YuWybYlOBwBsQmw9I2AJURYsCr7DoKldygyR1+EsEQHRk2YCuswJwJssSiYOAW54y9HaGyKPAeFosVUQ52I3ySsdHy63RnUEjMMwzAM4y9UTu40OtG3t7uihddPZlyNi2cuxHq1o0XjfP2elRZTOgbP2KitfZ5i6scIoJfhh7lx50ZDaM1dugxxzlHyeibNuQ6Xzl0s/ZYB8fjZoptQ1dCEb4+X4+vjZcJOyPo/vy3Ft2WV+PJYKb4pLUd5VQO+OX4clXVNWLXlEUQNz5Ln0FB8nvGfCmqJGYZhGIbxFyonnxQSMFpcVVZWtggaKkkYVFdXi7rxnlNq0Vi4z7sEzx4w3mEiaDSNqW2oaTnWm+hdLDp3TY0xB8VKsWnhQvNTqecnP+0UEXRseztaPaxJCEnMxnr1wdIbVq2DJcKOPc+/iGuuvwGT5yyQfkv/WMxecpOst4sSTk2NQhCqOvHUy2+gj22IrFPcolPWm5uMeCkuHbO2zqKWmGEYhmEYf6Fy8kmhZG8WJdTWGALBoFn8zzJoCHonpGH56vXKS8cbAqGhgR49/vu7NZ7o2AgSTBoSJrpt9hOebYKuzQy9DN83OQur1S8ol5HQikrDi68cxNWLb8SkuYuk3xIah4XLb5X1rvDYnn2wDBgo642NJhElqjo+La7onpvv+8lQS8wwDMMwjL9QOblTUJKn5E+md4PKyspQXl4uBUqTaJMk6J+UiZSii/DECy/J4yrKTshfztVUlItj24o0b0HnpBj0bhbFRu0TJ07IF+T1ThXFSnX9y0mKq7S0VJqxK2cSO4IeJLQSs1p2tJbdtgaWmATse/Ugrlp8C6bMvlH6LdZEDBlZAtf5k+AYfZF8J8tx3gQ4R09EavGFuOCyObhiwTLkTLwU46+ah6yxF2HarOswcvxUxDhyUC3EJ72TRXE0NtahoqJCxkgxHT9+XPrpvrPQYhiGYZizCJWTT4oWMjrRS2GlBA1h3lHqNTgF/ZOzcLv6MnxFRZnoF2Mb6mTbV1A8WijpeChes3jSMVNJfSRmSMBQW+8gmaEdrZDk7LY7WhF2PP/KQcxcshyT5y6VfktEEtwXTMH1q+/F/FvWYv7KtVggbP4Ko774trtx3fLbsfCuTbh25WosvOMu3LR6PYqnzoYlLFGeg6gX97WhQcQnYqE4SRRSnDrmrqCWmGEYhmEYf6FyslexRAqhZc/Gmu7wJ3hoRyvJjXXqg6XLbl8Li3WYFFpXLV2BybOU0BoQi4XL75D1rrDj2f2wBA9SLe+ilphhGIZhGH+hcrJXsdhS0NeehbtMf4LnbIWEVj8hGvVX7qXQilBCa4kQWvOU0AqNw9wbVsh6V3iY3tHqF6Fa3kUtMcMwDMMw/kLlZK8id7SSu4fQki/D291Y07Kjta5lR2smCa3Z10u/JXwwzp8xU3609LkDB7FPWEflXipffhnPv3YYc29ZLYSbTZ7D26glZhiGYRjGX6ic7FUstmT5NfXu8OiQXoaXn3do2dG6SwijlJYdLf2rwx7RyQhLz0ZwQgb6CAtS1ltYcKIohzrQN8Ep2k70Mo0JTclCYFSSPIe3UUvMMAzDMIy/UDnZq1gih6Gf/LM13WRHy/x5B9rRihqGfVJoLcekOcajQxJaVncBbI4iWF0lsKqS2jZXMaKERbqLECl8urS6ChDtyse5tgR5Dm+jlphhGIZhGH+hcrJXoR0tElrdZ0fL9HkH2tGKTFFCa4UQWuo7WlHJsLnzEUUiyt0qpiJcRegxeBh6xKVgkKsQ0Y4SIa6E+HIUCwE2BhHuYvlRVF+glphhGIZhGH+hcrJXoR0fenR4ZzfY0QqMtCM02YXVGw2htZR2tNTL8PR5h0nq8w49ou1CZOUiMot2sIqEoBKlEFsDkxz47ngpqurrYXPmIy49DzEZtNs1WggxIcbEeEs0Cy2GYRiG6ZaonOxVLNYkITBcWLt5i/KcvdCvDgeIa1mvduduNL0ML391ONv4W4f06DDKXSjFlXxc6B6DcEc+ol2jZD9hzzsPUY48RItxUe5iRAmRZRXlObbW72h5E7XEDMMwDMP4C5WTvYpFiJP+dne3+NUhXUs/2tG6r4PPO8xdIv20o2V158KWVQCbqwAxriJEOMcgIs2NlJwSOAp/grDhIxGXWQKrkx4bFgvBJQTZiGIERLPQYhiGYZhuicrJXsViTUUwfbC0O7wMH2NHcIpTXIvpZfg2n3dofRle7mbRC/FCaEW5CoWgKsHAtGyse/hR7Hr+ZfQV94Tez4oR4oqElhwvSt7RYhiGYZhuisrJXsUSm4IBdjfuvNf49tTZTE9rPPoLobVO/epQPjo07WhNmqsfHdqFcMoVRiIqH5FCaNFuVfjwPDjHTkbOxCmIyMyHVQgrqxBbVNK7XFYhtgJt/I4WwzAMw3RLVE72Kr2ihiDU7sDarduV5+ylp40eg9I7Wiah1ebzDsYHS43POxjvaMmX3GlnyzkGNkcJIjPyMSgzT336wRBZ9GkHElo0PoBfhmcYhmGY7onKyV7FIkTHIGcxkgrHonDiVIycMAXZEy5H9vgZyBl/qSipfSmyJkwVJdVFKf2qT5RGX2ubLIfGtvRNQXrJeLjOv1j1G+ekc2V5HGfu8zxna58qRXuEqOeJer6IN3R4AQbYnVh/r3p0SH9UOlILrRWYNG+h9MsdLWc+oqTIIrFliK4Y1xjhM76rZZPfziKhRY8V82EbkS/H0o8HfIFaYoZhGIZh/IXKyf+PpqYmVes69I5WlGM0IjMKEC6ESnhannyERtY/Ix/hmSMxICUHA5Jz0C/Zgf7JIzAwRVhaLsLSshAqxkdk5mFAaiHCMwoRmpGHgY5CcexIDHTlIVSM7WVLwrr7tyJfiKK+KdkIyxDHDs8Vc+QgQhwfSfOmi7bwh0t/awyyLc4Znj5S1IXJ+MT4VFE6RFv46bMM4RmjED6sAOfGp2Pdho3y2m64cwN62IZh78GDmLmYPu9gCC2LNRGRjlwhnIrFdYxAlBBS1hFFiHWNhjWzxNi9kjta6rMOI/TnHUq6/HmH5uZmNDQ0yHp9fX2Ha6WWmGEYhmEYf0FJW6PrtbW1aGxslHVzf2exhA1B9IhCxGTRI7J8Q2S4coUVIzaLXhTPRcnkq1A85QpcuXQlCqZdgUmzFiJOiJO8Sy4XIikHtkwxPnMUIoTosQlxFSFEW5SjGKHJo1Agxvx82Wo519MvHUK/hCzEClEjzy/ETJz7PPkium2EMLfxeM6IQZn2CbFD71SR+LG6zhN9o+UHRwcKMTh9yUpkjh6HWTeswqgpM/CLnTvlfIuWr0RPIaqeO/CqEFo34aJZ10m/JSwWsSLG0FQn5t1yJ+JG5CMsNUueO1bUbU56f4u+HJ+PGLonooylx4fCd45tqDxHZyFhpcVVXV2dFF26rQUYrZtaYoZhGIZh/IXeEaGSkjQJLBJaOmFTu6tiK6XgfJwbm4LgpEyE2Olv/LkQkuhAkCiDktwIGpyG5NyxGOoeg8KpV8Mx9mL0G+JE/qTLcencxUgvmgh7VgnyJl2GoukzMcjuhnPMxRg5/jLkX3Il0gsvhLNkPMb9dA5C49MQPITmEOe3Dxfnd6K3mKOPqAcnDUe/RCeChYUkONGX6qLUvn5JIh5R9iETfqr3EzHTDlbO5Msw2D0KY2dcjdDENLx25D15bbesWY9BaTl44+13sHz9fbhx7Sbpd1w4DeOu+Dlc503BTxeugPMnkzBh1mKEC7FoFaKTfoUYmVUohJeoO4UIpUeLzmLECfHYy2aX5+gKWmzRutH6aGFMwov81FZLzDAMwzCMv6CETMmZIIFFUFsn7lPZ0aptasaBNw5jy86nsO3xZ7DtKWGi3CrKh3bvwTZh+155Hbv378dDO5/Ai6+9iVcO/wpbhf/51w/jF4/uFu338eCup8X45/Dau7/GO7/5PXY/+wJeOHgYB3/5Dn778Sc49Mv38MzzB7D35Tfw/Euv47mDb+K5l97AkwcOYruY71Ga68nnxHzPihj2ihiMciu1hX+7OPfDYtx2iu/JZ/Dw08/iYdH30K49OHzkfWzZsRt7XngZpWVV8rrqxT1JcOUjIecn+M0f/oAZsxbg+lV3yz577mhEJGchKrUAVy69BdcsW43Y7NGIzKQdvAL5cnykEFWyzCwWYqsIkUJoWd0lsMSkyXN0FRJUen2orkvykQBTS8wwDMMwjL+gnStKytqoXVlZ2fI4Sidwf/LF519g1cb7cd8jO/HgU0/h1rs3YuX6e7Fu+yO4Y9OD+PnNy/HzFbdhwYpVmLt0JR5/dp860nu8/esPkVowGlPnLES0EEsf/tfvcePqDVgp5ifGXDkPo2dcg1GTL8OM+UuRkjMSU6+5FjHpWYhMdSEixYGoYU5ECrMKGyjatswcRLjyuvy3DklIaYFFoljvYpHRGpJIpvVTS8wwDMMwjL/Qu1iETtAEJWxCJ3Fv09BA5zd2X6qrqw2ngNo1NTWy3lBvzHvH2g2wRCUiwpmLkPhM9LU75ePIvklCsKTmol/aKAxMG4kByaMQYs9G79h0eVxX+MMf/4ieAwchMm0EIoaNwCWzF4D2+bbtegznRkYheKgbfYflCJGVh4HJWXjmhX249qZbMfnaBfJ4S1gMItKyMG/5HaA72IhmVDTQ/9NVts+qB7Yi3O5CYEyC8nQOukd6nWh9tOgi9L2k9VNLzDAMwzCMv6CETMmaxA1ZWVmZFFYVFRVyZ6uqqqpNIvcWeq7qanH+xmbU1zVKkVBeXo7jx4/LfkOMASvXbEBy/oVIyrkA7gunyhfmM0omIKN4AmKzSmBzFsGaWYzozEL5q78eUfHyuK7yl8++wPDiC9Ejwo5hReMx1F2AA4ePiDiAOdffgT6DMzFYzJVccCFePPgaFqxYg2uE2CKiHLlIzD0fgx0FiHPmISQmHpbQCFhCwmA5ZwAsvfoJE2VAf6MeGIJzY1Plpx8CrCnyHF2B7pVeG72rRfeO1o2M2mqJGYZhGIbxF7SLpd/Tot0tKmm3RO9u+UJkEXRemkNUhNFuWoOcz/zoS889ODNXCCp6rykPSfnjkTZmknzBPH7kTzAokz6RQO8+0ecU8kAfAw2IT8WvfvNf8thT4cCh1xFudyNoSCrC013IGj0OX31bjt998hfEu7LR05aG5w69iquX3opps4zPO5wb78DA1CzMWXabbHeGlevvQ2jyCFhsycrTeege0f3R95HEMd0zKnVbLTHDMAzDMP5C5e0zGktEAqwO+hRCLqKHC0El6tHS8hBLfmcxYt0F8nMJ0a5C+QvEBx5+WB196qxafw+C4jJwzhA3LDFDsWTVWum/8Za78Nzz+zBr6QpMmm38UWlLVDwinUUISsqGZVAieoTFomdYtPzURUBYjCjjYQkfKh8xWgYJC49HcJIDka4SIdyGyXN4G7XEDMMwDMP4C5WTz1g+//Jr9IoZLr+wHuOgb17R19VLhMgqlo/djK+tC3MXwSqETpQQXX2HjcKcm1epM/x7VFRW4ooFN6BnnB3BQzIRmZaFQ+8ekX2XzV2MyXONPyptsaUgKj0bk+Zdh8++/g7/c/Qo/nz0b/jzp5/h4799jo9F/b8/F+2/foa/iPo/vv4esxbdjLD0XAScwo5WZ1BLzDAMwzCMv1A5+Yzlga3bYRkUj+Chw3FuwnAEDc5An4QM0c5A3/hMBJNPWO/EdCGE0tFnaCYC41PFuK59BPRk/PcnRzH8vPGwRA+TL+ZPumouxl01G5dfu0j2W6JTES0E34AUFxJHjUZ8diGG0OPN7BIMcQvLKsBg4RucXSD7EkaVICwlCzbHKATG8p/gYRiGYZhuicrJZyzffH0Mr//qA7zzwW/wzq8/FPYbvPvhR3j31x/J+jsfCJ+wt9//EEeo//1f403Rf+Td99UZvMtLr7+FkCEZQhylInCIA5ctWCH9FmsywjKzcfHV8/HN8Uoc/epbfCrsky+/xVFhf/3ya1EK++ob/O2rr/FVaSWuuWElBg3PQ49T+GBpZ1BLzDAMwzCMv1A5+Yxj7PQrcf70y3HplfNw8cwlmDp7ES6ZtQjTrlmMSTMXYPI1CzF5prBrRH02PcJbhKkzF2MKtcWYyVcvwPjLr0HhxdPw8ssH1Vm9x4oNm9EzaqiMi6C/VxjpHAVbeg7i3XnCRiLeSb9ALMRQRz4SHXmIc+RgiDNPWC4S6MOlw7MR7crDuV38EzydRS0xwzAMwzD+QuXkMw56ebxHVDLOiUqCJXYYAmLs6BGbbJQxSegphI0lJhk9RBlgSxJ9wif6AiOpFP6YRAREp8LSLxJbdzyhzupdvv7uGB7a+ZisWyz90StmmIhJmJXmThGxpch3t3pGCYtOlGLMYhOliM8SmYxAKmNFjD37yXN4G7XEDMMwDMP4C5WTzzjq6upxoqwMZeUVwsqFUb1cfivKXLb16bFkxrE/HC9VZ/Qt3wnRdbz0hLBSlJ4QpuqGT9e1Gb7SE0Z57Nj36izeRS0xwzAMwzD+QuVkphuilphhGIZhGH+hcjLTDVFLzDAMwzCMv1A5memGqCVmGIZhGMZfqJzMdEPUEjMMwzAM4y9UTma6IWqJGYZhGIbxFyonM90QtcQMwzAMw/gLlZNPSlNTk6oZNDc3SztT0PF5lmcCjY2NaGhoUC2D0xGfWmKGYRiGYfyFysknxVMskFAgnydafHmWvhYWtbW1qmZQX1+vam3xjOt0cbLr90VcaokZhmEYhvEXKid3Gi2wzMKB2iRstI8EGQkGalOp675Ei0A9t46HjESY7texm0Uj4cv4tEilmPT9oDbNSfXKysqW+XX8ZOTTfu3rCmqJGYZhGIbxFyonnxRPIaDbhBYAWkhogaDFAZmnOPM2WjhRqetmzDHU1dUpb+t1UX9NTY2sexsttAjP+TU6NjK9O2e+f3Q8jekKaokZhmEYhvEXKid3Ci1WCC2qCLO40aKAzFMkaFHjC2gO864a1TXaT7FQSW2zmNGl7vc2ZqFFUFvfR5qTYtFtz/h1fHqMbncGtcQMwzAMw/gLlZNPCiV4szggQaBFgU7+2m8WA1T/sbavMMdqLs3x6VjM16H7fIF5Pi28tE/Pq/t13dzneW9PhlpihmEYhmH8hcrJnYJ2Vcjo0Rc9ZqN6RUWFNC0eaCfmxIkTLbtGejy9h0Q+Oq4rYqGz0Pw0V3V1dUud5qU/OE2iSz8WpDaNIdPxUWzUT6UWaN6mqqqqZT66D3SvaD66d/q+UNy6XVZWJsdQnBSzjo2FFsMwDMOcRaic3CnMIoQSvk78JBC0T/u18NI+autxvkLH4zkn1QlPn64TXRUxXcUch57Xc04dkzk2MoLGdhW1xAzDMAzD+AuVk5luiFpihmEYhmH8hcrJTDdELTHDMAzDMP5C5WSmG6KWmGEYhmEYf6FyMtMNUUvMMAzDMIy/UDmZ6YaoJWYYhmEYxl+onMx0Q9QSMwzDMAzjL1ROZrohaokZhmEYhvEXKicz3RC1xAzDMAzD+AuVk5luiFpihmEYhmH8hcrJTDdELTHDMAzDMP5C5WSmG6KWmGEYhmEYf6FyMtMNUUvMMAzDMIy/UDmZ6YaoJWYYhmEYxl+onNyG5uZmNDQ0qJZvoDmamppkSdYVmpub0NjYqFq+pbFZzdNkFG1p13lK13Qq0P0jOppLLTHDMAzDMP5C5eQ21NXVoba2VrV8Q319vRQKVJJQaBENndRPjY0eQtDLwqahsRk1DbWndB/oWnwpBOncNTU18t6RIKb10mJL30dCLTHDMAzDMP5C775osUNlWVmZTOaUxM2J29vo+QgSDcS/vv0WW3Y+ibu3bcPmrQ+iUomWh594Brue2ostO3Zi5+7dcuzuvXux5r77cePtd8r23v0vYd+Bl4z6vv14fO8L2LH7CcxfsgzLbr0T85bcIPpfkf0zF92Ixbetx/U33yrbpSdO4KaVt+PW1XdjzsIb8MMPx6WfePPIe7hn8/3YuWcP9r16SPoo2vu37cSDj+/B3ZsfkD5CC7OqqqrTsitI96a9NSKfWmKGYRiGYfyFTtbmknZLqE5oIeQLSAyQGKE59Dwvv/4aBiRloKq+AVse24XBjpHSnz9hCr74+5cor6pEgxj6Hx/+FtOumi37Hnh8N97/6D+F4FqNJavW4dC77yMxw436pmb8cKIMf/rzJ+gTk4DfffwX+bAvbvgIPLDjcXns0pV34qIZV+LTo3+DJSJe+rY/uw83r9kg68TVi2/Gnv0vyrrdmYOymmqMnX4FNm97VPpWrr5XiLF3ZZ2ga6Fra08AeRM6P60TmRZ1et2orZaYYRiGYRh/YRYDWvBUV1e32Y3xlWDQu1jm83/4n7/HlbPmqxYwec4SWRaMn4iFN9+Bn82Zjwe2bZW+x/fsw5iJMzBm0gxxrjrctXETrBl56JsyEk/v3y/HaPoPTVM14NzooapmYE1z469ffYMecXZs2PQIohPSsfelg6oXWLN1B3563UIsvWUVJv/MEHcTps2QpSfVVdXyHtLjPF9Cc9Aa6XtnFncktqhUS8wwDMMwjL/QSbojqO/H+k8Vz3Pq9guvHkKSO1/Wv/jqn7AMiJR1S9BA1Na2ipdfvvsuXjhkPMa75+EduG7FMqzetAUXz1kgfZb+/fHll1/JOhEUl6Jqoi8sGp9+/ndZf/XIexjqHIVP//ElAqxJ0ufJ2Ium49b161TLwDIwDF99842sr75/Cx7e9YSse+KLe+dJR3OoJWYYhmEYxl/QY0J6r6i0tBSVlZWoqKiQjw5pV+uHH35o86K1N6F3mGguMtrZopfb62pqsf/wO7jkZ7Nw4+q1yBhVhD/85RPUNDYh5/xJuGz2fFy79HpsffRR/PPb48gfOw63b7gP7qIx+NPRz7BxyzbcsWmzPP+Rj36HvAsmyTqRkl2iasCf/noUg9OduGXt3YhLd6CmCfjk00+Rmp2rRgA1VTUoryyX9aUrluPp5w+I+1SPqsoT9KY8fv+/nyMzfwzWbHwArtEX4lgZXU+5vB7aadL30ldCi+4fGd07Wj8qjx8/jvLyclmndVNLzDAMwzCMv9CPmUgc6Hd9SGjpx1JkvsDz3E1i7uamrv9Sr30Z09Z7KlqnSVy/J00iPvq0RHsnbFbXQwKH7iMJLP2+lC8w3zuaS6+XnpvaaokZhmEYhvEXKlcz3RC1xAzDMAzDMAzDMMzZj8Xyf+/muq6HdtZhAAAAAElFTkSuQmCC;" vertex="1" parent="1">
          <mxGeometry x="870" y="10" width="338.15" height="269.91" as="geometry" />
        </mxCell>
        <mxCell id="4RYRgsrVSUQU46YHIujC-2" value="" style="shape=image;verticalLabelPosition=bottom;labelBackgroundColor=#ffffff;verticalAlign=top;imageAspect=0;image=data:image/png,iVBORw0KGgoAAAANSUhEUgAAApYAAAIeCAYAAAABEU+/AAAAAXNSR0IArs4c6QAAAARnQU1BAACxjwv8YQUAAAAJcEhZcwAADsMAAA7DAcdvqGQAAP+lSURBVHhe7J0FYFxV1sf/4xZ3a9rU3d1LaYsXWJxFlsU+2IVFd5GFZRd3Fpdd3GVxbYHSFuquqTdNkyaNy/jMd8+b95qXyUSbpMnM+cHre/PmzbPcc8//nmsavwAMwzAMwzAMc5Ro5TXDMAzDMAzDHBUsLBmGYRiGYZh2octXhf9SAvx8GDjkBIrFUkRrV2BdItZMeJJoBFJMQLK8VpZZScC0RPkg5pjCthmZNGabM4VtTmfbPOawXUYmjdqlsMnpwjY7ky4nLNeUAz8Jo/hZGMdPxUCNV/6CYWRsuoDAnJUcMJrRcfIXTIfCtsk0h2Sbwi7JPtk2O4c1FQF7lOxS2GeNR/6CYWQ622d2GWH52n7gub3AyjJ5h8zwmMDL6GsV6ttcX43TdiTRaX8pjbw+hhyWS9jq0vaO6kDmuUFkpGrGCSO5Jge4NFvewbQrbJvNw7bZiG3GC9vsxbbZEZBdPrsHWCUKfGokuxQioq9NtkeVbbJddhDsM+txTIWl3SscljAMMo49tYF9PS3A8SkBVU1OK1MYBcOoyXcESuZUSl8o1vvktNNbZKTkxK7tDZi59fBRwbbJtIV6timWffbA/hxR+CC7JPu06AL7mNYj2aUo5D27u84ue4l3O1vYoxIlzhR2yjBqOttnHjNh+YxwWHdsASrlsP3o2MDDXcYlW6aV/GdfQARRlRARowfuHyzSkyiRMa0n2DbHyKVbtk2mtfyXot0iPa2Wo2pkm/cNAv4k8nqmdUh2uVXYpTvwme2SaStkl1Q4UfvM9rRLTWcLywIncN0G4KODgc9zUwKKeX564DPDtJXPCgIRth9EqYw4KwP49zAgnSNrLYJtk+koyDYp0vZ9UeAz22bLIbv883rgY/EOiUi0S6fbA5fbC5NRD6O+8ZA3qRm70yXWGljMemg1GvjETrvDA43GD4vJINaN11u7PF44XR4YDTqYDEJthTkdZZedKizfPQBcvynQUy3eIB5gOPD7LPnLMIQStMfjkxKyQd+yOLNbHE9/Er04noyCaK/zRApv5gmBtBEoFyV7alNE6ey8TPlLJiSRZpvMseEtkc6o8FJGtmkKODG2zcYhu6S8jNrPRapdFpfV4pHXfsNP64owZ2wKbrpoEhLjrPK39Vm4Yg/uevYn2F1+PPCnGZgzuQ9++HUXbntmESxGDf557SzMHh+6KqukvBaPvbkMP6w6hFkjk3HLpZORHB/6OuEG+czrRTprL7vstJZot24GLlgdcFxniJLW+lnhbyDPvbcSM//4Gs648T1s2S2H0Zpg0ep9OPlPb2P2lW/glY/XyHuBVz5ZI+2j7+iY5qBr0TXp2s+9t0LeGzlc1APYINLX6SKdUSPm81cBf90if8k04FbxbiLNNtWszz2EyRf/B5MuegWbdspF90ZYvGa/dNyUS/5z5Fha02faT983BR1Lx9H16LqRBqUrSl+Uzii9kW2Sb2AacovsM0lURqJdKvywbA9+XL0fA/vF4ofNRfhmZeM+8NHXlyO7dypsSVG45YUlcLm8+OtTP8KWYEWPvml44G3xQhthwcq9+HFdPvr3j8eC9QX4bnnzvjZcIJ9J6Uvyme1gl50iLG/fCjyyM7D9pFDCn4wHeoR5A+MPvt+CV7/ahkG9k+GGHn9+dCHKa8RfrBEOi9LS359dBJPJhKgYK577bAsWrtqHn4URvfDxRsREm2GwWHCHMJYiUYJrjEpxjesf/h4enxb9hSH959ud4l4iL+em9PU/kc6eGBr4/PCOQPskpj6SbYp3Q0SKbQZz7f1fISUhCr0y4/F/930l7w3NbU8tQL+eiVKNwHUPfSPtozVV09F++r4p6Px0nZQEm3TdSITSF6UzSm8E+YbbueBXj9vE+3g0wnxmY1DNd02vTHw8cCxWnXIqPvTEoNzdsKKVaujsFhM+HTwOS+achB0nz0OROM7aIxkrjpuL94dPwfIJk3HY6ZN/UR+7To+9I4bjndGzsHXOcdjiN8jfRAaKz2wPu+xwYXnXNuCB3MD2++OA6yOk0XYNtekQ/yWPHoAl02bi59lzcO1mN0pcoVselFU6US1+UzG4H36ZNQebTjsRdxwy4VCNGzBZcWDGVCycNgvL5s7FM7sbF6ger18YDrBn9Ci8P2IKNp84GysdkWUgav7SB3hvbGD7fpEO7xbpkQkQqbYZTI3Tj6iUeCwaPg5LzzgLpy+vlqJEwVSJQluNcEq5PXpi9e8vwi/zTsKze5yiwOiDd+oEvD1mJn49/Qw8s6Pxgl+Z3oLFw8biizmnYfO4iSgW145UKL1RuiMeEIUbSo8M8HdR2HtQLuxFsl0qpPfJRM2gAfB7/EisrcIqTTTWVzQUh9RULG7iMDj1JiQczIcrOgZ7HRqccu4UuPUGxBcUwBUVje+LQw/Aq81KR0VWFqxFh6CzWrAxOg1FjYjQcIbSm+Iz22qXHSos/7kd+JdYiLfGAOdkBLYjgSkjMqGL0uNRXzrcQmD29NjxTk0Uvj4kd+kLIi3RirReSVie2BMO8WeJ87ux3JyGlAHZ6DE0HRviekBbXQuN0YhXK6zId4R2SNFWA3pMHYzcnAEwFBZDI0phLxp7IN8eeQaicG4m8ObowLY6TUYy9WxTvJtIss1gpo/riZ/8UThkjkaOowKLSnx460BDO7VajEjsn4VNhnjoysuRYNRhVbkXF18yBbthgKHWDpPbja8PA7uE2AxF/MxROGSwwiacXHVGBt454IJdFAYjFUp35BsISo+ULiMZev575cJepNulwuAesegXYwDJQa/JiP7ReiQaQ/cbuHJaT+i9TiSkxiFK44VVr8HAzDhhnT74xG+TTH4Mjg7d+ad/kgXpOi/cZhN04ncD4vSwaCOrf4IC+cyjscsOE5b/K6iLDr0mDOTCCGsb0r9nIi4+YzS8Bj108GNO31jpbfs0oV95tM2E+6+ZAY3fB4PHg8k9YkQRTHwhnNeffj9J2jZXVyPOqIVBp4FYhcSg1+HkWYOka5kqKxBj0aNKWKTTF7nOi/h9D+DVUYFtKoF9KvewjETq2aZ4JxeKdxPJ3HjJZGhMBviFjWWkxcLj98MRQuzphJO5+4+ToRX2GWXRIVEU4iigMXlsDpJTYqDxuJEUY0KsQSPNdBGKoQMzpetA2LBHLC5fZDouNeQbyEcQlC4pfUYinxxkuwwFicgTtBXC/9WiSmPAyaYa1O4vwIpN+Vi+4QCKS2uk3uDE1AQ9Ug7kYbcxGldkGzEwSouJ8XqMcFWgMikF/9fLhKExWun4opJq6fd0HlpsJaUYUVUMt8mMvj4Hru1tRLSw5UjlaOyyQ4SlW2S2SsPPR4YAl0SogYxKtSBzxQq4DUa8VBqFk4RBnJba+FAJg1OjkLx3Nzx6Pb4o02KSvhqDozQYEadDysH9KOvVC9VCJJ6d5EVyIyU24qxMI5J35OLwyDGoEbL2iYFa9G7M00UQNMvAw4MD29RhJRIDRWrbfHSosE0eAw/ZiVZk5e2HuaISyyo1mJWkxw19Qk9RMjYrGlEHD6JGOLhitx/TEoXTijdgiM4Nly0KNUIoHp+iQ2ojow3/c6gNltIyVCemYFaiAedk6WGO0KiIGvIR5CsISp+eCLNNyS7l9mxslw3pb9UguvAAdNU1ePntlfi/BxdKy58eX4oPftgGuzNQwxAjhGDa/jzoPC5c08uAKL0GKcJXjnWVQetyCrFogtglHf/hgu3S75VzXXrPd9iwLg9Gpx1jLB7kWDtEHnUr2mqXun8I5O12g3qzfX0ImJEEvDRS3hmB7CuowKLPVkCn8aOyZ08MWr0CK3/ehK8W78BnP2/HoZIajBqYdmRcLa/Pj8//+wP86cmoMJrx2/RoZAgHZROWsPKzX7ElOQMnCaf1n9GBIRCosfJ//rcWL3y4Ct8s2Smdl5Yfl+5E0f5iHB40EJeZynEfjT7PSExJDMxAsLYCkkiflyJ/ESHUs80R8s4Ih6zvv+8ug660HCW9eiJq526s/moFPhc2+tUvuRjcOxkJsYGeEwYhAv/76iKkDsjG6DQL7h1kgUn4n32b9uG3Ug/OHZyAm4UoNYrjduWV4m9PLcCnP22XzkXLgiW52OU1wBUbjXcmRGNwtFbYv3TqiGdyQmD6Ock2PZFlmzcLu/yG7bJRrGYDNroN2GKIQd/MKGT0TUXsoGzkaXU4oLdick48UmyBvgQv/JCLop69cFm2CSnCf1Jl3edbirFOH41r+5iE+NSissaF15fuRW5MLPpOGgBbv0zE9UuHs0cGDlmicUqGETPTeJBVguzyiM9soV22uyT/sRh4Yldg+2FZ6UYqVL0dFyUSu90pea8tu0vw28aD0rJqaxGe+3AN8our5aPr0MpxfXV1ty7EvgNFVdI56FzKeWlZtukg3FQEFtdMsnCpK5iH5Kjl4zuFIxMGEymwbTbO2CHpMPlEScPnQ2FBGdZsLZCWVVuLsXxjvnxUAK04jtpsmXQaSVQS9JmasZi1/iP76Hf0e+VcymLwe6WerlSJwJqyPkqNAqVTcmaRwI/iOZ9ku2yS7PRYnDo6Ez1sWhTGJWFVQgZWx6Uhr/8A/NxnOLY13l8uJORND1pjsHP8VPwWk4r1ieninJkoiYtH/ygdBibbAgcyEkq6bKldtrvquEdu5Hlnf2B8XGA7UhnRPxVv3n8mzjs5UAR1njATzkt/J5azcGD+idg+53jM3+jHgiJ57rxW40dlSgoK5s+Tzmm/JLDQNVwnzpKOyEoXxQ2mHhPFK7lDpE/iH3KbpkiAbbNxrr9gIm66eDL80fEoGTMKeRedIy2bTjsJ13iycMMmh3wkWR3JQc2Rdl1EYB/VIgScFlFc5cK+MSNw4JILjpyPlsODB8Gt07OqDMH4+ED6JCLFNu+RnzMS7bK4vBZvfrkBH36/GbsOlMp7QzMvWY+3xljwtlg+GGfDx+NtGH9gF0wVZfC0ug+BRqohtJYdxisjrfhwrFWc04p3xPrlkRbMSGy86RjVRND90n3T/UcCE4RdKj5T8SNN0a7Ccms18EsJECXyzLsHyjsjnKyUGEzJicMYTQ3SRUnIZjGKxQCTQSRsoxFrdDHYZm+7h3HGJ6AwLQs+ca5Ym0HqFU7XoGvRNdMMPvlIRs3dAwCbSKeLRHrd1jBoHHawbTZNnx7xmDksDafE2HFimgHTUoyYLhZLeRn8wgHtrKE+qa3DR51zYqMRbdJgSopJOh+d95R0A87JNCJG31pnGBlQ+qR0SumV0m04s6Uqcu3S6fbi4Vd/xWNvLcN9X+fib++uxccLtuCdbzbis5+2YX+BPJG1TKZFi2kJekyRl/FxOiTZa2DwekVhrmlb0mnrC0VqfqLRaaH3usW5DFIHH+W8kxN0SFO1kc7dV4JPFm7Fu99sku7vodeW4oEvt+LeL7fjwdd+lZ4jEjjiMw8LuxTptinaVVi+dyCwpqmAqIFsOPLRD1vwzxcX4dVP16K0wi7vbZrT0/RYNcOG5dOjsHJGYLm6dCeyV8qzAAjDaDNUfSd4Ybip3vlpm655hnBiTUHPQM9Cz0TPFikYRMpXpqxS0m04Ewm2GUxRaQ3uf2Ux7nt5cYtmrOohHNd/R1nw0kiKWlildcaqNRjor4WzLSbq98On1eP0VD2eHWauO+8IC/491IwMpc48BItW7ZXum+6fniOSoPQZKbb5vtzKIpLsUoGmKf5pfQl0M8dj95Qp+Dq5H2798RAef2c9Hnh1Kb77TR4hXqbW4cEOIfLWbS/EhtxD2JVXhhqHGz6/D/sPVmLTjiJs33NYikRSzQEdS8dt3HEIZRWByOLOvFLpuC27ilFrp98K4XigTDqOzku/oeuo+UHcx4P/XYrH3l6HB15fhx8cMdg3aRIKjpuOD2pi4AgxWHs4Us9n1m8d1IB2nSu8/wLxxxR54ILJwOxkeWcYQVMrPvfhOmjggdMahaT0WJwxMRuxPo/Qhj5kp8dhzsQ+8tFNQ07j9U3l2HHGqXg624U/9TZKs3fMvvJ1HJgxDXvjU3DohBikmAK5zfn//BrvjZiCs9L1+HB8oP1H3qEKTH52HQ4cNwM/DfVgZpIoTjTDt0t3IL+oEjpRWtPpNPhkwTbsqPDBazZAJ7znX07uj8vPlMcYCHMWFANzfgUGRAHbZss7w5Rwt81Q3Pz491gsBKVZpG1PTg9MHJwmRGKgSnto3xRMGtH8cBXDLvwvEs6eC2NKPH6YHLC7oRe9Cuvv5qFvjzi8MybQke7JT9bjriITLpncE48L0UidfJ76ZC1uL4/FjZMycNcA2icdGpIFy3djj3BwCt8s3Yldhig4hfM9JdOER2+cK38TGSwUtnm8sM1+4pXnHi/vDEMi0S4VyN/d/tIveCJtOKLLymGIscJptiDZWYOiCgdyYvV4YmameC8Bv5a7vwSvfrYO64UAFFoSWmFPBzU2bJ48ESM2rUVKhbAfIWf2aaOxddYUTF/yEyxOp9jlxx6DDTunT8dxi36AwecTotaL3IQ0HBoyGNNWLoHW5QGNBDhiQBr+MH8k+mcnStckLnlzPT6vNCIuNRY2sx47nVoYqsQfzeOBOyke+fNikGhp3veGA4rP7C985vYmfGYTWV3roAbIZCD9xAXD1UCWbS6GQefD9bechp0nzMGiWSfj1qpkPPLdPjz74QY89sZyHCxuGCN2iERbXetCjSgh0UJS3i0SttIayyNEqV2Ukqrl7xSpXytKY3Q8zaZDpTBCOdbp8kpr5Rz0G+X8dC26ZjA7hWHe98pSPPvBejz9wSY8+e5G5DoM2DXvOGz73dnYMfc4fLE7MtqMEMeLdNpHOK7t1eHdiScSbDMUP687jAF9UlA5ZTxWDBiJp51JuGerG899sEZyUMFQZJCiG+qF2kFSVIRs6sg+gd3pQXmV48i+Q4cDdl9SXotNO5V9gXrcQ+K863cUHTk2VATy1c/WSvf14qdbpWVZUi/sGj8O+6ZMxtuexIgbGovSKaVXSreUfsORSLVLBaNBh+vOnwC9XgdvSgKcUTbYjBokxlngsViwyxyHfEddVQFFGL+pNWPVjNnYcdI8bJ07F8Vzp8EXHYW8iRPE5znYOm8uSudOgd9oxo6Zs7DthLnYfuI8lM+eDp/Yt2328eKYOcg96QRUTRwDT2wsth4XON/q6bPwYlwf/O9Q/eZj5TojKtNSoY2yIDXeimhRUPUnxsCXnCCNG20yRoaoJMhn9qXCnsjamurE024Ry4d2AH/bAtzar67Xbbjx0ser8cJH64SoPB418QnoffggdqdmIdbthGb/AakINW5oBk7OtuHPvU3yr4B7XvgZ3y7dRW9bFo1+aS7vyuQU7Dj9VPT6+Wek7gqE/d1i/55JE1DWIwujv/gCBmcgwmLXW7Dh9FOQeCAPfZctk/aR18vP6StFLAd9/iliig8Hhi7xa3Di1L6466oZgcNktu89jHmvb0JlYiJ6pMRKA61v95tRY7Igac8ulPTKQY7WjZ2n1JXWwh0afofm5KVeb7f0lXeGGZFgm6G48dHvsGr7Ifx64slIriyHMdqGIp0ZmrIykfa1GNMnERf3MODS7ICtUruuzxdtFyKybtadnfm1KBw3HP64GEzbskbat+NgLfKFU7KatRifKxKQoECIyA3jJyPNZ8eIvYH5+AqE2FwzdSZyqksx+MAeaV+U1YDTZgzA/Fn1G9QNfmgp8hJSEZsgVIbgkMaIqPJyqcRYmxCPqtMT0MTQtWHJX0WapTn+HxRp9q8i7YYbkWqXaqjA9OlBUdjb60KGRYt/DjAhb3cB/vDWVhyYPAb/HROFC7MCzbmouvrMr/Kwq98gjI0GEsVu6jSn1wbO45OljFY4QeHapDEXFXlDpqPXaurt04q9NIQsdfwR2QG2Ftux32fADakePDapzgee8e5WfGFIxkM9PPi/sanIs/vxr1wnCu1e/CnHhFPTDdL1IgUaz5LmEX9I+MxbG/GZ7SYsr1kPPL8XeGY4cG2OvDMMod5gf6uIw15rHM5K9OOLCj1MPg9qqmqEnhMJNzEFZyd48MHIulLMrU8swBfbhTObMQZ6cQy9cErQVaIktCMmDVlVxUhx19KAJVIC3W2KRZnehKG1h6H3BUpPXiFaN1qTEOdxorejXDpWK85UZLTiQFQy+lYUIMbnArUjzi+qQlqSDe+dloNhMXWNlnP3Hcak70pR2rc/Ep2VUpsepxChNX4dBpYXYUtsMmYlaPDDpED1XiTw9G7guo2BNEtpNxyJFNsM5nBZLZ56bxUeSB8Oq9YPrV4vORVvYTF0ZiNqo2Nw10Az/t4/ICyfeW8FnvtxLyqPnyo5ImmGHGGvpcIWKf6f4qY21WKnMN7DOhOVE5HoCRT8yPYPi8Kf3u9BvIeEKXUn0Aj7NMPs9SLWG9hXXulAzwQzPp+bhj62ugqj3k+vxd4evTAyzgCLMNm1ZV745bbXWr0OZSfHSGNjRhLPCi3+pw3A//UCngvDsR0j1S6DIQ9X7Q6IO5twgDQLzoWvbsC+6RPxqkpYUrvI+V/ulwIg70+KQaa9Aiu3HkKtwyXMtPW2QXmBVeQDw/unYFhOIm75aheet8fi2h46PEZDh8ic+Z4ocOqT8EwvL64WwpKoEUrWJzII6szSbtW+3YRnhF3+WdjlNSLNPtuIz2w3YXnKMuCrQ8DnE4BT0+SdYcpykelfuqZWKrmMi9fh+UEGXHHTW6gRQnH9aafijDQ9PpLbQRI3P/Y9/nfQg92nnQRbbS1MwvlI4lIs5ERoWjj1iPbUpp8EpigQSccRZDZ0LJXM1PPikzik4x1in1RdJv6cFW4NfPEx+HKQDyen1CV7SVh+eQilWVnYNdOC3rFG8Qw+XCyeZWWZDz0sGrw22oYJ8ZFjKp8VAKevCKRZSrvhSCTZZjBkKq/tc+GFvW5pFo57Bhpx1S3vIS4zEcvHTcY/hbC8QxaWNNHA4z/uwY7Tz0AG7Mi2aCWbIodHhlhXKSf2yesj++g4YYskJ6nQV7cvIDCpJQtFVlYW1ErTR66YGY2RsXWFvt5Pr8O+jB5YPCseKUY/9om85d5cJ2pFxnBtjgm/zzZEnAP7ohA4bTlwsvDlX06Ud4YRkWyXTbFqa6EQlpuxc+IoTM/fgZzDhVIUsqrGiUUJPeEZ0hefTY3FgZVb8cJXW+DRGWBoQ88n6jxEpnrxnAG4/MQhuOPb3XikIgqDCvZhXHmBFAGlvgiLtLHYPWgInsvx4crREdhmIYjPhV3OF3Z5irDLLxqxy3YTlsN/AjZWAutmAiMiYKIXGn+cQujkLFxOD0645k3UavVYN3++EJYGISzron6SsDzgxO75p+LlHBcuzdLjwOHqQLV1O5EUbxMOUIvaagdGPrQEeXPn4MuBbpws7kUhd68QliInK83KxF4hLHvGBhyqWzwH2RhVFTTVwSAcodkERv8cSLOUdsORSLPNYKiZ1l5RgCLh18+mxchzXkBydjIWTj8e/1IJS+qc9/CCXdhz4gm4obcBp9hcqKp1SYW1tqIRNhVtNSIlMUqSm5NeWg9Hn15YMjMGo1TCso8QlnvTe6DwtEQky7NJ7qjxwSvsMkfccxMdyMOW9cI2RwrbHBYDbAgMyxtWRLpdNga1Qb7n+z14zpqN4WWFyHZUwafRwmV3YIUxHubMFHwqhOXWXzbgtiILKtLSQKMDtTZq6fX5YHd7MVHnxOL5mbjz2114SAjLHuJ6wxwVcIvz6cQxu6PikRuVgI9GGDA/J9BUJZJZJ+xylLDL4cIu1zdil+0mLOO+BircQNlJYrtOy0QE1MnmxGvfQYVwYBvOOB0zrB78IyHQcJ8aKFMkZGmNHrvmn4LXeruRdTAP/3rpF+l7n9wpp61o5eqxv185A7Mn5EjDB41+aDH2zZuLR00FGGsQjlGgFwp438Fy/GmXRmq/uW+WBdkxAYcayZSKNJso0i5lTPZT5Z1hRiTbZihGnfcKzEkxWD53Hq6MdeDC6EB1Nk2L+vGWw9h78ol4cLAZ+G01lq7Ng17YsBR+bAMUFZk8Igs3XjRZ+pz6wDJUDeyHFzJqkaMaY/bCn4uRn52DvFMSkGFuxxJnN6ZcpNl4kXZjRZotF2k33GC7DA0pkkVFTsxf5ZSaewXQCF/pQ5VPg3StBx9PjRPCciNuLo/FCX3i8KchMVIb5JZaKbnNjfvLcMfSYqSmx2L1/Azc/vUOPFYdB5/JgGjhL6mugaB/raJU+tkEm1RDGemUiTSbINIupVlKu6FoN2Gp+Syw9s8PrCMJGjbhj//4AhsK7Nh42kmIKShE719XwkfztkkHOGDPTkfuvBPwWh83Ynfuwt2vLodv5nj4Y6Klth5tgQpo1XYXyitdmNI7Du/OSYOnxoHxjy7Brtlz0Pu7hYjNL4RPqssTxuTxYPfkcahMT0Pe8VHIpFF5IxzS9brPAxmN9zR5Z5gRybYZirNu+gCHROa4ZM6JSN2ei5TdO+HXaOHzelEdG4+iaZNw70Az9ny4AD+W+FAzbhSEPwsYXGsQdl1R7USCSYt3TuwhDbyc8uBylPbpjZw1a2Apr4BfJDytSIRFQwejOD0D+0+KZ2GpIpzTLttlHVTtTNXdCuQRXcIu1K5xx+4izP/qACpzcvDFtFhsW7wRN1XE4rKBcbh/bHy96Y6bgvwtRTdX7jyM877aj9heGVgzPw1/+2onnqyNwVVZOjw1KREOqW1ZALo3qs1T7jD4fiMJeitakXbp6X2NpF0Wlu1EcVkN1u2vwOmFibD7AIOrVrwUjfTyabggik34bTF4bZAPcUJY3v7WGhw8az5STMBQm/gDSWdpPYeKq7Cmwg9LQgzWzrAgxu3E6Id+wb6Zx8PgqDpiCBLiT+02WkHTh++daUSyPEZmJMPCMvLYd7ACP+UW4w/evjDWViARXqmjjoOG9/JqYI0OdOjJ++QnLDXEIrf/YFzSw4g4Y6CtZEuhpiVv/LILhQkp+M+EWJyfZUDq/ctQOmgAYvUaGIXV03XJHxb59PCI/CJ/jk0IyxZ6yAiAhWX4QuLspxV7cO/LS6CLseKE8b1w03lj6/ssFZt2FuF0ISzLc3rhi6l1wvLSgbF4YGxCi5qLUO3iCx+uwZb8clx/0STM/3An4nLShbBMl4VlLK7pocXjExsfGeXp91bgy2V7UePy4Z5LxmPW+JyIEpksLDsZ6lTzxC4nDghlqW7v8duafdhR60Nlv0F4bYBbFparsX/+Sfj7YBtu7Ss3qmoDn/+8Hf+3qAiVo4Zi0/GxiBbCctSDv2D/7Hk4JboWfW3aeh2D6M+dadbgxr7miGy3FQwLy8ikVhT23j3ghvANwj4CBrJ8fR6+zy1FzZCBUqeevE9+xC/6WPiEbX00Pgrpwm5ak1mSeZ1y7w/YPHAInpiajAsyhbCkqvDBA/Hnfmb0EiU85doGrRY2nR9nZVCv8MhxUs3BwjJ8oTGXj7/mLWhHDMLuuBT4SsqQUVSAmNJSaZSFeojPfpcbuYOGwTewDz6fGtMmYVljd+Gvr6/Ed5p4PDknC9d/vhMxsrC889vdeLgiChl7diFnZ640EkswGo0PBdY4+Ab0hcNqgWXHLqy6bQZirW334d0NyrGaE5YsLVoJNSxetaUAW3YXS1Xgaihh/62fCc8Mt+DpYeYjy8zD+5CUu1N4D/lAFW3R9TRY87INB6TB0ht1QeJaV/c04ImhdfdBC93bbf3rRCU9Az3Lqi0HI27qOCa8cbo8OHCoElv3FONwef2B/6nN1B97GvF/OUZpzFlapnsrELd3b72CGEHjvcYYNEL4AVEtWPwOF/L2HxbXgDQXsSi9y2cS3wkHqYUPv8+qf+2rexlwUQ/jEVFJ90v3TfdPz8Ew4QZpx1qfDr8OGouyqBiUZWcjf/JE6OZOhWZO/UUnFs+sSahOSYKOxl1o1PE1j12vR2F8Ag44xQeawkfGLw3t54e3TzZ0J0xrcA+0GOZOR9748chPTkWRNQY7J02TRm9h6sPCshWQmLvw9v/hqvt/wHn//B5/fnM19hdVYV9BRaMLzbpR6xTORT5He7B4zT786fFf8e7aQzAZhfcKOrnykWYGCXVPykKDOj/46hJceOeXuOj5VTjr7q/x2/o8+dcM073534/bcOr1H+A8kb5Pf3EVvttfg7ySGml8y1BLVa1TiED5xypIF3pbUQB8/fN1OOPRxdhS5ZV6swZ7QTpVeZU95D0oy9UPf4/5jy3F9IeX4IOftsu/ZJjwgXzXPVcKwWavhsFuR88oAzQmI4yZqTBmpNRbDBnJ0Im1z2IJaaOtgQp6WiEiheesB9VeaYS9+m22kPcQuI8UmKOtMNTWQFdrh8HjhNkUfCaGq8JbweX3fIV12wsw7vzj8B9HNDxGIww1Nei5fBWiikvkoxri93ng6JGBbaecLPUKV1eF3znIir/2a13v7G+W7MB1n+9D8bSxeDSuHP9YuB8Vo4cdqQqXOu8cPwd9Pv9G6kjUFNXJycibOAbuKJswcCemFO7Fz9eNk78Nf7gqPHwZff5/MGJACpb0HID9pijoXC7EHshH4s7d4qU0LFNTxKI2MQ4Fs2bgvkF1VeHaMcPwxUQb0lvYJplGgbh7hwvX/m4MFn64BLl9B+CxaalSVbjUead3b/T8dRksNLNOiPsQqRKH+/aBp08vuHR6GPILcOi6EdLQZpEGV4WHNw6PH/fl2rGp0g+rQSs1BTkjPXSnUmnmna/zUd677W0sqSr8L2+vxQdRPfDoiCg89G0uYnpnSlXht321E0/UxuD/snR4QjXzTjDv5bvxP7G4hXQaFavFX/ubI2ryAhKMXBXejtB0bH6NAZ86ouAWJaf00mL4Y2ORP3s6Dp53Wsil4PzTsPP0U7Br7Nj6I5sfJdTjvBp6uKj1f1DZwEu92cS1SmdMDHlPylIglr0zJsMVFYWs8sPwWC3YkRXBU0AwYYVB68OWPcXYmZ4DndeLxIQolI0YBvcZc+E6fU6DpWzeTBwaOQKBAMTRlbfJlmiQc2qnpY6wULREY9BJ1XqN3Ydr/lwUDx4k3YLH4UJp/wHUvUg+A8OEB15Rql+0Yjc+v+ctFH74A84xVUmikvxX8KIcrwwB1FbMRj1mjs2BxWaWq76DoZ7o8vUauY+B1WXIe+8HbHnlC4wtPdgg8smwsGwVd105DeMHJaGmogrQG5HcMwV+nR49ogwYmWzG8BDLsCQzkuCG3mEXXqV9SzUaPzXuaGho1NuOrtUr1oBRKZaQ90XLCLFkR+vFMxhw2CuSgnimHHG/DBMOvPD3U6TemtraKkQlxEBnMUnzEZ/SJwYn9Y5usAwx+2CqqJCi2EeNOAlNBhLK4qm3+JRMa6P3cUrfWCSbRcFR2LHHaIDN6xDm3L55B8Mca6jt8N+eX4LSyeOwZ8QoXPZrOc7/cDsefGc57ntnZYPl3e83S1M/Ho0l0Ew6xwsffs+wKGRqaDSIOglEm6Q1V+0owqPvrAh5Dw+/txJni3vcJwqgRZPG49Il5ahwuOUzMAosLFtBQqwFj9w0F68dl4KJFic84vVNjvLgk3EWfDvJhu8bWX6Xvw3p6zZCGsG1XdAII2hmDEpxrX8NMOGbidaQ90QL3fPnE22YZHMjKzMBk6wu3DuYB01nwoNRA9Ox9LU/4OlRVvyuhwknpRjw+BAzHhtqwZPDGi6/8xYjees2qad4aEnYOkLpU+q8oxPf3NLX2Oh9PE4d7kZYcOmQBFw+KBaPiX1tmLGOYbo0FP8wCndzoE8/OPQ62M0mfKRJwsPeVDzqTam3POROxgvRvVHaMxsGYQtHU85KNWlxVS8jkg31459U4KPPK00J+JcrucE90HKfIwm7Bw1GrU4Pv9WMogH94PaycQbDwrIV0Kw2tzz2PR78+3vot3Ah3hvkx09TbBgc3bmvcWjfFEwemggYTPAeZY+0eEct+iz4EdZ3P8WIxb9guIF7oDLhwdptBZh68X/wn9vfwFR3Kf4vx4DTGmm/RZCz0rRDuPK4CTno2yspUHPQyOkM8qQFjZFRcgi/vPglfn3pS4x3lHJGzYQdFrMed14+gwZ6Rq3JAk1sNIYlGfGv6Zn4+5T0+svkdPx5cAxiaqulKvGOwO3xSdMij0824d5Q9yCWf0zLQJpG3K9QxNV6oyjw+WE2c2V4MNx5pxX85ZHvsXhdATLG5uCX2B7UYANZ0Ub8QV+KLE3ocDhN6fjet5uw1mvBTnlKx6PtvENsrfLips1O/N6ej1sWFaBS1XlnzEOLsXfeXNzu2I1h/vrDrKjRC+f20uJ9WN5zAHRRZrirnTjBUYgPr50kHxH+UB7FnXfCkwkXvizNbOOZNA77/Hr06RGPIX47xvlrQk5IsGZrPhYVOJE/ZzbuG0QDpLet8w4Jynfz3IgyaPDkSz9h24AheGxaypHOO5X9+uIv+mJkwymObXhOGj7vkVWl8PfOkuYqt5aWYu8dU6W5ziMN7rwT3lCzxS8L3fi00IP+UTqcmKLDyFiK6Tdk045D0gDpFb1z2tx5R82KHYGZd+oNkF4Tg2uy9Xh8YkLIeyATXFXmwVeH3MhzaDA/TYeTUg0RZZv0XrjzTjtSXUtj0rmxs89AVGZkwuPyYKs2CneWRuPKvUZcud/UYLl0lx7f9hmOghHDAFeopNo2BkXr8PVEK6I0wkUG1QvoKJWLaz1RqG/0vmi5TNzbLwNGoCo9HXFWI6ozM7EkPks+C8N0b9w+LYb0TcPazBxUJSZifTXwtiMad+714659aLB8aslA8ZBB8tRwbbdVatd5QQ8j5qcbYPDV73ZDnXfcYsfzBzW4c0/De6CF9h8YNhRl1ig4UpORP3TokYHUGSacIFd1mrCTJ4ZacEMfQ0BUiqRud7hRVuFAeWVgqbW7UVntCu6nepTQ1I7ypoA2pRm4nG5p8Hbl2nQfdD+KIY+N1+Ov/S14dIgJp6RFlqhsKSwsW8EfTx+O+BgzDpR7IFQlsq0aGDR+mOKikNQrFYnZKQ2WpJ4p0CbEwmUyiYTZOc7B4xFiU1wrJjm20fuiJSknFZooC/0ApQdKoBHPlJLe+DALDNOduPWSCVi7vUgKAVr8PvRJiUJ0jAWTxvXG+NG9GiwZWQnw6amq/OjtVHFYoc5kMAjBOyij0fuYOCYHWp0O7lonvMLBhR6SiGHCAzKVOANglofsoemRn/9kLW59bTlu/O9vuOnV5bj+5d/w/NebUOnTSAU3gipbaSkvt2PX/lJs3X24xcuOfaXYX1ABr893xEa14vo+8XlpbjFueXGJdN2b/rsMN4v1w59swMHSuto/mnU1zhCYsplpCFeFtxKanebF3Bo8WWJClV+LDKMfb46xYlpi4223bn7se/zvgBO7Tz+13arCFRqd0vGEefhygBsnixJVU/x4yIWL19TikEeLWPEITw414/c9Imd6Kq4KD1+o12lBSQ3+vseHNXY9UoU3oOFMrs4xgspewbz2vzV4/Od92D9vNu4fZGlzVbiaOXd/g42DhuNxVVV47aB+WDAtBmPidSHvg2TkQ1tq8MUhD+xCVM5O0uPx4VauCg8zuCo8NKu2FuKilzcid+qY+kP5CKni1umRoXXj42nx2LdiK64psMJYa0d68SFoReGxpWKGuuk4NToUZWSiV1oslp+ahr9/twsPlkfBazbD4PFIHe0Iatqi8frwSj8fLhmVKu2LZOgdc1V4O5OSYMPfJ6Zg6/Ex+G2qFTvnxDQpKrs6x6UasfeEOCybZsOW46IjSlQy4Y3JqEev9Fi8OTkeL4604uWRFmn6RINwGDR1YvBCvUK1wqEEssyOxaan2o7Q92ESy51DbXhnUgxeGmXDUyMiU1QykYnP64VXI4SdTodbBlrxy8wYfD89Bm8P8CPz0EHQPHYUDhs5IA1DE61wZKThwIjhyBs1CgdauOSNGi2NWetLSUb/+IDPc3v8UuedsxJ8WDI7Trrm4lkxmOStlMaNtsvjWDLNw8KyjaSYNBgTpzsyDAjN7bty80Gs3lpQb9m0qxhlVTQOXeA4NaH2tZZQp1DOS9M2Bt8P3WNx0LzJ9Az0LPRMDBOOTE3UoY8tkN3tO1iBLxftwKdi+eTn3CPLpj2H4RPOTA1Vu5FVtHW4n1C/o4GWv1+1H5/+rL7+DuzKr5AcJkHX7Sfud3IC9zhlIg8yAz18GByjw8QEPWYm6THA6IXZbhffacQ3fgzolYQvTkzF9hPjsfmkRGw6MaFVy2axbBG/fX5iQuCikq0K8ar3YZzwh3TNCfF6JNE4stJg6uwfWwpXhbcDLrcXl/3jC2zOq0ZR/z7SrDz18HrgibGhrO8gvDbAjdidu3Dn22ux86S5mOMpwfTaYvnA1kGDvebuLcGX/jhUjBxSf0rHGXPEdXJhqq45EtIPIAxH3N4vfxyOaJ7jlKvCI5CzbvoAJbVu7MroKYSk9oh90EwcTqsNzn69cc9AM/Z8uABfu6yoHjIQ80v2IsrrlhxeS6Hqtu92V6B43Bg8NTVZqgpPfWAZSvr1RcKBAzBKTjKA2aBDtNaPpddPgI3N8ghcFR7elJTX4utfd0NnNmLUgFQMyozFik35uPDVDdg3fSJeHROFC7MCzbnWbS/EOd8WoKBHD9xgq0Rfv+OI7XpU0USDKM2RDlQPS6Sj2ghRrqSopIJergag35IvfHNnNX5IzMbVGRo8OTlJ+o44492t+MKQjGd6eXH12FTkFVZgydZC1Dg8OG1yb6TEBvn7MIfeYHNV4Sws24FahxsnXvsOKrzA9vPOhdOvgcFZK16KePXif6/XJ0pYws3YYvDaIB+yDubhjrdWY+1xc6Bz2GErLwsSfy2HnFdtbDxM8bFYM92MGCEsRz+0GPtmzobBUSX+wEcOFI7TD7fRCp0QurtnGJAdw9XeLCwjj1HnvQJzYjSWnXkuomsrkK73SumgqsaBchekznh3DTBB89tqvF0IbOw9AJmlRTAIu2lNZikyV9gNJlQmJeHl8TE4J0MIy/uXoWzwAKSZNDBT3EWckNLeLpr+URybP8eGDHPb8oJwhIVl+EIBmbteXIT3CnwoHjQASVof/pTgQNWBw0Lk1SJ/4li8OrZOWObuK8EfFxVjSXwPWKsqJHsM9FP1SyOhSLNTCXvykDGLfQHhSIs/IDzF99TcRfKF4nuqOaDfSKOoiM9ugwFOiwW3ZgIPjI2Trkmc/vZWfGlKxrk1BzEnVYdvtpfge2sanGYTjvNU4IMLB8Nq7L7N4VqLeJMsLDsDGprghGveRK1Wj/XzT8cpaXp8PM6KGrkU9Y9/L8D/CtzYe/JJeK2PGxdm6LCrqAYP5/mQ7xDSkP5CbYXsRaz6xhlw/2AzPMI5Sp135s3DhwPcmJ9mONI2JD+vBFO+K0JZWgb2zrKiZywLSxaWkcfIc15AUnYyFk4/Hn/ra8Kt/UzSbDvvfrUBTy/ej/zjZuC+QWacG+2QOre9WaKHV2STbckoyTbjTFrcPiQKY6m5yQOBzjufTonBqFi9NIwQDW806uVNyEvLRN5J8SwsVbCwDF/Ib0679jOsO20OrB4nnCQStTqYamvhMRlgMhnx3JioI+3+ax0evLi9Cu8XUzV5IDK5Ma8C5THx6GvyIlnspKjk2r1lqE5KxkizB1bxmSx3d5kTh4w2jLN5QWdze33IFaXISrMV46LF+XyBwiW1b766jwXn9Kyb2vjcD7fjY00idB43dE43nLYomOAVti0KjjoDCudEISWq6U6y4QTlgywsO4E6YWnAuvmn4Qwh5j4ab5W/bdgr/JIeHZcIaXagxnqF5+47jElfHkJpVib2zrQIYdn23ujhAgvLyIOEJQ239dN0GgjdjNvkURle+HAVHv9xN/addAIeGmLBX3q3v51SVXjN4P74dVYshsfU1Xn3eXot9qZnI++UBBaWKlhYhi9Otwe3PvcLns0YBktNDbQWM0wWI/poHCJD1qFvogVX9bNiahOdY3/34AJ8338k3hptwfxeNmnf2Bs+xYaZM7B9dgxyonTwePy44cONeN6YieJTExBv1Ej9Hi58fyuWRqdh35lp0tBBjfHfTSV4e58DVT6tFPHcYNfB53BSvTo0cdHYf2IcEiNo9h0Wlh3Ah99vxoYdRUhKiMI584YgKc4Cl9PTpLC89YkF+CTPhV2nnYTTD2zC6NpS+DRaaXi64OmpqC0I/UmCdkvCh8L2oY8ngRSYnN8jSlRvFgD75xyHLwc2LyzLKh14/asNOFRWi+F9U3H+3EHy0ZEBC8vw5bBI08+8twIuYWj9x/TFmAGpGBqtw6hzX0BSVhJ+nDkH/xpoxh39A8KSjn16ST52zj0eY6sKMbymBEa9cCI+n9ScRbE8mk3LJxKOep9eq5Wq1Kh6r+E+Ok7sFfb7icMGe3YWls6iiGWdM+r99DrsS++BQuH4kk0aLFm3H2+vKhD5hAa3nz4EPRMDTjPSYGEZ3hQIG/3bkkNY6I9Ghs2Afwy14aTUllcrn/HgQvzQfzheHmHF+X0CNjL65s+xadp0rJkRjaFxQlh6/fi/DzbiVVMG9p4YjyyLDocrHDjvg21YGZuG7aelII0Gpmwhz28sx1N7Xaj26XBDfzOuH2hrc+e+7gjlbyws25GXPl6NFz5aB3dqAnaOGQuPLQq94MBZlXlY8P06eK1WrD/tVCEs9UJY1jmCe174Ge/tcWLbSfOgLa+E1uWUqr+p/aPWIxyRXtWBQCxaavvh9wV6qCoJlvyScGSkgGiauiMIB6elNpzCASrH+gwm+OJi8OUgH05OqTOY7XsPY/JXJCyzcEf5NqQIzbl4Vxm+TeuL2oQEGGtrcX1UJR48Y7D8i/CHhWX4cuOj32H1tkLk9+mDwpy+iDFqcYK9EL8u2oLo1DisGTcJ/1QJy89+2ob/rjqIzwdPgsleA6PHBZdXvD+RNuraa1GgwhfYJ+xWKtWJ/V6vFz5opeo5yYgF0j5qb20IHEdtLp3CNnXCVn+bGY0RKmGZ8++12J/ZE5c78hDt9+LXA9XYkJUj5QETaoqx8PIRETmEBwvL8Idaau2q9krV0D2p7roVnPngAvzQbwReGiWEZe82CMuYVOw5Iw0JxoBtt5R9tT5pBq0ccb9S1hBBUPbGwrIdufxf32Hj9jxo/nAWVtgNiN+1G+W9e0MjhKLG44ZWp4UrIRlnJ3jwwci6UpfD5cH6cg+e2ucRiZB6p2mwYXshdld5UNmrD8aZ7RhsFccJA/h5+S7UZGSh2mzBmcl+WISd0dhaizbkY19yBrKFD5wV74dH/Fkddhe+2VWB2owemBvtQKrBLxkpDZBCf9S/DTBjmKq6bef+Ekz6rgyH+/SFvqQYGqGqaKYRv8mEE2wOfFNtQnpVGfIv6CH/IvxhYRm+jL34HQzqFYW3xsyEwW6X/sgegx6mKiEarUZ4zEJUDrDg9n6BNlw0+cGqwho8ckgPnRCEohiH1dsPQZOaDBh1GGOlPRqsFLbrF/ssJgOGWqitlQZ5h2uwx29ESrQB/S2isOejfVXYpbMiy6ZHjknsk34NJAijfnREdD0nOuiFDchNyYTBIfISYcTOaBusXo9Inz44dAbYT4sVjjfypCULS4bIFb7rvWX7scdBHXAC+8geFuwqw56hI/D6CCPOywnUErZEWBZX2HGBEJa/xPXA+d5DMAn/TdZNC3XEOXtUOqb341noQtESYRl5OdVRMHFIMtxeLTbnVUjjWkWZhEsRbzDeoMEYkweTooGzomswLcYr/yKAWSTUCSlmvDMuCm+OteH10VacVZ2P1M3bJYd1cZYRr42Nwhtif7+1a5BUXSZUjgfPj7ThLfGb18dYMSlvh7RvfCykY98S53mivxYJu/dJ56B2Ym+I/W+L498aZxNrWz1RSfTNTsTZOWaMqTyA0UY3xlo8MFFPV1G2WL5eCGbhxKwxkVnlxoQfM0cmYfuew9C7XYhx2ZFi1CBKFOz6xegxJNaAk1MN0liRCjT5wUmDU/DTrAQsOC4eP4ql18+LMFpXi0mJBiw8LkEs8cj5eTGGapw4Md0gjgnsu0lXBGvJYZyfbZF+v3B2PG42FMNSUYEr+ljws3w+OvbDSbENIjMn90/ASK0D/awa9I3WwCAcnaamBrrKWphFVi71eGWYCGXjjiK8sr4Eb1ky8bo+A68bMvCSJhW7BgyByxIFG9UKtAKLSY/0+Ci4YmLxtjYZr4rz0TnfNKThJW8iPt5dKR/JtAUWlq3g8jNH4/bLJuICXxFi4MH+fkORYfDh55kxWHZ6Jn6el4wPhaCj2T26Ks8dn4VVp2dh+fwM/HpaBn6YGoV4nxMlw0YiVuPD21OEcmWYMODWS6dg/sx+OM5ZDCTEwxRlwSOisLbh9HT8OicBH4yz4uyMpttz+QwGuH2Aavg7eI0GYf2QqsIUqn3UREULp88vjg98USPKl9TEhWoiHPXLmg149LgsrBZ5yEZxbxtPz8CVSR4YYqzQJMTgb/2M0LOwZCIYp9MDry0GfmF752QZcHMP4C/ZGtyQ7sUjWXaMSWzdCCcUlfzzpDTcaivFDVniXOJ8d/TRYYTfDo/JhHK3fCDTJlhYtpKz5gzGi5eNw4Y5sVg52oNfp9kwJCgy2J2YnGHF+rnx0rOsPz4W4+O777MwjBqKQN7xx2n47sJB+HqyTRoC7KperRxiqx1aCtEsOq1th/X0zHT8eFwifpwRg7uGRklNNRgmUqHmY0QcvLhqUDTun5yCh2mZmoqbh0Qjg9qMyUh9EQRmXWBNNmylZiR+Dczyeeh84zKj8ZD4vXQesdw9NhHTbB7o3G7JZpm2w8KyjfQQCXlsvB5ZqgQdii27i7FsYx5WbDpwZFmfW4ii0mqpCvqo8QeMZ9eB0nrXoGvStVsCPQM9Sw8LGxMTnoxP0GNkbOO2Srbyy9r9+HxVHr5QLR6LRZrwoC1+hnqOU4OkbQWV+Hx1fr3zLt5eXC8KGoqRMQG7ZJhIZk9+GT7eUITKtFSUwYD1hfWnJFbz2AercSCrBzw6I+5aV41Ktx+/7CjBu8IV+kxmXPzlXrjkGoVgDhZXYV1BLdwWMxaW+vHT7jL5G6a1sLDsQNbnHsJld3+G81/bgFkrvZi1wi3WbkxeascrKQORN35s4MCg+YlbjvB28m+v3eQ5cn5aZotl/C+1eHxVkfQ9wzCN89CrS/HnF5figg0uXLDWEVjW2JE3cSK2aK2wtCFkGBtlhs7rw6dFXlyyrlac0y6d98J1Tpy3vAp5tc3UjzMMgx83FWKxORG+aAsM9ho8v8eBjZUNbYcCNe9uKUd5z55ILTuED4p82FDmxg3vrUNpegaSS4rwoy8K6ytC292b64uw0hSHKKcThSYrHttai6rmSn9MSFhYdiBVNU44qSFWbDRqc3rCEG2DzWKUFqvZiLQoPSZqqzFQ6m3aerJSonHOiBSkHMxDjM4PmzVwblqodFbTqycOOjkKyTDNsSuvFA6NHjVZveBJiIc+xgZ9bJSwWQvSzDpp/MvWMnloJnrqXLDCD0NMlDgnLTbUxsejIDoe1awrGaZZarwaOMzCHkXhTuvxoMinR6mroeCjDm7VUdHw6g1wO9zwGU1S++hyBw3HZwCNKOQxGLGzJrRYLPNo4bBaYfC5xbn0KNMYpPbRTOthYdmBKEEOK83ZJvhkZgKKzsuUluLzM7H39BT8Nj0Kxye3bYYPMqTHzhiIQxf0QJE4n3LuwnMyMHzrhsAxfvZeDNMcBhoH1u+D3l6FB0dFo+zcDHlJx84TYnHf4LoOedJgXkF140qlA+1WvhrcMx4b/zgY5eIcdB7lnInbd0DvDQxTxDBM05w/KRsz/ZVwCJVoj47B+VlGjFSNAavmzsnJ0NntKElJRRqcGBhnwJ0n9Zf25cfEI9vgw7yU0M1L/jA6FcNclSizxSNa48FfBtmQbGKJ1Bb4rXUgB4urxb8aOLXktAL7mqKotFYafFlpA0LzFxMOpweV9kA3tSpn80Kx1umG1H5ZnCa/whXYyTBMSA6XB+zOazRJvbirm6j+OnCoAj6dAdUuL+weSPPwO8X2wTKHNM/x4Wq32CcfHILSCoc06DnNk7VfXLeR5l4Mw8gkx1vx9h9GYOdJ8Tgw24aHRtgQ28gUjBdOysGuU+OxZ6YFm+bFI82kwR+m9cSeE+Ow+zgrVs+Ja3Qw9AEpVvz4u17YPVWPzScm4gx5ikim9bCw7CBy95XgqbeXo3jgAOzpN1Aar+TRnQ6UqccoUUHV5tc//C32DhmOwvhUwGDEWSuqsEs4rD8+9iMW9R0m7VtQ6sMN60iwhsbt8eKuV37Fjqxe0jU/cMXgjlWl8rcMwwTz4CuLUWG2In/saCH4tFha4gtZTU3Tqf7p8YWo7JuDXIMN3x9y4aW9bnz883a8WehHbVIiPir04M08lzTQcij+9d5KOBMS4DWZcMVv5dhd622PjucME9bYjDr0iDEiM0oPSxNDLFBtQVaUCb1ijUJAaqXPNLVqlvhtL7HEy7WHjRFn1iEnzohUmz6ipmlsb1hYdhBL1+ej3BSD/HFjYPF5kbJ+Lb5xReHzQ6HDGYUltdhR4oJ9YD/YtD7E7duP5d4YvLvmEFaValGT0xs5JQXQOj348LAORc7Qrquq1o1PD/lROWQg5tjzoXO5cX+RBbtpUD2GYRrww/pD0I4ZAldMDGwFBVhS5sEzuxtG+mvtLmwvdcPXqwei3C74yyqxTBz7z8+3Q5udgQS3A5paBxYccuOQM7RafKfSCndiHFIry3DQHI3/FXjh4LAlwzBhBAvLDsJm1kPj9cIoFpp+0RsfK80XpZWHBwomPsYEq80It18Du/izOG02qSo70WqExmWXtkt1ZviMelEs00rHhYLmNLZSqF9cZkulV5pX3AovTG3o1cowkYDVBLhqhCgUtqnV60AV1ZYQTbiibSaYrQa4NTrYfRr4TEYpehJn8KO22g672O/X6+EW9mtvpDrdJGyRpml0iXxBKwSlWcuz6jAME16wsOwgzpk7GFfO7oW+v/wsBKYH9pQk/CHOjpNSQ3fUSYqz4sE/jEPPbZuEl3NDE2PDGdE1uHh8Gq6dmYnE7VtQazTCKhze33prkGkO7YxihPN7+fyh6LF9EwotURB+EJ+PNyOzmfE2GSZSeeHWeYjasg1Rhw+jNjlJ6kx3UY/QA6k/edEYWHfvgkcU/KzRZmlCgVeunYqYslI4dHrohf2dka5Hb9VUkWpeOTkH1sMlKItNxLwEv9QRwcymyTBMGKHxt8so3eJEPKF+A3zi1Xo8PlCtmF6nhUmnaVbJO90+OLw+6PV0vFZq50Hncbi98Pg1MNB+GnahmSCHU1zXIRaDQRuYdYAJCdVC6j4XJSzxPr2nyTvDDLZNprsSzmmX7ZLpjpBg1Iq0SxLE10jaZcXRgdC0UEaDDtFGnVRl1pKXbRJCMNash00ISKXxMJ2H5jaNMcnnaUZUEibxezoPi0qGYRiGYToLVh0MwzAMwzBMu8DCkmEYhmEYhmkXWFgyDMMwDMMw7QILS4ZhGIZhGKZdYGHJMAzDMAzDtAssLBmG6XA0OX9osMw6/yH52/p8/dOGBseG4sV3fq53TK+pN8vfBAh1HmWh70LR1G9o2ZSbLx/ZOOpzNHad9oLeofq+lOuGWuh9NYb6npXjLrnpFelz8HtlGIZpChaWTaBk2sry98c+kb9pH+h8yrnbk1AOQdnX3tdimLby87JtUnpUizUSNSdf9oT8qQ46Ti3SyHauvuN1+VOAffklDc7XGHSNjhZ9HQ3dP73DF+67BEP7Z8p7GYZhji0sLBuBHBRl2mrufeaLdheXDBNJXHzmFPj3vIqv/nuDvAf4891vyVvAA899Ka1nThwoHUdLz8xEad8jL30jrQmyRUI5Hy0Kj7xYd5wCia/g677/5Qp5KzTKb9RLVxJw9D7o3Vx1wUx5Tx3q96IsoY5TOGnW8BYdxzAM0xwsLEOgFo/kiCizpYyaUBwawzBth4SMYlNKAY4icBR1JM47dYK0Ji46Y7K0Vo5TV+mee8p4eSsgpohFy+sXCNXQdRX2HwxcqzVQNJQKnbQEV8XTd/QM6ogrbVPNAe1XH0fr8//8wpF9yjMptRiNNRNQUKKVt11ziryneeg+lOsR6hqT59/66cg23QvVcLzxyVLpOCUSzIVqhmFaAgvLELz5v1+lNTkqxRHdctWJ0ppQnIDaydCirnpWO5JgB0RQJq0WqbSfMnOF5qrh1U6BFroe0VqHoHY2wc5M/QzB5wl+dvW9M0xLmDymr7wVSGt5BaXyJ6BHeoK8BWSptum4A6rjsuVoJpGdETiO0j2lz1AodkJkZ9T9ti0EV8WHipSGQonQ9u2VIkVmCeWZ9h8MrG+5si6/CUVT0crG+FIVrVXnP1R4VqLCDMMwRwsLyyDIISlRE8VREeoqMMUJDJt3p7RWoN+pxaVCsANqSugRdI6mquHVTkGhLW3G6DrKsxJ0TeX+6VzBbd3omiSS6R0FPzuJ2eaei2EaQy0qOwKyQSoAqdO0urAYCuU3yhKMUt2siEOKgFJBVF3dTtt7lzwqfwqwJ69Y+t2/bjoTU8f2k/YtWbVDWivRVnVkNRiyzeailWSP6nun31AeFlzzoi48q3n9scuPHEuiU7lfhmGY5mBh2Qooc1UyWLWI2vjdvVJ7LIKEWrDAu/NPp0q/U6ICFJWgc9B+BfqeMnP6rSL2lGp4BSWaoY6o0veKY6M2Yy11CCQQ1dehZyCU+/9tzU7ps3IO5fne+2I5lspOkKDvFEeq3BfDtBaKUKojkY1BAlSxg6bYryowhYLS7dG2l1QXPAkSjC1BqdonJo0ORG1JKCqFWsWeG0Npa9qWtpCUP6hpTlwzDMO0FhaWQTTnkBTUzo0c1BQ58kAookxBXZVHNNW2i6IH5PRoUSIJ6moqdURVqUpUoh5NtS0L5tfVdfdI16FnUK5Dzlu5Z7oWRTzI8dM9/fTuX+tVU9J3dDx9FxyZYZjWEGwnoaC0FyzoQqGuIieoYKQUngilOUtTBHfeaS/Uz0m2p9idUpWubl8ajBKtVBdKQ6EUOpVFHZVUC9ejFdcMwzDBsLAMItghqVHaI1J7wrY0/G8NyrVoUYQkXTOU8KWIJDmP1gg79f0HX4ciRxQNUTsgqkKkY8ixkZNSoqKEUmXYEmfNMArBhRt14UxdNR7cplKJ8hFqewgu7AVD+5Q0TZH3jqKpPCQUMyYE7kkpGKrfQzBKtLKt1dKKMFVoqm10SwQ8wzBMMCwsg1BH7tSOKjhSeLQN/4lQERq6jiLylIiJOmIZymlRtTz9Rmkf2aKIjur+1ZENWhSnRdFJ+qwWmNf8/Q1pTVVq9F2wwGSYlkACR+lkpqQhte2phZ/SxILSIR2jjr6phwwKPl8olOi+UvXc0bSk7ahS80A2rzxjKOh+WxKtbAr1kE0EvbPm3oOS7zEMw7QEFpYhUNpAqTNddY9PiuapxRsdo253qI6otJRQ16HIBe1XZ+xqp6NEfJSG/0rkQ6Eph6DukatcW4mSklBVeqXTNglMxZnROSnKQd/RmgSm0v6SUM7FMKFQOpWoO9Go2/0pHVJIQNFxtCjpWN1TWkmPyvloUWiq3eC5qmrm5npxB3feoWXnviL528ZR26hyjqZQt5VUhG8olPttSbRS/V6U5fc3vCS9VxLvVChUaOw9qAu+9Hse+SEyCB6RhJa44ddg/hX/brJWqqCoXEoj6to2+g0VIhuD/MvIk+46cjxth7qGEjwJtdBv3v285TUQdE/Kb5VgjBq6X/X5mdbDwjIE6oybej9T4qKMmlAcWvAxSrSOMm11RKUp1G0V6Rxk0GrBSvuCe18TwU5VqdpSHGpLHILamSnPqDhwejalnRf1HqXv1L1IlbEDlesrz95UtIVhggkWOASlS3WvagVqH6m2K0qj6gKNAp2vqTRI3ykReEq/TTm9oyHUvTWFck+NFUqpwEb3ezTRyrc//U1aK+JdnY+8+UnDjnfBzWGYyKWiyo7PF6yV8vpQ/oRE5aDjb5fSkjqgQb+hQmQosUj+jvzK+q158h5I241dozHoNxdc/0KLm2Kp+yLQvXIwpP3R+AXy9lGh+Syw9s8PrMMBSviKaCPIWagFGSVItfAjR6m0cySHpURllN9R6YgSMmXWFAUkyIDIGAllv3IcoVTr0THq86t/R5AzVjte9b2rz0GonTkJQzXq76iUqAhKgs6jRJfIiBVBSaifqTvhE6lf97koYWkA72nyzjAjHG0z3CA7VNt3MIq9BwvxcCec025XfbZgvxeKh287p14NQrA/CiY22oKtC+5Hekqc9DnYf4RC7dOCfVEo6BrlG56TP4VG7ZcVgp8l+JhIs7nmIMGoFWlXuEz4Gkm7LCyZiIaFJXMsURciKYIYqppbKcA29n04w8Ky81ELSyVgQGKLooIUuSTUhaDgAMt1l87BU3df0OA3agGnTvd0jXeeugol5TX4/V9ePBLBPO34Ufjs5euk7WBhqYi9YIEaHGAJ5vp73sG/X/tBuqbyjOrrECwsm6YlwpKrwhmGYY4x5OgaE42nyE4u0kQl03UgsfbQ386RPwWqkJW2/er+BQSJSoJ+M3/OaGmbIMFGkBBVRCVBYpMimdRM5f9+f5y8N1CN3hzqGsSW8NkPa6Q1NfWiCCfRkuso0L1TdJbanFItA63pMzUFUFC3B6VnVj7TWv0dtQul39I2nYdEL51H3QY0+NzdBRaWDMMwxwiK+lBEpKlmJMoxDHMsOe34kfJWgM1CZBHq4cBGDOohbwVQ9xlQJhAIHjJv1JBseat+vwOChFxTtLRdJaEWtNQxdtSQntI20ZLOP/T7qWfdJ1X5K1FYWtPnSWfWjZGrhsa0bqwK/7aHPzzSfIDOQ5HUEy99vJ7Qpe/fkttGdydYWDIMwzAM0yRK+0iFUDNlxcfa5K2GqKOUaoLPq6axCUuUiJ66GpwikE1Vg3/zcyBiStX4FB1Vj8CwbO0ueatxaPQEdbU+FfYUIU3PpkRk1Tz9+gJ5qyE5PZKlc1DTAYXyylocXP5EvU56m7Z3v85FLCwZhmEYhmkTldUOeatlKOKsvXn+3qZHYliyMlBlP2JQIEKqHoGhJbPWkehThKTSVrQpIU3Qs5JIJAEZ3JRFEbYxUWZpTZDYJKFdbxKIDp6MpSNgYckwDMMwTJtQC6OWoLRtbE8ognj+aY1PhUrtFJUq5qnjAoJOHd2kDkPNVbtTB5+3nrxKijBSByeKmKp7z2/e0fD3FB2NxLbRLCwZhmEYhmmSYOE1uF/D8WLLKmrkrYaQyApFU51TGpselSKA6rFilWhkY/y8bLu8Bdz6wAdHqtLVBHdCCobac1Lvd2oLGWo4psoQkViKQEYiLCwZhmEYhmmSYOE1bGCWtFYLTIr8qYWielpkRWSpO+sQatEXPAVqU5MdqDsTUTSyqYjjt4s2yluNE6qNpAI9018f/ED+FBhSiSZtoNEcmIawsGQYhmEYplFIdKmFFbU1VETfzIkDpLXCg89/La3pN8rwPoRS9UxtCNW9x19692dJuJEwfP6tH+W9gfElm4LOoz7m/S8a79ndkjaUTR2zdvP+em1DaUilpkRvpMPCkmEYhmGYBlCVL1UZ04DhamGlHm+SBJ4yuxtBVcXBv6F2lb8/fZK0Tah/T9fImHCDVM2sDI5OtGSMSnU7yTf/13BaUoLG21R6pCu9uZWFemAr0L02FbVUQ+ekZe3mffIeRg0LS4ZhGIZhWgSJyGDR9+Bfz6oXhQyGBldXDytEv1eL0WDou6aGDlJQV4eTeAw1ruV3qmrwIUHtQoOjpzTuZCio+l7d6Wja2fdLi3osTKYOFpYMwzAMwzQJtSekDjOvP3a5vKcOEmjfvHajJAjVnXSoqpqmWQwVfaTz0FA8amFH241dIxTB1eHvhagO/2LhOnmrfoRTYcaEunaS6mPV0HW+FM+h3Cs9I927eo5xpg6eK5yJaHiucIbpuvBc4QzTteC5whmGYRiGYZhOg4UlwzAMwzAM0y6wsGQYhmEYhmHaBRaWDMMwDMMwTLvQbsIy1hBYl7kCa4bpDpS5A+tYfWAdjrBtMt0RJb0q6TfcYLtkuiMtsct2E5bZ8hBP+xtOl8kwXRYlvSrpNxxh22S6I+Fum2yXTHekJXbJwpKJaI4YiTWwDke6qm3OOv8haYYOZfn7Y5/I33QeHXltOqf6+eh5mZbTEgfWnWGfyXRHWmKX7SYse8qOuaONhKZcUmfWwUtLp2TqDtAsAspzNTXBfkcRCY5xf21graTfcKSzbLM1UHqiqdzU3PvMF8dEXHYEl9z0ivQ8auh5WVy2HCW9hqttdkW7ZJjmaIldcsSSCUmkOEYlvYZrVIToarapFo80KwfN2atM7xac5rorb3yyVFrTc9Hz0WwiBNlQqGnnmIaEu22yz2S6I0fssjOE5Th5GtBPDgbWHQVNyaRMIK9MHUVrZV9L5hdlmidSHKOSXpX0G450lm22lDf/96u0Vs8HfMtVdVOjqdOXOmJOiwJF8JV9ilBVqtZ7Tb253mdaU0Ep+HjaViBBS5+VmgF1bQEt6poQ5bx0HuW8atTHZmckSGua0o7yKbKjKWP7SfsIOof6OuqaCXoO2kfXUK5Ji/r9BP8+uMZG/R0tCur3p2zTdYjmztlZhLttdjW7ZJiW0BK7bDdheVwy0D8K2FkDLDws7zxGtMQpBDsbOiaU86H9yj71eZVMWKGtjkjtMJRjCDrf1Xe8Lm0Tw+bdKR2rvo5yDeWzck/q78k50e8UlO/UxwejvvfmHKP6ndGiRtlHz6Q4SVrU52/KiamdHy2KYCDoOGW/cpzy7lrKD8XA7lpgYDQwM0neGYZ0Jdukv9W+/BJpW0lbxND+mfIWcKCgVFqr/94K9HduLVQYUgpKRHNR0WDbI06+7Alpv5olq3bUO69CtlzgJRTBSuxd8qhkR8qzUnoNvheyc7UNEHQNegaFB577UlqH+j3dJ71joqXv7893vyVvNX/OzmKhsE1Kr5RuKf2GI13JLhmmJSwQdrlLpNcBIt3OasJntpuwJM6TfcO7eYH1saClTiHY2dAxwc4nODNVn5eOVc7ZVkdEGb/aYRB03dYKpMZ45KVvjjhxItip0L2oRadCSx0jiUr18xB0bPB7o3Oo74Pui2jOiZGTVUPnCOUs1Y6xNbwn36aSbsOZczMC62Npm82h1Dr866YzJdtR0gxVl9OiEGxXLUEddScojdE+hTv/dKr0mdK2ItxmThwo7VOq6d/7Yrm0ViDbpXOqz0PQOeh8asguaFGLRiXtK7UCdD3i/S9XSGsFpUZGOafyXig/IZTfK/f5vrjP1rw/eg76/euPXd7kOTuTSLHN7mCXDKPQUrvsEGFJF/fQTOXHgJY6BUL9PbHxu3vrOZ9gFCeiVMEr52yLIyIHo874aZ/C/oOlkoBT3wvd20/v/lX+1DLoesrv1GKV9imOho4JFoItcYz0G0VUKk5ZeS/BTij4vezJE8UeQVNOLPh+lXdB7yw4okPno9+TIGkpLp/4+xwIbCuZezhzXlZgfSxtk9gvp/nmUKKWBBV01E1cfl29U95qGUq6VNPYfVC6VuxyqhyZnzymr7RW0q0astNQUFoMlZdQwYnSrzoNK+dXrrf/YP17y+nRMGRH95mdEXguskOyTRKGih205v2p88CmztlZUPp8V7bNcBeWXcUuGaY53MJnKnZ5bmcKy0HRwHSRL9V4gX/UD8R1Cq1xCoqzaaw6jgh2Pj3SA8cqGT2ds62OSN1WVMn0QznAo4EEnfJMioija9A+taMJ5WSbc4xL5fMRk0YHnnfGhEDEhYSxGsVZKSjvqyknpj4H3a+6+v23NfUd40VnTJa3Ws4924FakU6pCpyqwsOdwSrbpGc/Vqij4cFQNJrSAUXCg9NQZ6G2hXvlaL1SG6GkW4Xm7JVsXbFx9bEUkcxTCT86P12HrkeEyjdCQfaihs5BC9Ga96fOA5s6Z2dBvoPSKaVX8inhTFexS4ZpDsVnzmiBXbarsCT+EdAWuC8XWF4W2O4sWuMU2gM659E6IsWZ0qIcHxyxaCtqQac4K7qGcj0FtZNT05RjVEdESGzS+ZQIZkvvv2nH2PJ3kCUL/payTKTL+0X6JO4eEFhHAopt3isyiBXlge3OhgoJSlpSix91AY0KZmqx05EE26Ra+CqRePXSEqiqmdKxupkJNSNRoLStFFIJpRZDWdTHNkeo+yJhfjTvr7FzdgbkM8h3EEp6DXe6gl0yTFMsE1m1Ypd3t8Au211YUoPOG/oEtm/dHFh3Fu3hFFoDOaW2XpMcKTkfcqaKYwl2cmrnc7QoUVa6RvA9BlfntcQxqsWcUpWvLK2psld+oybgGOu/i/ZESZc3inQazp12gjmWtqlGiTBTQYTsgHjkxUC7W4LSozp9UeEtuOo4uHaBaGmkLxSKyA0lfBV7UAo9zaEUuqiZidKeUX3/VLOhrjFQjqfmH3SNUO2IQ6HcE52bbEhpoxlsn6HeX2M0dc7OQEmXlE6b6hwQTnQVu2SYxvjrlsD6RpF1tMQu211YEg8PAfragF9EXvRo65pDHRXt4RSaQonsKQ6MxFpbr6l2pFTNq47YhEKJjAaLTcUxN4dSTa++hnKPivNTaIljVFdNK++FBCGdL1SHoFAo1w/lxNQRF3rGUFXvbeERkR4Xi1dAvTEpnUYaim0uOty5tqlG3V6POmhRGlCi3UrbXhKXil1RRJwWheCCkFJT0JT9NIZS4FKaY1BaVAtf2qfUQCj31hz0fMq9K9Xc6vtXnl9p26jcP62J2645RVo3h/J7pcaA7JU479QJrXp/apo6Z0dD6ZF8Rr8ItM2uYJcME4p6djlY3tkMHSIs9Zq6jOEWUQJ7bX9guzM4WqfQFIqTUByYktm25Zpq4UTONbgHNKGOhlJGHxzJoH2hfheKc1WOge6RFoKcT7CjaYljJEGtCEHlGEUc3HJl3ZiETdGUEwsWH8o7pftSR3taw6siHSoRAUqfOpFOI41jaZtq1AUJBYrcq//uoaqE1dFtdRtgOpe6E0pLefqe38tbddA9BNsufVbfW3PQvQc/H31W3z81BQm+Z3qmpoSfGvp9qHeo/L659xeK5s7ZUVA6pPRIPCScF6XTSKKr2CXDqFHbJYnKFvtMfwfyz21+Pz4NLG/lyTvbkZ5TbvKj16XSWs2dj34s7VcW+qww87wH6/1GfSzxwts/Hfn81Y/rpUX5rPyWFvU5idZcU0G5f1ouvvFlaQk+Tn1eZb9yHC30vXIe2k8o3ymfFTZuP3DkO1qC7ycY9fPSQp+DCT6G3peCsk+5D/V9KwT/nt6/QlP3q/67qH/TGG+K9KekxX9tl3dGMP8U76AjbZNhWgqlPyUtUrqMZO7pYJ/JMC3lzf0quxTpsjVo6B9ZY3YId28D/in3dntvbPPd1LsaVDWmROuoLWFbo2XMsYOG8jh/VWD7rgHAPfUDMhHLXcI2/9WNbZPp/rwvbPM82Tb/Lmzzn2ybbJfMMedofWaHVIWroRu6TW6ORxnIk7sC2wzTGTy5u85Abu/PolINOfHbxDsh2DaZzobSmyIqyUewqAwQbJdPiTyMYToLskvFZ5JdtsVndriwJO4fDNwi97e4YRNwxgogjyfeZzoQmij/9OUivW0MfL5VGMh9gwLbTB33i3fCtsl0JpS+KJ1ReiMo/ZGPYOogu7xZtsu/iDyM7ZLpaPbXtp9ddnhVuBoKr163ASh2AfEG4N/Dgd/LMw8wTHvxZp5IZyIzLncDKSaRzoZxdVJzsG0yncFbBwLprEzYZrIxkM4iYUrVtkIznVBedpjtkulA1D6zPeyyU4UlUeAIPMBHBwOf56YA1+QA89MCnxmmrXxaADy3B/hBHs7w7IyAgaQJcck0D9sm01F8Vgg8u7vONs8i2xQFvnRz4DPTOGyXTEcRbJdnCzH51NCjt8tOF5YKzwoBcMdWoEIoZGJ0LHBtb+Cy7MBnhmkp/9knBOVeYI08a0WsPhDCp8yXaT1sm0x78d/9Ace1piLwOdYQaJJyLdtmq3lGvEeyy0pP4POYuEAex3bJtBbJZ4p8vqPs8pgJS8LuDTwciYLdNYF9PS3A7GRgFi1JQCaXaJkg8kUJ/idRwvrpMLBQLPtqA/t7WwMZLYkgc6e0Hg5f2DaZtqDY5s8lwIIiYZtyu8DeNmGbvQL2adEF9jGtR7JLYZMk1vfI+V4vke+RXc5MlO1S2CnDqOlsn3lMhaUaGoiTDGZl0Pziw2MDBtNPZEwpwpFR/T+1m6MlSWwz4Qm1KSpyBhZq90frnULgkHFsqJQPkhknl9wv5ZJ7h9CobcYERGZfkTmxbUYOrbLN+ICgZNtsf8guqXZhVdD84pJdCoFJM/lI9qiyTbbL8KUr+cwuIywVqDqTSrukrOmF1IgSGsOosenqomZU6BgtjITpeNg2meZQbFOJnrFtdjxUnUn2qNhmjVxVzjAKne0zu5ywDIbmqPxZGMshUuFBarxErJnwJFEuYaujYLSQUUwXxsEce9g2I5NGbVPY5XRhn8yxhe0yMulKdtnlhSXDMAzDMAzTPeAuDgzDMAzDMEy7wMKSYRiGYRiGaRdYWDIMwzAMwzDtAgtLhmEYhmEYpl1gYckwDMMwDMO0CywsGYZhGIZhmHaBhSXDMAzDMAzTLrCwZBiGYRiGYdoFFpYMwzAMwzBMu8DCkmEYhmEYhmkXeEpHhmGYVvLhQTc+yHdjS5VXLD4Mi9FhULQWZ2UYcLZYGIY5NrBtHntYWDIMw7SQ/XYfrl7vQLHTh5lJelzUw4DB0TrsrPHhlX0uLDrsQbJJixdGmJFt4Qohhuks9tX68H8b2Da7AiwsGYZhWsispTWYk6zD7f3N8p6G3J/rxA/FHvw0xSbvYRimo2Hb7DqwsGQYhmkBt2914KDDj9dGWeQ9jXPpWjvSTRo8MLhxJ8cwTPtw2xYHCp1+vMq22SXgeDDDMEwLWFLixe+zWtZG60Jx3NJSr/yJYZiOZImwNbK5lsC22fGwsOziUEPks1fWYsiPVdB8VoHhP1Xj3FW10n6GYTqPJaUejI3Ty5+aZlysjp0Xw3QSS0o8GBfPttlVYGHZRaFOAictq8XDO5zoZdXi3bFWuE+LxQfjrFLDY9pP31ODZYZhOp6pCXqsKvfIn5pmVYUXUxJ08ieGYTqSqcLWVpWxbXYVWFh2US5ZYxfGosXKGVF4ZIgZw2N00GuAgVFa6TPtnyaMg9qLMAzT8UxN1OHtAy2rKXgrzy05O4ZhOp6piXq8xbbZZWBh2QWhTgI9rdome7cRt/U3SdFMarjMMEzHcv8gM/bW+vBArlPeE5r7cx3YZ/fhfu4cwDCdAnXEabltetk2OxgWll2Q1nYSoPYlDMN0PNQjfHGpF2MXVePmzQ5sqPTC4YO0vkV8Hif2k/2+Prr53qkMw7QfatskW1Rsc71Y37TJIe1fWurD66Os8i+YjoKHG+qCaD+vQOmJsYhrgbasFJoy9qsK+OfHynsYhulolNk9FhR7UO72I9GowawkPc6h2T0yeXYPhjlWkG3+a7sTB+w+lAnb7B+lxYgYHc4Rdkmz7zAdDwvLLsj0JTW4a4AJxyc338uNHNs/tjmwZFqUvIdhmM6CCoFKDsqFO4Y59lR6/Ij7ukrYpR+pJg0KT4iRv2E6C64K74K0ppMAHTctsWXDLDAMwzBMOPOe8InJRg1MWg0u7mGU9zKdCQvLLkhrOgnsrfXyDAIMwzAMI6BpG4ucPvjFf1fnsLA8FrCw7KI01kmAGyIzDMMwTENohBSnHzAJZXNamgG9rSxxjgXcxrKLo3QS2CgE5fZqn9RJwKbT4LGhZm6IzDDHGG5jyTBdg99KvZj9azXsXiBar8GBeTGI4VZixwSW812cs4V4/HCcFdtmR0uDupa4/Ch1+ZDDJTGGYRiGEWLSj2s32KER/1l1GmkSERaVxw5WJ92Iv/QxwSz+Yh5hPJev4xl3GIZhmMjG6/dj7q812FXjk7bHxelwVS9uW3ksYWHZjfhdhgFxBg0conSWW+3D90U8MDrDMAwTuZy8rBbbhD90+mjMSh2+m8z9Do41LCy7GS+OtMCi06BWiMtrNtjBDWQZhmGYSCPP7sNxS2vwa6kX1V4g26rF0mk2aZgh5tjCwrKbQT3dzs4INB4hw7pxE88TzjAMw0QO7xxwY+hP1fit1AO3H8gya/DbtCip0w5z7GFh2Q15ZZQVGcKQXD7gv/tduGtb0+NdMgzDMEx3h6ZPvWytHddttMMj/J9O6MhJ8TopUkkjpjBdAxaW3RCDsJ/3xtpgFlZVKQztqV1O3L6FI5cMwzBM+LG31o8/b7Aj5ZtKfHTQLY2OYvf58Y+BFvw4xYYUGriS6TLwX6ObMi1RJxkU9RKnuVGf2+vCX1lcMgzDMGHCT4e9uGh1LfotqMQHBwPV3hSXHBKtxbqZUbi5L/f+7orwAOndnBVlHqkBc40XiDdokGbS4IWRVkwXwpNhmI6FB0hnmKPH7QOKXD78IoTkQacf3x1yY1GJF7F6oMrjl2adswqXlmnW4q6BZvw+iycH6cqwsAwD1lZ4pXEtaXYeMlDqNX5DHyP+JQyQO8gxTMcRCcKSCq0/Fruxu8aHPIdfrL0ocwsh4BSZjRQ/Ypi2USEcVoXbj1oSjlpAJxwWNfU67AoYlYHqVMXmjCQ9bu9vwiyxZro+LCzDiDu3OvDQDhc84k9K0UtR0MN1vU24spcB2RZu9cAw7U24CsvFJR58U+TB14VubKj0IUof6CxIYwUyTEdgFC7KLISlS6Qxm0hvJCJPStXjlFQDkk1cgOlOsLAMM1aWeXHVeju2VAUGjE02aVEmPMIFWQack2EQJT+DcBLywQzDHBXhJiw/yHfjvlwHDjr8UhUkBSWpHbdFOPpquYFbnNhOFPlKnMhHNBp2+EzbiTcACUJR0ignPURC62XTYmCUFn3Fmum+sLAMU74odOOf253YWBkQmASJzBIhMofF6HBiil6aU/VEUSKk0mCyMG5qw8IwTMsJF2H50j4XHsp1osjlR7UQlEon2xybDrOTRH6RapA6DMbwOIEMwzQDC8swZ12FF4/udOLjg27otRrJaSikCEHpFR9pF83kQ76E2mcyTFuh1EPTjiYYNdJ6SLQOva0aqY3UyNjwK7l0d2FZ6PTj4jW1WFvhw2FnoMrbLQqi1+SYcGGWHmMoLMkwDNMKWFhGEMtKPfilxCtVd22s8kqNpLUaaovph90rH8Qw7Qy1naJp1qirBw1mTLNHXdbTAFsYFGK6s7D8UBQ2/7jWLg3hQpDsv6WfSRrCJRz+NgzDHBtYWEYwe2t9KHb6Uezy4bALYtsnVYUxTFuh3OSwSE+FTmC/3YcykZ4oXdFUa6WygrEJBUPJ7OIsoyRkBkR13/ZU3VVY3rPdicd3OlDpCUSYJwjB/5+RFmRyJz+GYY4SFpYMw3QoNEvGLyWBaPnnBW6UefyS4CSoLd+cFAOeH25GVjcUNd1RWN6f68CDO1xS5xyKS9432IzbhMBnGIZpD1hYMgzTqfx42IMX97jwxSH3kSYYND3ps0JcXpbdvWbS6G7Cktpb/2O7EzVCVFJt90fjbTg9jdtRMgzTfrCwZBjmmJBb7cW/cl34stCNcrdfGpXguGQ93hptRSw1AO4GdCdhubDYg/nLA7N0UbvXN0ZbcG4mT4nHMEz7wg1qGIY5JvSP0uFNIW5eGGFBklGDWiF4viz0YMriaqn6nGlfaHxbEpXReuDfw1hUMgzTMbCwZBjmmHJupgE7jo+WZtmgwZI3V/kw6ZdqHJKmDGTag9u3OKShhajJwUmpBlzVi0UlwzAdAwtLhmGOOdQz+auJNsxK0knTke6o8WHa4ho4aKBV5qjYVuXFI7tcUrtKamDwxFBz4AuGYZgOgIUlwzBdho/GWTEnRS8N1L3f7scV6x3yN0xbeT3PDR0CbVjvH2RGOs3RyDAM00FwDsMwTJfi/bFWZJg00lSkHx904dNCj/wN0xbeEMKSWhU4fRpc0dMg72UYhukYWFgyDNPleGGkBTa9RhqO6Iq1tTwzVBuh8UOrPYG2qqel6aV3yjAM05GwsGQYpssxK0mPK7IN0ow9NDvMq/ud8jdMa6Be9tTbnmY7uky8T4ZhmI6GhSXDMF0Smu7R4QNcPj+e2OWS9zKtYX2FFx4/QH2gxsfzQOgMw3Q8LCwZhumSZJi1ODElIIYOCoW5upzrw1vLrtpANTj1B08xcTU4wzAdDwtLhmG6LJdmG6ShiKg69+0DHLVsLYflgeaTWVQyDNNJsLBkGKbLMi1RL/UOJ7ZV85iWraXCHXhnqSwsGYbpJFhYMgzTZaGpHhW2VvGwQwzDMF0dFpYMw3RplAG9y9zSimEYhunCsLBkGKZLkyJHLSvlal2GYRim68LCkmEYhmEYhmkXWFgyDMMwDMMw7QILS4ZhGIZhGKZdYGHJMAzDMAzDtAssLBmGYRiGYZh2gYUlwzAMwzAM0y6wsGQYhmklHx1045yVtYjVB4ZCijdocN4qu7S/K/Ah3d+qWmk6TOKA3S/ur7bL3B/DMOGLxi+QtxmGYbock36pxrIyL0gi+ebHBnYeI/bbfbh6nR3FLj+mJ+pxcbYBQ6J12FHtw3/2u7DosAfJRg1eGGlBtqXzy+37an34vw3i/px+3NjXJO5Ni8HK/e0T91dybO+PYZjwh4Ul0+05IJz9HuFQ99b6pfXOGi/K3X5Uumm2Fj8cXj9qxeL0AQ6xuHx+sYgf1s0WyLQEkVN0prCj6NoH+W5JDBUJoURRwTnJepyVYcDZmQb5qM5l1tIacQ863N7fLO9pyAO5Tnxf7MFPU2zyns6D7m+uuL/busj9aT+rYDtrLcLOjELzG7Ua0KRTJp1YxDZFx81iO1EUDCgS3demQy+rBjlWrbRkcUGB6SKwsGS6BdVeYHmpB2sqvNhe7cO2Kh92CxFZJNQiTcyiFRkvRFKmuBYJSaZj8HeCsGwqKriu0ovHdzqRbNLg+eEW9BQOtbO4fasDBx1+vDbKIu9pnD+stSNN3OMDgxsXeO3N37Y4cEgI8Fe70P1pP68gs2Q6CKEtJdEpskK4RYE5xaRFD4sGQ6O1GChsZnSsDuPjdYiWm2wwTGfAwpLpkmwSwnFFmRdfH3JjTblXEhtRInMk0UiRR+bY0BnCsiVRwQd3OPFdUedGBacvqcFdA0w4Plkv72mcBcUe/HO7E79M7bz7mybu7+4W3t9CcX//2ObA4mlR8p6OgYXlsYWim1R7k2nWYpwQmCem6CWhOSxGKFKG6SBYWDJdglVCPH58kKo9vVhXEWhP5xEpk6qtma5DRwvL1kYFU00aPNhJUUESSaUnxCLOKO9oAmqCkfRNFbynxch7Oh7NZxWoODkWMc3rSlR4gLivhOjr4L8nC8uuBxXQKW+lqOYpaXqcnGrA2DgWmkz7wcKSOWb8UOzBJ0JMflrghp3aP3ZCNNKs00iOzk8NmZhWQe1SO1qItCYqSFG3u7c5sKSDo24Krbk3Stv/6sIRS4qo3tNJEUu5YzrTCuiVdVbNTJTQlJQvUtvlM8VC7ZgZ5mhgYcl0GjVe4MtCF97Pd+PbIi+oWaTX55c61LQVkxawiEyRkM4jknO6WYsEo0ZqV0TRG2roTh0/bOKzTRwbWEs/YVrJ5T1bEK47CgJRwRjEUcPZZuisqJvC7VscOOhsWTT10jV2ZJg1uL+LtrG8dK0d6Z3QxpJ6orODaR30vmo8fpFfikWkcWo/WSpUJqX3CrcPZW6gUnxfIDI8ykOtIk+jNY0EcLTEiLzRLU5zQooO52YacXKqXopwMkxrYGHJdDiLSzx4aZ8bb+e5JLFHmWJroRI1ZaCU4ZJY7CeK2QOiNFID9V4WLXJsgZ6RSS0QJEzXhaKCfx9galHUpLOibmpmLa0W92bA7f1N8p6G3JfrwI+HvVg4+dj0Cp+Xosff+jV+f/eL+6OI6k9TOu+9MR0Dicm9NCpGTWBkDFqWl3mE6PQLEeqHVeS3pa62uXhqn0m/pUjmn3ubMC2RS+NMy2BhyXQIdlHafm6PC6/scyFfZHKkJWlfS1FKyV6RPEfG6DA1UY/pSXqMj9MhxcTiMVxpVVSwk6JuapQe6zT80UyRHi/KNogCjg7bq714Y39gaKRUkxbPDzcjuxN7rCtI41iut6PYDdzYxyiNY9m/C90f03lQ9Jo6QK4o92CRKOisLvfCJArn1Hu8upWFewoIJBmBW/qZcWkPIyysMZkmYGHJtCsrReb1ohCUbxxwSeOwUYSxJVBEkrQkLdRGTOm9OJR7L0YcLYkKBqJu3mMyViShjLG5pdqHzZVeaTikwULEnZNpkCI8x5oPxb3R7Dubq7zYUuXrcvfHHBuU0TaoFumzAjeo9RBFNlsD5dHniXR0XR8TxnGnHyYELCyZduHrQx7csdUhVcU4vS1rN0njr9FAwGlmDU5JNeB3wuFNSeCMKtJpKir45n43fhZOMcVIs8dYkW3h6DXDtJWlpV58WejGu6IgQtXe1EHP2cKROCiKSQUWarpyUip3+GHqYGHJHBU/FHmkIWJyq30tajtJYtIHP4bH6DA/PRA9GRTFVXJMQ45EBat82CpEJaUTmp6Qo24M0/5sqfLiq0MevL7fhR01vsDsZC2AOvz0F7ZJTVJaMiIBE/6wsGTaBM2JfNtWJ9ZXeKXpEpuDemZrNMAVPY24updR6mjDMAzDdD2o5uk1ITCf3+uGR0iEshZ0AKLOlTQe5j8HmjAjiQVmJMPCkmkVv5V6cedWh9SWsqqZCCUNBaTXajAqVofrehtxNkeZGIZhuhXUVvf5PS4sL2tZEIGGc5uWqMdd/U2YxE2bIhIWlkyLoGnBbthkx8cHPVIJ1u6VvwgBZSzU8u2ybAOu7mXCoGiOTjIMw3Rntlb58FqeSxrtg1QDjbPZFNQG83cZejwx1CLVWDGRAwtLplme2+PEbVsc0kwQTc0GQYOQUxDz1n4m3NlEj16GYRim+/LoTqc0Fz6Jh+aGLiKB+e9hZlya3bGTKzBdBxaWTKNsr/bh8nV2rK3wNjlsEE0JRoXXm/ua8PcBZhg4QMkwDBPW0ChFj+xw4P4dLhISqG6mFovGIH5+hAUDuLNm2MPCkgnJPaI0+o9tDphFHtDY0EHUw5vm3L6xjwl3DjBJ0yUyDMMwkQNViT+60yWNLduSnuQPDTHj1r5coxXOsLBk6rGq3CvNaHLA7mt04FyadcEtMpDregcEJVWBMwzDMJFLmfAXVEX+iFjIPzRGrPAXPS1a/GeURepFzoQfLCyZIzyzx4XrNjogbL7R3n8kImnMsmeHWzCGMwWGYRhGBU0dee0GO3bX+FDcxDBFNPzcyyMs+GNPbnsZbrCwZCSuWmfHe/nuRgc5pykXfSKpPD7UgmtzOCNgGIZhGueZ3U7ctLnp6nFqanVelhGvjrLIe5hwgIVlhJNb7cXZK2uxrZqm8wqdFGw6YE6KAU8PsyCLp9BjGIZhWsABhx83brRjQbFHqioPhVGrQT+bFp+Mt6A/9QRluj0sLCOYD/PduHhNLTQaDewhqr4pSkklypdGWnhw82bIs/uluaypJz2td4g1DSBPC/WWrPLQ4pfmUWcYpnthEnkhDZtDuidaHxhCh5Z+UVppHnvq6UzrHlzwDgkNsk61Yo2JS8Ii3vHro4SvyWRf091hYRmh/HWLQxrotrExyKiB9YgYHd4fa0EaqUumHjSl5c+0lHiwujwgIhmGiWxIbI6J02Jmoh4zk/Q8taGKAocP566qxYbKxjuGUjDj1r5G3DPQLO9huiMsLCOQa9bb8YEoQZY00rA6RmSOV/Q04NGh3O5FocDhl9qgUpUOCcrgzk1JopCdY9Kgt8gPc8wasYj3qAs0I7BpNdKahm8zskZnWghnzF0H6uVcLZYar1h8fmldKZY9Dlr82E1rpx+H3fIPZGj+bBKYxyfrcV6mAekib4h07tjqwDO7XY2256e88pJso9RBlOmesLCMMM5bZcfnha6QUzJSVQTB1RF1kJik5bOC+h5joEWDCdEQiwZjozSI48AEw0Q85R5gZbUfy6v8WFEFbLPXd6/z0w2SwKQlkqGq8UvW1DY6NTANaXdCigGfjLfKe5juBAvLCGLurzX4tdQbco5XpQH1/yZYpXUks6vGhyd3OfHWAbc0R7rC3DgN5sWToNRA5HkMwzBNUiTKoyQyvyvz4/vyuryE5s7+fZYBf+ljQp8IzW9zq304f1UtckV+G6pJFg2PPCtZj+8m2eQ9THeBhWUEQNW2c3+rxcoyT8ihH6jq+4RUPd4fG9mlwy1VXjy124WX9rrkPcBImwanJASWBI5KMgzTRko9wJelfmlZV1Pndq/sZcT1vY0YHK2T90QWF62uxeeFnpBV49R0aFycHj9MsUnjKzPdAxaWYc4hpx8n/FaDrUI0OUOIylghKi/oYcBzEdyeZVOVD4/ucOD1vLrq7jMTNZgeq8FJ8dwmimGY9uVrIS5/qfTjk5I693uJyIdv7mfG0OjIU1A3bHLg1X1OVAjxHYqhMTosmGxDqonz4+4AC8swxuPzY8LiGmyp9Iac7zvBqMEfs414eEjk9sC7e5sD/9zulD8B5yZpcGmqFn24UyLDMB3MLgfw2iEf3j9c54bvHmjGPwZE3lzad4m8+Nk9LpQ20ql0dJwOK6ZHQe4KwHRhWFiGMcf/WoMlJRSpbPgnpuGEbupjwt8jMAMjPi1wS70Tt1QFFPd5QlBenqZFdmS+DoZhjiH7Rdn2lUIf3pMF5pAYHe4bZMb8tMhqf0PzjP9LFPRDDd9m0mowNTEQuWS6Niwsw5Tfr67Fp4Ue1IQwUOpxd/8gC/7SJ/KmZqTx0/600YG38gLtKIfbNLgxQ4PJMVwMZhjm2PJrpR+PH/Rjg9wG8/c9jHhmmFkKBEQKL+514S8b7SFr2eg1nJ5hwAcR3h+gq8PCMgxpavDzKL0Gjw0xSw3GI42fDnuk2R921PggXgNuzNTi8lQWlAzDdC1eOSQEZr4PlIXTKB0vjrRgVgQNtk4jcly1rha1IYYjovk6rutjwkODub1SV4WFZZgRqEpwSFMIBpNA1d99Tbi9f+TV9z4m3svNmx3S9sRoDe7tydXeDMN0Xah6/M59PiyrCrjox4ZacGME1TI9LvJsav9eESJAYtNr8OAgE/7UmzPxrggLyzDi/XwX/rDWHnLQWZpq7PKeRjw+NLJKeZQn0UC874gSMPHHVA3+msXjVjAM0z146IAP/zkUcNMXZhnx2miLVOMSCdy2xYGX9oXu0EPzt78xyoJzeDKPLgcLyzBhT60PQ36sFqKy4Z+Tqr/PSDfgDZEhRRKHXT6ctcKORSUeaZqwf2VrpfEoGaYp9jqBL4u92J+bD1v+QcwbkYFxQ7Og09YvkDh8frx2CDhYWg3Hll3op3dj9pQh+MpjRkmZHbUbtmJkrBHHT+yNlIQo+VcByE8urQR+KfPAkJcP84ECTB6ciTFDMmDQR+Z4hkzj0NiXFL0U2TxmJOrx0XgLkiJkflga5/KrQx6UhZhfnKbM3HxcFHpZOVjQlWBhGSZMXVyN1eUNhxUyCXubmKDHz1MiqycdzZ7zuxU1WF/pQz+LBrdmajEjVv6SYRqh2A3cl+fDpnW7Ebd8lfBcFlicDlx+5jjMGNtbPirAu0U+PFhiQ79PP4LL6YW1ugYmqwkrzjwbQz/6EH67E/EJViRYDXjohpPkXwVYVgX8da8Php17pOuYrGZo7Hb8UVxn1rg+8lEMU8cvFcBD+T7ssPtFgUWHj8ZZI2bWnuOX1mBJqSfkWMxThdBePJV7inclWOaHAXdudWCjEFChetH1FCW5byZGVg86Etg01BKJytFRGrzWj0Ul0zKoY0CqUStK3IBPq4Nep4deT+uGWWW2KLBEu2ugcXlFRupHbKwF0XFWRHsd8EdZpYXG3LM7GjZ4jtP70dOsgV9879fpYNDrAxFRLuYzjTBd5GGUl1Getq4ikMdRXhcJfDHRJkR06Ej+8jKv5AOZrgMLy27Oj4c9eHSnK+R0WFTp++E4GywRNKLsKllU7q31CTEZEJXJ3ASHaSE0q95fMvwYN6onqvv0glako+Mn9MWkkT3lI+qYGAXckKnB7mlTYXO5kJUcgzsvn4FrsnTYddws9EqOgqPGhRsumiL/oo6BQpRekASU5vRC+tA+cFX7MGt8b0wR12WYxqC8LFBQ1kh53JzfaqQ8L9yhIfLeHWuVfFowbp8fD+1wSr6Q6RqwsOzGUITywlW1IQdAjzdopF6Ew2Mi509M7UzPXlmLcrcfpyZo8HJfrRSBYpjWYNFqkGnVw2WzwQ8filw+/Jxfg293luL7XWXYmleOarsLOo0GA4RAdMfHwSDSWZ8eCUi2maR9Gr0Og3smgoKQOVmJ0lR162qAXw+78I04z8LdpdicVwZDdQ2idH7pOslxVhgNPCE90zSUp1HeRnlcmcuPc0SeR3lfuEO+7LkRFsm3BUNxlYtX14astWM6H3a73ZjL19airG566yPE6DWYl2rADRE0NEWlcNwkKpVI5WM5nLSZtpNuAKxRZrj8Tvy6ZCuef+Iz/Of5b/Dyc1/jnmd/xKcLN8PudEsOjaCVx0teTQhN6bMfLk8ggkJ7f6zw4/ztwINfbsLrr/yMF579Bste/wY9P/kCu5ZvhUnjQGwMD/rMtBzK4yivUwrUlAeGO1f3MmJuil7yccGIMpskLpljD3fe6aZ8fNCNP66zSzPJBJMuirS5x0cjKoI6l877rQbfF3mkmXTe7K+FhXUl0wSU62maaCFCAaAiuxulJVVwOj0wiIP3OTV48rAOQ5f9it4pUbjyrAnYozXj4lwfRn38MWaP74MLTx6FpTXA9Ts9uHLfeqxcswcv//NsfHTYj5f2OjB1/QpUllXjkvOnwOEIlApJTsZa9UhJjIbF1DBi2dy9MpELpVNKfzRTDwmu7yaFfycWmu5x4MIqHHQ09H00Asrro604M50j/8cSdr/dlJs2O0KKSmqL8tooS0SJykvX1EqikgY8/3dvFpVMaKjFyOpq4G+5Lty59AAWbilEeaVd/rY+NHpJL5sBo7MTMKlfCsb2TcawPknwx8fAYDJIIUpNK9QeWape45dGaYi2GDAyKw4TxTlpGS6WnhnxIUXlTuE8Hzzgxd+2VOF/GwqxZkt+yM5ATGRC6ZTyPMr7KA+kvDDcoTGZXxXikYYaCoZmm7tpU2ibZjoPdsHdkHu3O6R2hMHYhKFd19sklVwjhWf3OPF6nluaQ5Yy2IzIm6mSaSF2H3D1didyv1iC7WJ57t0l+PMLi3DV++tx3ftr8eL3W7D/YJl8dEMocujXaKUOBDrJqck2KPYRWupKfgSt+Fw/e/ULIdqcGF1R7ccDeV7c8NshXPPxRlz//jos/Wkjtn+2BG9+sBRPvrkYj7/+C1xuFpdMAMrzKO+jPJDywmf3uORvwpe5yXrc0s8k+bxg8h0+PL7LKX9ijgVcFd7NOOzyI+u7qpAddtLMWhTMi5Y/hT8ryjyY8EuNtP1ALy1+l9i002YiG5qR6qyNLljf/BDuuFiYhDD0lVVAYxJbwp60Ph9OntYPF582Rjr+zSI//ru7FtGFBdBVVcMjjqnW6pG4a5/41gdvdgbcegOqhWBN2b4LnmgzfFnpcPs1qBXHxhUUwFDlgGtIX7jEZ5fThbj8AiEutXD26wkIcTgmRouZWVEY3j8D8bEWvH7Ih8cKNBi2fhU8m3bBr9XAR2LW7YI/NgY9LBoUHKrAq/eeC4uZq/uYOj4u8eO2vdSiF1g+PQrj48O/2qrH91U4QCXGIEhkF5wQg0Qj+4Rjge4fAnmb6QZcs96BTVVeBE+wkyAM6MmhFgyLiZw68FOX16LQ6ccFyRpck87Bd6ZpqL3/cQla+LMzoa2swsiMKFx86hiMPHE8PtQmIH5/IXqlR2H0oEzp+AUVwPoDZchatwGxNdXoYdMh0+NAQpxZiEArEvwepPhcyPK7EJ8YhXibCYk+t7zPjYRok7Q/weNEqtiXofEiPl78LsYMvd2JErsbvoLD2LfvMAb1SUZSnA2b7aLAVOXDrMpCHDpUjdsvn4rB88YjvkcK0uFCjNmIa86fhOSEKCFQpdtkGInBVg1KPMDG2sBYvlf1Cv/qm1STFj+Lhw6expikZpHLj9OpFx7T6XDEshtB45VNW1IDR5CqpDaFI+P0+HVa5Mw+cNU6uzSH7DCRmX48iEUl03aWVvlx85JC9Fz0G06YmI1LTx8r7X/soB/fbj+MnouX4HezBmPa5AFSZ4kQs6a2CL3WjygttQH2Y7G45t/2+HBc3g6Urt2Gv1w8Df2yE/F2sR+PH/Dh7B2rsW7NAdz5x8kY2i9NPgPDNM/vtvqEuPTjyp5GvDgy/KfxPW5pDX4KMYYlzXj567QojImLoA4HXQQWlt0IGvj711Jvg/nAbXoNvptoxZTEyKgaW1jskd4F8T8hKocIcckwbeXXKuDPKyswYOFiRPeIQsaUkdC63Fhr18JZVIqktetx/rxh+Dy9H/buzEf0nv3QOF3UqFI+Q/NQNkvzg8cKZzc20YS4Adl4Tp+OHjt3QLd2EzKnjkRMejw2V3mx2WvCqTvWYu+eatxx2XgM6ZMin4VhmmezEJVnCHFJLJhsw+zk8PYLS4VPPPG3Gqm3eDDHi2f/QbwDpnNhYdlNWFbmxVwhpoKNh3qZnplhwDtjImcMvMmLa/BbqQfXpmtwfQZHK5mjo0Aovjdzy7Hjh1XwONySCKRq5mpRgPN5vNDXOHD5GaPxn6Q+6LFpC4pXb8GE0TlIjLNJHXqag85FAzevrAbKy6uh37UXIyYNwgdZg9Fr1054f1sHU7QZWn1AANDxcaKwGGs14PKzxiMrlecjZVrHUwd9eLbAj0kJkVGTdelaO97PdzeozaMe5CQsJ0RAe9OuBAvLbgLNrvDlIWpLUv/PRZ3i9s2JRmaEjLHz1G4X/rLRjhwz8N0QziyY1kHW4/BpYND4pTaXCpQLOpwe1DpcR9ouvnxYgwXbipG1YhXOnTMEr6X0Re+t21CxcQduvnQ6crISAgc2AV3PK07u8GvwfIEPuftLYVq4BH1G98VHQljOPpCLwhVbcMXZ4zGwVzLcQshKvxM/tJqNMJv0oEo+Kk/SjCuqW2aYJpm32Ys9DuDJYRZc3zu821tSB56cH6qOTFig5pxMA94fy5MPdCYc7ukGHHT48HGBu4GoNAtVSQ20I0VUUkedO7cExij7C0cqmVbiFmrt+QI/LttQi+sX5eHF5XnYeagS5UK5VQg959TroYuyQmuzSrPgeEwmoe6sMBi08Mnlb/pXWVrCfhfw970+/LqvHNUHi6HRiXMpIzqIlcsHGI06GG0WeMX16Nq00H14DAZ8VebDX/cCf1xdiXsX52HllnxU1/JQKkzzKHnknVsdUt4ZzmQJH3il8IWxIaZ7/DDfjYIQg6kzHQdHLLsBt21x4IldrgZDDFmEsFwzw4aB0ZERubt+ox3/3u3CvHgNnu7NwpJpHdU+DcZuNmDwN19AU1UtBB6gN+igzekBSNMx1kHuqULsMjkcMO7djz+eOQ6vJvVBjipi2bsFEUvqRHFzrguj167GoeJqGI6fCN2XC9F/bD98kDkI0bk7EbNsFTQ52YDNLDJk+YcyJW4gSghP7b48qVo+yQBkJEXhziuP43nFmWb5824fvivz47reRjw1LLw78myr8mL0ouoGPcSJv/Qx4omh4d+RqavA3rkb8NweZwhRCcxM0keMqCxw+PC0PPDv1WlcIci0Hj18mKWrgu5QMXRCpMXYjIjxezHB5sPYoGVClA+ZBh/8Qn0eTdGbUipVudPg6T5f3cDVdEoaLH2w7OsGWXwYb/PXu4dxYhlg9sIEL7QeDywWA7xuD7btKoI3hPNkmGCUvJLyznCPWpIvnJMcenihV/cHpk9lOgcex7KL8+p+F74t8gphKe+QoZ7gjw0xo48tMsoG9+c6saTEixPiNbgkhctDTOvRCyF3XIIeSX2zAa8HI3rE49rzJmL26F6YMjSr3jJpSBZ2pGRiq9aKtKJCDOyZjPVRCYg/fFjqKT55ZE/ExzQfASkS/uy7Uh8yCgpRbfdA17sHtLl7kJiRiC3RSRhQXQJNWQWuOmMsTp3Sr949TBbL7OGZGDwgEyNH5CDR40R6UrS458lIjLMeaQvKMI2RYtBghwPYaQdorPBw7yFOA6J/TX0RgvylTxTxeli1GBnL7fI7A/bQXZxHdzpRGaJFcppJEzFTN1Z6gGfkaOXFKexNmbZh9/lxxQ4fnin0Y1WVH79VAWtq/Fhc6WuwrK72Ic/pP+oMMsekxT29tBg7MAXRWUmAP+DxpFQslGGJ2ycNQ7S+puE9LBP3eO8BP+7a78NDB7z4rtzf5jE0mchFyTP/vVv4khBTAYcT5BOpvWUwbmH7920XCpvpFLiNZRdmm3Bu436uQnVQtRc1UH5ksBlXRMDMCsS9uU78fasDM2I1eLkvl4WYtkFTL45dr8Gwt96E32CA22qFyeWCXopg1jcycsXl1HvcbodhXz4u/13b2lgqVAiH/uIhP3bmlUL/w+IjbSxjt++Abdlq6HtnQmO1UIYs/yJwDzTus1Wvg3bPfriMJiS5alFtd+GN+87jKR2ZFnPFTh8WVYiCyiAz7uhvkveGJy/vo5FDHKgNKoVZdcDqGVER03zsWMJeugvzVaFbaocVDI3VFSmikqDmAARHK5mjwazx4440FwxpKTCYDIj1uJBi0WFegg6z43U4Pl5ftyTo0Vt4Ip9W3y5Vztojg6kH1uTy6LxjozXQiVx4fLQec8U16dp0L4FFj2mxOqSZdTAYdOJ+HdAb9BjYOw06GmeMYVqIknf+V85Lw5krehpDjtpAFX9fFzWcoYdpfzhi2YUZ/lM1NlY2bKV/WpoBn02IjHG5fhAZwdzfanjcSqZdoNyurMaJPfsPS+NL9kiNldothoKmdPxmewl6L12C02cMxBup/dBn2zaUb9iBm1oZsaRo6QsFPmzfXwbDD7+g39h++ChzEI7L34Hyddtxw0VT0btHonx0fajfXv7hKhQcqoBeCNR+vZIQbQ3vqBPT/ijjWn4/2YY5Yd7W8qyVtfj4YMMOO4OitNgyO7S9M+0HRyy7KIddfmypaigqqRqcBnyNFD6QM4eT4jlCwxw9FCVMiDJhzOBMjB+SJYnKAy7g/jw/7trpwh2banDH5mrcs7UGiwrtMNpr4Xb7oJXDljXCJKmGjQIfeeJ3LVnyRRI+4PSjzKOBBn4peimdTZxza40PJXYvntlZg79vt+NOce37tlVjc1EN7A6PJIQp2NkjORrjh2ZhtLhvFpVMW1DyUJqhJtw5Pc2AJOqtFEQu2Rs1amY6FI5YdlFe3+/CNRvsqA3SllQSOHxSDOJDDAQbbpADj/u6AtXCiX89RIe+ZvkLhmlHaK7wq4WtDV+2BGa3S4oQknXRlI4e1ZSO36X3xa7fNkO/cQv0/XpBE22r1yayKeiwWnHWNEcNnDsCUzp+2GMI+uzeAefSdTDHmKHX61Dj00jiNdukQXIUT+nItB877H6cvMWHKL0G5cKHhHNrijK3Hynf0Ew89e2T3OYroyy4uEfkNCU7FnDEsovyjihVBotKYnKCLiJEJUElaxKVY6I0LCqZDsMv/ouqroCv1IlB6VG47/JpuP2iiRh62hTUDh8Ms1kHr8+H+3tpcPOIOEwamoUhvhoMqSjC4MriFi1DqooxXiw93TUYMzgLiWnxknjtKfxblEWHS+cNxd1/mIppp01A8YxJiEuyIfegExXVPMsO0z70s2ikvLTa4w/7qCX5yKmJDZtOUaf4Dw9yO8uOhoVlF+Vn6g4aBI3RdVZm5JS0vjoUeAcnczU40w5Q7GKv0483ivz4tMQPtWv1CeHo87qQGGtDenIM+mQlwpoUi8PRcfDodFhVJRzSYT/yUjKROncScubPRC956aParrfv9LrPdHzv02cgW6wT50xCbnIGAi1d/DAb9chKi0O2WOLSEuGOjUV0jFW6H4fbi08P+/BmsR97HSSBGabtKNXhSt4azsxPNyCaZicI4gcaXJbpULgqvAuypMSD05bXSuF8NVadButmRqFfVGSUB7K+r0K+3cfV4Ey7YPdpcPImL7yHSxC9aas0k03yoByUpqYif28RMhf+ijnjM/HHM8dLx38oxOdbm4pg/GWl1NDRGx+HGo9PmkrVQA0f/T6ppylVXUfptaKU7pfaUJLZUm0DOTWpbaYQrdSsiyY+sekCx0kyV6NFQmU5bOKQq84ZjwG9kvFmkQ+P5vsxcN0aaLbnwS1EbHFyKjQHCxG3dx+mWL343XGD0DsjUWovyjCtYaconJy02YdMixYH5oZ3J5bcah/GLKqWIrRqKJr5xUQrpiTwcF0dBUcsuyAbqwIOK5g4YRCRIio3iXdAojLNCBaVTLtAZWiXy4WUr76HvqISvoLDKP7fQuA/HyBzwU/we50w6Ouqz85O1OC1kTH40wmDcPaYLByfZYMmMQ6JZRVIKyvBKZlWHJcdK0UYrfmH0MdRhTN7RWNKZgy80VHoaa+E5UARzukbh5EZsTDaLEgVv0spr8AF/ePxu542zB6RhfmzBiIlPkq65jCbFpenapCk98PvcUH33S9IeetDJP/wM7RFJVLP8Nuf+h4OJ1fnMa2nr1kj5amUt1IeG870F74yOoR2rPH6sbEyvJ/9WMNTOnZBHtnpxNqKhg0spybqcWFWZPQI//CgW5qa67hYDeZyVTjTDug0foyx+bF+bxlQWgYaJ7lHagyOG5eDftmJGDckExOHZSM2um6qRovZgF6ZCRjSNw1xvdLxkT4J2fn7kJMShQtPHoWY3pl4R5+MjK2bMWl4Fs47cRR8Wan4nzEJJ+hqUVBYgr9ePgtFySlYZRYC014Gg9aPa86bhKH90qTz0vnpOgQ5/QnRogAZa0Rqgg2pGQnwpSXD7fHC6nKgusaBIb1TMXV0T+hoAEyGaSWba4HtdmCIMIDx8eE9hNuiEq8UuVRDnUIpanlmRuSMrtLZcM7UBdkYQlSadRpMDPNMQM0iuY3peOFkGaY9oGrpkXFGPHPVdPz1kmm44cIp+OtlM3HOvBG44KRROHXmYGRnxEvHUvtHGoZIWQpdfhx0eOHyB4YK8pJ3krbq8Inv1Pjk6RsV3NBJ0RKqFlfOmy8WqkoPpn+vZJxx/FBcdepIPPq7EXjqyum48YLJuOmiabhR3LvRwNV4TNtQ8lQljw1nxsTpEBuineXSUo74dyQsLLsge2obhultQlMOi4mcP9fiEhaWTMdAUyGOHJQpRQzjYuqik2q+KfPj/PW1uPLXYly5uBCXLTmEe1cVw15aCbdTqEGRLFvaPJ3aQtL0xYVuPzbW+LGjwoUrlpfi8iWFuGJpId7fVIRdB0pQXdt4D/C4GKt0vyMHZsBiYlHJtB0lT1Xy2HCGfKYlRDzmoKNltsu0DRaWXYydNT7oQrTKpw4Bw2MiI2JZLh620OmXnHEvHguaOQYUizSo3Z+PmG8XwvbVAmmJ+/oHDPjiC5SWuaSe40ajDnqpI0792CVVsFFcU8lcaT0rTos3B+owIzsWhmoXoj79GtF03i8X4Js3vsddT3+HlZsOBH7AMB0I5alSQUfksZTXhjPkM0MN20c+dmeoqgKmXWBh2cXYEGIKR8LtA/rYIuPPtb068A5yzA0FNsN0NORv9ruEMHS6odFaMP+4wXjuzjPw6E0nS8uDf56F02cPEcLSgC21gFerkzrbaXVa2L1+bHHQPgNKfXWRxRidH2PijbjihCHS7+k8Z1xxMvaeeRpSxg6GT2eD3eGSj2aYjkXJW5W8NlzpK3ymO0TNAu3jDjwdBwvLLgYl9lDjn/eyRo7IUhpbc7SS6WyobeUTB31YWuKGubZGijtW+rRIjLOiZ0a8tPTKjEeUxYillX48KY4dXF0Eh0iym/aWYNFhB57N96G/vxrL95RIBcI9B0rks9Ng6Ebp9zVxcfhaGwtjlA27HYH4ZkFpDdzu8Hb0TNcgR85bgzu2hCOhAjJklywsOw4Wll2MXTVeVIQYa2godWGNEJTMLoeHGWI6GRprstQNmPfsh2XXXrgsWqxYtRO/rdsnH1FHAXW8MVjhX/gbXCYjSsuq8PW7v8Cu0cP33WJoqqthshrxxJtL5V/UQRUTNH+4ZfdeWHbuglY4v19W7cGStXvlIxim4+gl562RICwba0J2wM7CsqNgYdnFaGyC/FAzCIQrdcKSq8KZziVJD/wlU4spsRoY/F7EazyAxyv+b+iETk/S4NoEB2wmHRKE76qqsMNVVYtrk90w1dTCKBaryGGps1Awo23AP7O1GGHTwOzzIhoeeL1CbXKSZzoBJW+NBGGZbAxtVAepmoHpEHjmnS7G5MXV+K20YXXY3QNM+MfAyAjhHbe0Bj8d9uDN/lppTD+G6Wxo3MjVmw9i3bZ8jB6ciTFDMqHThi6HHyqpwo/Ld8Pp9uDkaYOQnGBFcWktvlq8FSaDHsdN6I3UxNCznNAc5Ks352PNlnyMHEjXyag3SDvDdATLq/y4KNeHWaIk9eMUUcoJY/6xzYmHdjrhkIYIq2Nygh5Lp4X3sx8rWFh2MQYsrGpQiozRa3DPIDP+0jsy5gkft6gaq8q9+GSQFkMjqG0pwzBMZ7Cp1o8zt/owNk6HlTMCsz6FK0/scuKBHU4UUzsXFdT2cufx4T2t5bGCq8K7GLUh2lfqxV8pNoKGrquS34GN5mNmGIZh2hUlb1Xy2nCGBkgPVQdAIzgwHQMLyy5GqKG1KP3HhuoqHqYcEZZcI8gwDNPuKHlrJAjLOKNGGg4sGG5i2XGwsOxihErsNBVdqGmpwhVlaLUIGbaTYRimU1Hy1jAfxlKCfKcmxKQjoWoHmfaBXXcXI1R43uOjeYojxwiq5NkgQk3FxTAMwxwdSt6q5LXhDPlOt/ChwXDEsuNgYdnFsOgalqz0Wg0yImjonWi52j/UVFwMwzDM0aHkrUpeG86Q7zSEaK9vZvXTYfCr7WKESuw+vz/koOnhSpRcmq7lEiXDMEy7o+StSl4bztB86KEGvzGHCOIw7QMLyy5GqA4rlP4rIqDKQkEZDD5URyaGYRjm6FDy1kiYeIOCMqEe08pNrToMFpZdjBhDwz9JjTCMCo/8IQI4IixDtIthGIZhjg4lb40IYekOjKwSTDSN48d0CPxmuxixBnlDBfVoK3dFTr0wRywZhmE6jkiKWJa7fQhV4RcTQWNDdzYsLLsYqaaGfxKaiqooaNaAcEaZ27VQlDQZhmGY9kXJWxubRzucoGZk1M4ymLgIGhu6s2Fh2cVIamzC/AgSlv2jAslybwQNscQwDNNZKHmrkteGM/mN+JH0CBpppbNhYdnFyLJoQ/ZW210TOVXhA6IDrar3OKQVwzAM044oeauS14YzOxvxnX14arcOg4VlF2NYjBZGTcMS1o4IEpZHIpZOacUwDMO0I0reGgkRy21VDRvrW3UaydcyHQO/2S7G8BgdPP6GEUsa33JXhIjL/vJ8Y3u4KpxhGKbdUfJWJa8NVyhaSSIyGPKk5GuZjoGFZRejrzD0UGOhk7DcUBkZ3aSpUXWaSQO7sH6OWjIMw7QflKdS3kp5bLh3YCGfaQyhcmjSkT5hLqqPJfxmuyC9rQ2NvdwjjKQicsbfmZYYGAtiRRVHLRmGYdoLJU9V8thwhnymPcQglj0tLH06En67XZDJIQyehhxaXh457SxnJLGwZBiGaW+UPFXJY8MZ8pmhJheZEM/V4B0JC8suyNg4Xcjw/aqyyJl+Z0ZiwPBXVLOwZBiGaS+UPFXJY8OZ9SFUJfnWKREQrT2WsLDsggyLDj3kEM2WECm9w4fG6JBp1qLQBezkTjwMwzBHDeWllKdS3kp5bDiTW+1DdYhYDPlW7hHesfDb7YJMFaUpR4jmlB6/H19F0HQ0M5ICGd+ySmnFMAzDHAW/yXmpkreGM18fCl3DR83KpiRwxLIjYWHZRTk5tWHCp+nCPz4YOcJSeQdflXHEkmEY5mj5Ws5LQ/mXcOO9fBeqQgyxMj6eRWVHw8Kyi3J6ugHWEIXK38q8KAs1o34Ycm6mEVHiHayu9mMnz8LDMAzTZnba/VJeGq3XSHlrOEM+clV5w2o/Gl3pip4G+RPTUbCw7KKclKqDM0RzyiiRKURKdTg1Mz03M5AJfFUaOT3iuwKLftuM/tP+fGS56Lp/y98wXQH6e6j/PvT3iiSefPnLes9Pn5mmUWp+KE8N0YQ/rCAfmWJq+JA08tDJqSwsOxoWll2UJKMWg6Mb/nkqREnsw4OR0ztcKVkrVTiRQrCwU5Zb73tLPqKO1Rt3hzy2qzvbYHGkXsaccIv0/SvvLpSPZro6wX/DUKi/7ygxHCw6mQBKHqoU1sOZTws9wlfKH1RQh6VEY5ir6i4AC8suzKXZppDDDn1fFDntLOek6NHbpsUeB7C4MrLEZSi27Twgb9WxdtMeeSt8qKpxYPnaHXj4uU9x2h8elPcyDNMWKO+kPJTy0uOTw7+N4VeHPKgNGhidfOk5ESCquwIsLLswJ6XoYNCGCOeL5eV9rsCHCOAPPQKZwRtFLCy37cxHcUmF/CnA6vW75K3whJ6ZqzqPHZTelOgyN4nonih552XZ4d22kiDfSG3zg9FpNPhdOnfc6QxYWHZhBkbr0NPSUFi6fcAzuyNHWF7XxwSbyCgWVfixigdMx/K1O+WtAAuXbpS32o8Zk4Ygd/HTR5Y3/32d/E3H8fLDV0vX+vKN2zGwb6a8N8Bn36+UtxiC/h7qvw/9vTqKR174QooedyX+csUp9Z6fPjOhoTyT8k5qn39db5O8N3x5cpcTh10N/US28KXkU5mOR+MXyNtMF+TV/S5cu8EOe1AHtwSDBu+MtWBeSmSE9m/f4sADO5w4IV6Df/cO//IQtT+74tYX5E/AhFH9jjj3ay6ed8SRqo9TH0Ooj1Og49/7bClWrNshVTcTs6cMw3nzp9QTJ6Gur4hLdbs12k/XeOXtBUcELp3v8guPx5hhvaXPjUHRL/X9krBU7oHajZ5/zRPStgIJCPVvlHu696mP8cZHPzd4L/Scyj1F28wYP7Jfo/dFUbkX3xLPsGQD8gtLpX0kbi84fZr0boLJ3VOAV95ZiIWL10vvkc4/e9oIXH7BbPTPSZePqoPu5auFq4/ce2ZaAubPHYcLz5yG5MRYaR9B9/H2J4vx46+bpEgtEeo+Gnt3wX83eid9xf289PYP0vmU+7zl6lPrXZeg9qyfCwGvXFd5Z9t25R95J+p0EExwe0b6ewWjPuZo7pki2M+98Z20TSh/+6baVIayh0jgut0+fFvmx239TLh/sFneG558V+TBpWtqUeisL2ssQk8+OsSCa3LCP2LbFeCIZRfnD9lGaYiEYOw+vyiZRVbUUiPeA2WQm2sjryw0oE9dBI9El4K6fWVzQo7EDTlwEluKqCToM+2n71tLRVUtrrzl+XpRU9qmfUdDY+IvGBJDJCrVqJ9TgZ6XPpNY/XLBanlvADrvOVc/Lp1HEVAEiZq7Hn2vQYcpSfT+3+P49NvlR94jrekz7Vf/fQj6PZ1HLQTpOiSM/nhz3Xui+6DPtF8Rd4RyHySgWwvdy433vHbkfMp93vXI+9Jngq5L7VipPav6uso7o3ulwgIJxc6IXLfknpmWQXkl5ZmUd1IeGu48u8cpdXANRi+en0Vl58HCshvwfzkNMwSKYC4q8WJbdWQMw5Nm0uDPcsbwQmHkCcuRQ3rJW1QVXidQ1CJm1NAceashFGEjcdIUjzz/qbzVcsj5K+JKDe2jSFRbCRZnRHCEjXj7k1/krQD0nM09x93iPahF6o33vF5PUAZDokb9LDf/8/WQz0zQfvpegX5Hv28Men/vyYKeIpVqYRcMCV96vtagTitq1KL7s+9X1bvu6SdMkEQkRScV6PjWXruttOSemZah5JWUd1IeGs6QL1xQ7IE9yCWatBr8sSeLys6EhWU34LreRmipyBkEZRkv7Y2cqOVt/c1SO6HvRAn8G3nojEhhwqi+8lYARegoTlgtAkJB1bZqlPaMFIlSIFEUStA1x+N3XyqdiwSJmh17C+Wt1iFVM7+9QP4UgKqOg9mSm9dAEP6ybEs90XfxWTMb3Bt9v3DJJmmbnlctZKjaeemn90rtPKkKVmHxim3SmkSg+ppKJI/epwJ9r0RFg3vs07np+FuvOV16Jrqv9JQ46Tv1u6f7oOPoeDqGPtOztBZ6BnoWOg+dQ41yveDOXycfN0paB0eNvw6K9HYULbnnxqB3RlXeamgfLZFWDU55JOWV1JGF8s5w5+ndThhDdHZ1+fy4tW/4P39XgoVlNyDDrMX5mQ17s9Gcp/8WxpTviAyRRSXuewcFMognD0bWgOkUrVOLKxJt6ihac9XgMVEWSXzSOchZK20ZB/TJkNYK1dV2eavlnHL8GGmtCBKF1p6Lqq+pjdwpF9/fIDpF7RGDUQQkiTRFOARHSU+U7yn43pTjgoXflRfOkd41tZMc3L+HvBfYvisQ0Qs+P7XZJOh9qsX9us17pXV1rVNaK2zJDQwXdfn5s/HTh/fg4Tt+f+RvQc0KFKrEuyOBTfdCx3z+6t9w5/W/C9l+synoGeg3dJ7jJg+V9wZoy9+6M+iO99wVUfLIewdbwj5aecDuk4IsoarBT0jRI90c3s/f1WBh2U34U2+TNBVXMLTr5k2Rk9le39uISQl6aUy2pyJMXI4bWSdcKMqkRNGIpqrBCRIl1D7u0bsukTpkUOcPGoRc3QGiq0KCrbFoE0XxSKQpHCgokbcCKIJ7cP8saa1QXRsQpYVF5dJaob9KaNP7UqJdStvC/EP1I6RqQa9uB6sI0TQ5GqlA4pnevVL9rSYzta7gQFFPEtjUPjNYzLY3irBVUNLV9l0HpbVCc2mM6TpQ3kh55KQEnZRnhjt3bnNCHyJaaRMO8u6BHK3sbFhYdhMmxuswXizB0LSPXxzyYGlpw3lRw5V/DQy0OX22ILI68vTvXRetol7dtCgEi4NgqE3h//3tJanzCrXVo+pfdZVxV4OqQ0lQ/vPm85rsMDJt/EB5K0BjbSUp+hUKRQAqNBcRDG4DSRFWZQnuRETMnzu2QTU+vXtq70rCXj0+pxL9VEPtM0mMzjr77gadjtoL6m2ubipAz0HPo44a0/fNpTGma0B5IuWNxL8iQFSR7/vkoFuqwQtmRIwWE0L4TaZjYWHZjXhwsFlqiBxMjceP27Z0XZHQ3sxO1uOqXoFS+F37IkdYqiNGJAoVkdNc+0pCGkpHJRSobeC7z93QoD3asURp90nL6m8fkQRlqKF+2gN1tXNHQoL2gxduDPk3or8hRYyVaSsp+kl/k1DtSUkwU0/ptrSBbQnTJwySxLyyKCjinqrjme6BkidSHkl5ZbhDvi+EppRGU/n3MIv8ielMWFh2I8bG6XBJduhxKzdXefH2gciZ6vGFERaMFu9joyid/2N/ZFSJN9aOsrn2lYQ6mkZtLJ9/8MoW/a67EUqUEepe4ERstFVap6uqn4nmej4Hn18RwsHL43dfIh8REJckkkk0UtV98Dmef/1beSvwt6S2l9QhiqKEapFHBHdqag8oEkqilYQuXZdEvfIcHSnug5snMEcP5YWUJ1LeSHlkuEM+b5vwfcHTN5qEsjkr04Ax4j0wnQ8Ly27GfYPMIecPL3X5cevmyIlaEs8PDzjdd4r9+LgkMiKXoSJfzbV9C26jp4gq4mBQG8PuTlZ6orwVQInwKZ1mFKKsgbSTEdQGMlfVrpDaQlKVMFVDK2NIDlS1oyTUgpWOUY6n2WqCIdFIbV1JOAb3xg+GOkRRlPDbt++sJ0SVtqHtyWMvfi5vHR0NRHeQSA+OtjbWPIFpG5QHUl5IRIKoJMjnFYeYZYf2PM3RymMGC8tuRpJRg7/3N8Gqa1glTtNY/WN7/V6o4cz4eD2ekcXlXft82BIB7S1DRRlb2/aNOriQICJHTzPHhBPB7+KbH9dK66/ktYJy3LSJg6W1As32orwbGs6IULfbDD4/jT1J0PH/+2aZtE3HUy98gtq1KgJVqfImolXiniARRsfRQOXU9lJdGIiWz9VRqJ9P6ZlPC90L3RN1IArV2SiYYNFN43kq4pLW9zz+gbRNBA8j1JGo33u4Qnkf5YHEs8MtGBcBkbq/bXFIE4UEYxCq5q4BZiQKX8kcG1hYdkPuFEaTHGL4CBqv66FcB74ripwq8WtzTLg02wgaZYKmLjsY5sN60lR3alrioNODIkkkJKacfqfUkacrd+BpC9OFUFRXHysdUdSDlNP3s6cGhrEhoa6OAlO71VDvRukkRL9Tn5/aSNL5g48/57TJ8lbdWKM0s40i2tT3Q1Xe1GmIhCxdn86jCDy6F3WHoZNnB4Z2ak8aGx+Trkv3TvcaagaiYIKrzOn31LOdnoPW6uegKSo7imAbUd47ieRwhPI8yvv+v73zgI+juP7475qkUy/uDfeCbWxsY2ywTYdAAAMJnQSS/BPAEEog9EBICL0mhJIGhA6BAKGEjsGGYAy427j3ItmWZKuddOU/v90da3W+k07ySbryvv6sd2+1t7e3N2/nN2/mveEzkM/CdJhhhnXcw6vrUR7BW9k1w4kbh6b+LEOJjAjLJOW+kVkoiDDXY51qtP7021rs9qe+907zxIFeHNvNjfU+8wFbk8JDLsMTpTN1UEtQtNi7Xu0kUvBOPOB3/fXFp1ivInPr1Wc16YZlKqPwsYx2KLy0p5Lv+8s9Fzd7PINddHQ5I72bO5YNA86BTVq6bgrQ9hjvyO75aOXDDgVmc6mPeI9iKU/t9T00tJFoY21TDT7r+Mzjs+/Yrm7jWZjqsG5jHYcIDklOoPGnA6QLvLMRYZmk/KCXByd2jxzIs0O14i5ZkF6JhF8+KMcYqL2gOoTL1YM2VaGwsXsp7VM9Nsfvfn2mIZC0yOE5KIDC80OmggeTooUR5naxxO+tI+F1QncNvZbPP/qrvYJldEQ0hZedaMfz/Pxcu2iyH2sXO9ymCPv7vRfvEbn267afV/9W7RWZTU+kzhjA+8MZb3gdXMK9meEJ5cNhedLfwf599f3n39o7wpz383HrGuzY84ymChSVfOaNL3Di5Yk51t7U5ufzatGgHvHMhmKHGVOO6uLGaT1TPxI+0XGEFNa2kGTUBkIY8mEVNoVPjqrIVy23u0Zm4SIrLU86sEY134+cXY21an1SsQP3DZB2kyA0h44IJxTSkXKGcqyl7samGI6WrF7oWK5aE8R/doYwINuJDw/NMdapzmNr63HzsjqU+faWLd0yHVh3bD6y5LHf6chPkMR4XQ48daA34vyou1Rrbsb8WsyvTJ/E6XywvnxQNgo9DuOB+/OVQWNogCAIkVnZQnolYs8ikNvOgURCy/CZxmcbn3FF6ln3knrmpYOoXLAraNRpkUQlR4U9PyFbRGWCID9DksMEuFcPzogYJU7zO/vrmr1yfKUyzPX5wSE56K8etDMrQ7hgRRBl6RPLJAitwh7owkAdRlDrFEpc87UOPmJ39vRjJxjbQufAZxmfaXy28Rn3vnrW8ZmX6rAOO0/VZVkRvqrH6cA1QzJxZBfpAk8UpCs8RZj0aTW+LPdbrxphotgpJW5DbKUTq6qD+MGcasxXrdwhXgeu7e3ENEmbJwh7wWhpLR6jQVHJ4KL2DLoRmmem0vt3bwpiRW0IYwtc+NdB2RiUkx6+oaM/r8ZX5QGjJ84OPZT757nw9eG51h4hERBhmSJwfOHID3cjwnBLI1LujN4e/H1senVjMa/nD+fUYOYOP9hTdNt+TpxYHCGUUBDSHOapfOvDr42UR/YALo67ZNAL0ye1NI+60H6w2/vm9UFUB4DDStz410QvukSaKSMF+dE3NXi/1I9tEbrAs1wOLDkiFwPSRGAnCyIsU4gXN9Xj/G/q4IuQNLY4w4Gf75dhzDeeTrCBe756MD1nTXf5s+4OXNtHHkKCICQHd20M4u/bzGf6uX0y8OQ4L9xp0j6+clGt8ewujSQq1WP8qXHZhtNESCykhk0hzuydgXtHZUUcwMwpH/+82of7V6V4BvEw+AB+dnw27h1pCmo+oH+8PIh16TNBkSAISQifUXxWaVF5n3q2PzM+fUTl/at8+Of66KLydyOyRFQmKOKxTEGuXVKHPyqjjBQRzUjyx8dk4Ud90ycNkebj7X5cOK8WK6qDxsP5V72d+L/u0jUuCEJi8TclJu/fFDR6XIbkOPGXsdk4vEvqB+lontnYgIvn16IqbEwloaj8Rf8MPCRzgScsIixTFEbQvbSpwZjmKxyvej49MMqLC9Mox6WmUt2QSxfW4ZkNpuf2gBwHftXLgUPyRWAKgtC5fL5LCcrNISPpOTmvbwYeHh15lrVU5fG19bhqcd1eCdAJb8MpvTx4aULTufaFxEKEZQrDSLoPy/aOFCd5bgd+MywTvx6cnnOqvr7VjxuX1mHxLjPP51ldHPi/Hk70kylmBUHoYDgl49+2BvHCdrM6ZqTzH0Zk4pSe6dXVe88KH/6gFjoAwuHMOuMKnfh8qkSAJzoiLFMYfzCE8TOrscAST+EwWvzKQZn43fD0VVO//c6HW5c1RsGeqQTmBd2dGJReMU6CIHQCq9Sj58ltQbxoCUpys2rw3zo8/R5A1yyuw9/X1xvxAOEw+ntgtgMLjshDhJTNQoIhwjLFYYoGei4XRRGXnKXm/L4ePJjG41UW7Q7i3hV1eGpDYyb100ocmJbvwAmSnkgQhDjzdnkIn1aG8OqOxuqXz+Grh2RhVF76xdTOWFCHVzfXR0wpxFzMnFnokym56J4pz+NkQIRlGsBZC479ogazd0TuFue84if39ODpcek9GHrJ7gAeWl2Pv6xtjJwfm+Mwcl9yKZaJHQRBaCM71eP3zZ0hY5lnjaEkDES5fGCG0f2djvzom1p8UObH1gjRpkzVOSrfhVlTc+FNP72dtIiwTCOO/bwan2z3Rwzo4Xzjo/KdeG58NoblprcFc9aeB1f5jMjECtvNOrbQgeOKHDg4z4FukuVCEIQWKG0AvtwdwrvlIbxX0fgsYU/ReX08uGJQZtrMnhPO8qogzp5bg+XqeRsp+puBOhOLTFEpJBciLNOMU+dU491SP2oj94wbc44/Mc6LM3qJciIvbGowlte3NJ1wfLjXgYl5METmQbkOFIo3UxDSngo/MLcqZIjJL3cDy2qbVq/Te3pwVm9zSWde3tyAn3xbC87lURvYW4Iwc8kRXdx4a1J6TUWcKoiwTENmzK/FPzfUG9ODRYJd45cOzDSiEgWTLXUhQ2Cyy4ZeXw4vsNNF1RMDMh0YmKXWWQ61qPuoHo45XJwOY01HsEe6cwQh6WgIAlVq4TOzWqkhrjlsfU0dlxBWc+0LYXvT9qfRUD9cCaSju7oNMdlTPRvSnasX1+Gva+v3mvdbw2flWX0y8Lc0m4I4lRBhmabcssyHe1f69hJIGuZNG1fgwrMTstFTBkzvxUwlLikwP9nhx9cVQeyO8pAUBCF9YBq38YVOHF7iNgTlYWoRTLbUBXHeN7VYujtobEeC0d8cb5puUw+nGiIs0xh2R/zo6xr4Itu4QZESmI+N8crUWS2woTaE76oCagka6xVqTbFpLoDaZWz7ogh5QRASl0wleCga85ROzHWZApLLkFwnhqkdHJfOdV+vNMIjwbrmkvm12K2eg3VRnoHMU/nYmCxc0C/9Ju5INURYpjkcQH36V8x1GV1dUlwe1dWN+0d55cEpCIIgxMSG2qAxi87HZX5sj5CfkjBwdEC2A28cnIOhaR44miqIsBQMLvimBi9tZlBP5OLALoqgKir3jszCLwfK2EtBEAQhOg+vqcevF9UadYc9u4Ydr/rbGb3ceHKcTNGYSoiwFPbw93X1+L95tdaryLD7Z3S+Ew+N9mJCocvaKwiCIAjA3Ao/Ll1Qh9XVQZRF8VJq/jhaHBWpiAhLoQlzKwL42be1WKkeCtECewhzjHGWiKsHZ6CYLwRBEIS0pbwhhNu+q8Of1tTDraqEaCntmBljYLYTz4zPFudEiiLCUojIXSt8uG5J4xzakeBg65D6d92QTPx6cBZyJQBSEAQhragOUFD68ODqesPh0FKGjN8Oz8Itw8RLmcqIsBSismx3wJjD9fOd/mYjx0syHEbr9IahFJiZxjRcgiAIQurCYZP3rKjDnSvqjQCcHfXRK4kct8OYA/2pcTKzWzogwlJokSfXN+CyhbUttkSLlcDkITdZAlMQBEFIPZgD+fblPjgcDuxsRlBmKg1J0cm8lDMGSBqhdEGEpRATHD/zq0V1Rj6y6hYEZhEFpnrWXNjfg5/0y8T+qqUqCIIgJC9MbP7YWh/+ucGcXihapLeGovIHvTLw8AFZRso6IX0QYSm0ii92BnDT0jp8VRFo0YNJsl3AQYVuXKxaq2dKknVBEISkgs4ETsH4uXr2u5VYrGxBUDKF0OQiF24bkYXJxRKck46IsBTaBKc0vH6pz0gtwXl0W6Kr1U1+iRKYnFlhUI54MQVBEBKRNTVBPLamHk9uqIfL4VBikllCrD9GgfOis3eKuY5lKsv0RoSlsE+8X+bHNYvNnGW7YvBgEkaT75/nwFl9MvD97m6MzJNWrSAIQmeyZHcAb23z49mNDUbgJqex3NWCd5LkqMf3CPUMv31EFo7pJoJSEGEpxIm3tjXgpqU+rFICM5YucsJ5dzn4u8TjMOYip8icWiIPJkEQhI5g9s4A3tzagJc2N2BHfchIFxRt6kU7WVaH06h8F24dnoUT1LNbEDQiLIW4wrGXf1pdjxc21cfURW6Hidb5ltN7eTCxyKUWNw7Ily5zQRCEeLBodxBzygP4bIcf/1GCkpU/xeQ2X2wywIjBcThwak83rh6ciYMkwbkQARGWQrvAOceZpujOFT7saAi1GEkeTg/VJPapczB/5jj18JpW4sLBSmhScPbIlAjDdOBfmxvw0qYGLKkKYvGuAEbnuzAi14kfqobH6Z0cCKavbfHuAJaoyprXtn+eS12b27i+zoYBF1x43xqvz7x3iXB9QvtDsUgROafCj9k7uA4YnsagehTXqf+izYwTCeahZM/SZQMzMGNAJryiJ4VmEGEptDtsHT+8ph4vq4o4Sz2QWvNAs9NdPRU55qdQPeD28zpwQIEL/b1ODMhxqrVDrV3oLqIz6VlfG8RF82qNeYanlbjx434eYxzuCiUw51UGcP8qH7qq3/nRA7zYL7tjPdrNXdvf19cbQW0MVHtsrBf9VNnsaNbVBHHxAnV9SlT8anCmujanIXiN61unrk/ZYmdenxBf+Dsz0GatKpdrqoP4Tv3Oy6oCWKu2mSIuWwlCCsmWUgNFIl+9l8OaTu7hxlWDszBVNe4FIRZEWAodRrUSlBzP8w9VAX+mWtBBVfSam9EnFgqUyMxVD0CfOjfnNg+oc/ZSApTik7nTCjzMq+lEjsthpD7iQHO2vvlaJGjr+UX/9k9yfMTsahzT1YUbhmZZe/aGnvB3S/34+NAca0/HEMu13bHch/fKOv7aCK/vWHV91yfI9VHMSgXTOni/2MPDqRKr/eq5pp6RfE2hyFQ/bFyXqoYNPZKcVDfP4zSepXyeUQi2teFO+GykED2qqxvn9THHvfP5KgitQYSl0GkwovzVzQ1GtyJTWVAYtifGgHOHAxnqOSmFvvWw0gpNL7BetQ83LK3D5roQnjzQa+2Jzk++rTU81JzVoyNo7bVxyMYdHXRthHP7U2w8kUDX53yjEpJZrHUwoJFSjotPqTy+5tCi9oBJzJlOiD1J3+vmNlLBHaNEpSDsCyIshYRgbgVTXTTgtS1+LKsKgnVRewtNofW0t7CcNqsaNw/LxNExVG4fqobJLcvqMGtqrrWnfWnNtX2gru133/nw6ZSO81pOVdd3Syvu3W/Vvfusne8dhaXUMIkDp1ekA5IdRZy7m2XlB708mCBBOEIcEWEpJCQLdwWMgedMg7FsdxCb6kLIVfVlS7M+CO1LewtLCpGd38tHId3KLVDpBwrfUsKlna9JY15bgbo2a0czsNuyyzu7ETg539rT/jher0Tl9wuQH4PDqaPunQjLzoPeSIrIOqUie6gXk4pdOLyLG4eVuIxgLkFoL6STQkhI+OD72X4ZeHdyDtYdm4fyE/LwykHZuHtkFs7r6zEixbtlOuBSD84MVYo5NkhIfqYUu/FVZWyDxL4q9+PQDpwyjtc2l4osBuiB78hrI1NK3KoxFtv18d5Jztjkhx5IjhfPUgufhXwmMnMGU7ZxHPDrB+eoZ2c+Nh6Xh3+p5+elAzJEVArtjngshaRnIyMiGRlZY0ZIcgYJRktyTCCDgzgIvkZtM+8vX9cHQ0aOTSn4rYPSPdjeYyyX1GGz+u0ScoxlK67tgm9q0SvLgdsTeIxlT3Xv2vv6nK9Xip21EtqZRzWWKRrpdaTzno3nArWTvTaM1uZ83MPznBie68SAbHPpI1H+QoIgwlIQhITiiNlVOKYrPS6Z1p69uWN5Hd4rC3RCVHjL13a7urb3O+HaCKPCj+vmxnVDEvP6BEFIfURYCoKQUOhckaW+kDEm7Ef9PBiW68LyqgAW7w7i/pWdn8cy0rU9tb4Bn3Zynkgjj+X8WpQ1AL8amIGR+U4MVdf3nbq+f6rrYx7LbpLHUhCEdkSEpSAICYme3YZiiEKuRAmiI5WY47zynT17jL42psxi8ulEujbCyQg4846+PqYW4pjKRLk+QRBSFxGWgiAkNJM+rcKX5WZAT0dFgMeKPeo50a6NMFKcjC9wYu7heca2IAhCeyJ9IYIgCIIgCEJcEGEpCIIgCIIgxAURloIgCIIgCEJcEGEpCIIgCIIgxAURloIgCIIgCEJcEGEpCIIgCIIgxAURloIgCIIgCEJcEGEpCIIgCIIgxAURloIgCIIgCEJcEGEpCEJCs9VnTm2T73EYayF2Cqx7VlpvrARBENodEZaCICQ0W+uCxrpbhgjL1sI5wgnnWhcEQegIRFgKgpCwlClB5LL0ZI8seVy1lv285j1zqnu4vV7EpSAI7Y88qQVBSFjmVPiRRVWk2D9XHletZVieec+oL+eUB4xtQRCE9kSe1IIgJCxPb2hAbTAEr8uB8/pmWHuFWPlhLw9y3Q7sbAipeykDLQVBaH9EWAqCkJDUBEJ4ZbMSlgEocQRMLXFZfxFiZVqJG3nWbfuXcS+lO1wQhPZFhKUgCAkJvZWFHgcynQ6c10e8lW3l/H7mvXM4zHsqCILQnoiwFAQh4WCKoasW1xkBJ/5QCBf2F2HZVigsGQDVEASuXFS7J8peEAShPRBhKQhCwnHlwlrkKjXENIzXDsnEMAncaTPD1b27ZnAmctwOBOHArxb7rL8IgiDEH3laC4KQUDyzoQHvlwWwzRc0Ugz9YUSW9Rehrdy+f5aR07IuEMKbWxvw7EbpEhcEoX0QYSkIQsLw0qYG/Hx+LXbUB5HtcuDJcV7rL8K+8vgYL5gKdLc/hJ9+W4OXN4u4FAQh/oiwFAQhIXhtSwPO/brG8KplKlF56/BMHNnFbf1V2FeO6urGvaO8RuompdtxztwavL5VxKUgCPFFhKUgCJ3Og6t8+MGcGvhDQJYSPjcPzcDVgzOtvwrx4pIBGbhpaKZxj3mvT1P3/KHVkt9SEIT4IcJSEIROY1NtECf9rxp/WO4DY5XZ/X3dkEzcMFTGVbYXNyhh+dthmUbi9KASl79dVoeTv6zGZokWFwQhDjhCCmtbEAShQ6gOAA+v9uGOFT5wwkZqGhdC+POYbJzf12MelAQ436iEfoKGpheYG0kCx1j+5Jsa47cgeUpo3qQEJ72aOUrgC4IgtAURloIgdBjfVASMqQUfX1sPL6carA8ZnrPJRS48PT4b3TOTS9Aks7AkzBf6o69r8L/yAKr8IRRnOFCj1lcMysTpvdwYVyhjXAVBaB0iLAVBaDd2KZHy6XY/Pt4ewBtbG7CxNogMp8PYz3F+xR4Hfj04wxAyyUiyC0vNX9bV49ZlPmNOcQZPkUwn0C/biZN7eHBEF7cxpWa+agQIgiA0hwjLNGVFdRDfVQWxrS6I9aqyL/OFsLkuZFQsgtBWWHp21qvyVB9ChVqcDgey3UCtEpLs7qZYcat9/ZVguVoJygus6QaTlVQRlpqXNtXjd8vrsVk9E8ptz4Ku6oerbAga35VeTU612TXTAf4ThLZS7AFKVHkakutCN1XGuqkyNSzHfC0kLyIs0wQKx493+PHypgZ8ptYcV8XIrbpgyEg9IgjtAef59jhCqFLljTPAnNrTgxO6uzGlJDW6WFNNWGpm7Qzgo7IGvLzZj0W7Asb4S+a/FIT2hCKzNhAyxvge1sWN03t5cGRXN7qo/ULyIMIyxfl4u9+IuKWYZP66SssLYVT4SlnyFcdUcbo3eiFypKEo7COsBLpnOtEzy4G+XidG5jmNyoER36lGqgpLOzWqUUCRubomhOWqhbCuNoTSuiAqRWgK+wgdHBWqTqq26iDCOe19TFeg4DOjQRnY0er5wWlJD5e8tkmBCMsU5dXNDbhteR2WVqmf1/qJObaNrcFJxW6c0tODXlnAtBK30QUhQ6cEofWkg7AUhPaGbZRSH8djN2CzD3hrWwM+2246Qzgem7B3vF+2C7eNyDR6PoTERYRlirFgV8CI8lxbEzIMUmlGBEIO/KCXGxf1Z4tPXJKCEC9EWApC+/HJ9gCe2eDDUxsaoDSlqtNgeDY5rOaJA70YnS/1WSIiwjKFuGeFD9csqVOtPCCoxGQQIUNM/mpQhhEsIQhCfBFhKQjtz9qaIP68ph4PrfYZAYG+QAhqhYdHezFjQHIHAKYiIixTAEbgnvd1DWZbQTls0Z3Sw4M/H5CFAo/0cQtCeyHCUhA6DsYIXLmoFv/e4jfGZjLIZ0qJC8+Mz5YAnwRChGWSs0OJykM/qzIG1LOGY3zEX8Zm45w+MgZFENobEZaC0PE8t7EeF82v25OpgF3js6fmGqmwhM5H+keTGBrV4bNNURlUtdv4QheWHZ0volIQBEFIWc7pk4ElR+UZifszlIpZVhVUdWH1nulJhc5FhGWSwtyTR31ejRXKoGhYzAs4S7XY+mRJi00QBEFIbVjXfXRojiEu2Q2+cFcA02ZVocFKVSR0HiIsk5RT59RgQaXZPNs/14n3JucY24IgCIKQLrw9KQcj8lxGBpTFu4JG3Sh0LiIsk5DH19YbCc99QWBQjtNotaVg7mlBEARBaBanqvveOyQHI/NdRmL198v8eHZjvfVXoTMQYZlkMI/XNYtrjfGVbKH97cBsI4msIAiCIKQjWaouZOoh1okcJjZjQWNgj9DxiLBMMq5YWGN4KnPdDlw8IBOTiyRBrCAIgpDeTC524cpBmUbd6AsocTm/1vqL0NGIsEwiVtcE8cKmBkNY5ivjeWBUlvUXQRAEQUhv7tg/CyUZSlgGQ3hpcwPWqDpT6HhEWCYRT66vN2bUKfQ4cPOwTGuvIAiCIAjk+iGZxiQhDocDj62RsZadgQjLJOLv6+qNlhhnHDirt+SqFARBEAQ7Z/XxoNofMqZ9lCCezkGEZYLz8uYGnP5VDYZ8sBub60Io8jgwhOmFyvzWEYIgdDTaLgvcZuAc7fLMuTXGfkEQOo/3Sv0YmuM0evY2qTpz+Ie7xTY7GJnSMUFZXxvERfNqjXnAD+/ixo/6erB/ngsrq4OG5/KT7X50zXDgsbFe9PNK+0AQOoLm7PJvyi5nil0KQqdg2OZ8ZZs+sc3ORoRlgnLE7Coc09WNG4ZGD9C5Y7nP8Fx+fKgkRxeEjiAWu7xd2eX7ZQ3KLnOtPYIgtDdHzK5WtukS20wARFgmIDcsrTO6vZ880Gvtic5Pvq1Fj0yHEQ0nCEL70Rq7vEDZZU+xS0HoEK5fUoetvhCeENtMCMQfnIDM2hHAeX1iC845Vx03a4eMtxSE9qY1dsnjZu80p1wVBKF9maVsjXVhLIhttj8iLBOQWTv9mFDotl41z8Qit2FUgiC0L62xSx4nlZcgdAx0rrAujAWxzfZHhGUCMqXYjbkVsXkh55T7cWixzL4jCO1Na+ySx4ldCkLHMEXZGuvCWBDbbH9EWCYgU0pceGZjbKkRnlXHTS2JraUmCELbaY1dPrOhwTheEIT2Z4qqA1kXxgJtWGyzfRFhmYDcPiIL62oCRtR3c9y+vA5ra4IyCFkQOgBtl4wsbQ7a5braoHG8IAjtD+tAoy6MxTbVcWKb7YtEhScoOl9eqc7J1c+DYbkuLK8K4J/rGzBzh+TkEoSOpjm7fErZ5adil4LQKeyxTVuOWbHNzkGEZYLzr80NeGlTA5ZUBbF0dxAjch1G0tczenvww14yraMgdAZil4KQmIhtdj4iLAVBEARBEIS4IP5gQRAEQRAEIS6IsBQEQRAEQRDigghLQRAEQRAEIS6IsBQEQRAEQRDigghLQRAEQRAEIS6IsBQEQRAEQRDigghLQRAEQRAEIS6IsBQEQRAEQRDiQsInSF9eDXxSZq5LfUAZl3pzKa0D6oLWgUJKkqWaPt2ygK4Z5tItU63VMjQHOLyLWudaBwodzqc7lG1uB7ZZNkn7NGxUbW9XayE16UIbtGzRsEe13V2taY/TSqyDhE5jprLJmco2w+2Syw71WkhNEskuE05YrqsxjYIVFpc16rUgRGOgEpiHKaOh8XC9X7b1ByHufF2hbFLZ5seqocd1td/6gyBY5LiVLSo7PKKruR5faP1BaDdolx9b9SXXNQHrD4JgsccuVT3JurK97TJhhOUHqrJ6dA3w6hZrh4VW3AcVmQrcWGyK3OuyDhRSklr1kNStbru3+qty80HKVrmdH/QCLuoPHK0qNiE+PLEeeETZ5lxVgdkZU2A+rIbkNtqjbi13UdtCarLd5gXTtrmiymxszK+0DrKYoCqwGQOAn/Szdghxozm7pIAYrBrd2h61bYpdpi6JZJedLiyf3WgKytk7zdcOtUzv2eiFGquMRBCiMU8ZjPZuv7EV0IV5iio/FJjn9rF2CK2CXg9WWlx0r0H/bOAoZZP0RrHi6pVl7hcEzaZasyKjV/tDZZNrrbIzQJUdVmRcssUZ0Gb22OVaZZfV5j7e26PoIaZtil0KEdhjl8omP1S2GW6Xl6glnk66ThOWFAFXLQJWWsbRQ7WmLlZfjmKALStBaC1sobGR8tg6YGuduY/etHtHAif3MF8LLfOwuoc3LgF2WV3d7DaZoezyp/uZrwUhVuhV+7MqT+yuJflu4A8jgEsHmq+F2DHscqmyywbztXiDhbbyD1VHsnHSXnbZ4cKSn3aFEpR/XG2+HpNvCsoLVcUlCPHiMWU0XHQXwOXKYB4cbW4LkdmsxPjlC4F/bTZfH9tVtWTVfRNRLuwrdCT8WT3z3yszX/+wF/CQskfxrrUM7fIyZZevWHZ5XDdTUIpdCvvK61tMD7jdLv94ANBzH517HSos6YKlqFy0y3x9u1LI1w81t9MNX4Mf9Q0BZGa4keGO7oPmr1Prq1drB7xZbjgdDgTVzto6PxyOELyZHrXmAILI1PsD8NX7keFxIdOjmiVpxh0rgBuWmNujVSOG4vLILuZroZHnN6nKa4E5Tqc4Q1X6o4Dz+lp/TAPEHjuGZzaoxouqA3aqcsbxfqzEzu5t/VHYi3C7/KN6fsnwHiHe0C7ZeClvsOxSlbOz96GcuX6rsLbblftXqYrqa7O7clKRan0dDJyVpg+UsvIa3PaXWbj173OxYXMZxg7rgewsj/XXpnz01Rr89OY38JdX52NAz3wM7FuE9z9fhXNvfAPPv7MQ/XsXYaBaIrGjogZ3/H02bvnrXKxZrz5neA/keCN/TqoytQQ4vrvZmPmmEvinMqACdQsmF1sHCPj1YnNYCsdvndoTeEPZJseopgtijx3HAQWmMOIYL9ojvXDVqtwd2806QNhDutulho2+Wl+D0WBzOaOn3taNvvqGINxup3E8G301qtHnDwTgdpn7osFGX02dOc6Ax6YTtMtz7Ha5Zd/sskPu3oOrTQMhNw4FvpgGTGzncPdE5v3/rcFHX6/H8CEFeH9xKd75ap31l72596kv0W9gd+R0ycWvH5uF+voArn3oI+QUZ6Pv4B6441ml1qPwwVdr8dG8TRg6tAgfzN+Cd7+M/jmpzMGqnmeZu8Hyjv9KlcWHrKEY6c71S1QZW2luPzgKeHUi0Mdrvk4XxB47FpYvljOWN8Lyd8NSc1swEbs0YaPvNw/PxJEXv4rfPvqJ0TiLBht9x1z4DKb+9J9GY4+ikmu+5v6PlP1Fg+f97aPm5/zm4U+Mz003+mq7tIaM7YtdtruwZAV+5UJrW13wbSPM7XSGPW3V/XvjleETMPfEk/CyPx8VDXuPSOAohVpvJl7b/yDMOuYErPj+cShVx2X37Yo5Rx6LFw84FF8efAi2+yJnia91ubF2zAF4btwRWHrMkVgSSi/vSDgcnKwrsytUmdTjfNOVm5cBd64wt1+cAFw+yNxON8QeOweWN5Y7csdyszwKwG9UZS52aSKNvo6H8Qgv7KNdtquwZMXNCpxQBV8mkYAGPQf1RvWIYQj5Qyip2Y25jjzMr9y7MqLbvnDSaPjcmSjevAn1eflYW+fAiWceiga3B0VbtqA+Nw/vlQWsdzTF2acnKvv0QXbpNriyvViY1wOlUSq9dIEP6QcscclAlT+lqbj83XfA79VCnh0PnJHG49zEHjsPlrtnVPkjLI8sl+kMv/9tqjIn6W6XRBp9ncOZ+2iX7SYsmS+JFTd5QIlKqmDBZP++BRiS7wGrn0BmBobmuVGSEXnsxy+m7gd3wIfi7oXIdQSQ7XZgeO9CeBBEUL23S2YI++dFDjYY2sWLnq4AGrIy4VLvG1bohtcZfYxJunCFEpf3W+KSA5aZAzOdeHUzcIvVCn1ynDm2Jp0Re+xcOOaS5ZCwXLJ8piNN7PJAsUsijb7Og3b5hCqHhOXy32GT1zRHuwlLDjwmHFN5hYjKJrDS+p6zEllVNdjt8OD7mdWoWb8FcxZtwpcLNqJsZ7UxEJlMKXaj28YNWJ2Rh5/3y8DwXCcmFbkxpr4Su7p0w8X9MzEq32kcX7qjyng/z8MlZ8dOjNldhobMLAwO1uGSgRnI80hFRq5U4vL6Iea2LqvpABv711pR8vcqcX1+GkV+R0PssfNhOWR5JCyfEZxSKU2D0jDXaLscqe6H5KY0kEZf53KBKof3qPJIrlH1pNL3MdEuUeHsk39hE3BgAfDiQdZOoQnbN+3AB0u3oi4nD6v/+zXef28x3pq1Bu98uRkeZxCjBneFx+1CpsuB516ag7J+ffHUuGx0z3LCq8r7/AVr8Y0jBy9PykOOshVGzT37zhLc/vR8vPnpCuNcr81chXVVflR374Lj8/z48fA0jpiKAGereE21wr6tBILKYDijTKpztXo4vL0NOKwL8Jcx1k5B7DEBOKTYnB2E9rjbD3wvjSLFaZfv0C5LlF2OtXYKyFb2VrpyIz7fGUJ1bi5mFNWiV3UlNpXuxsatu5DpcSE7KwMM9u6e6cSTH36HDd1645L9PPhhLw+6ZjjxybJSrMnvimsGZeA0tY9ysWxnFRatLMXmst3GubLr67F0dRmWZBdjJGpx74QCw7YF0y7ZA027VI8vI49qS8T9zv2vvHHslm6BCntz4PCemDiqDxqys1F0yAj0+f5B6HvyJFQM641/7fZgDZ+sFkEjxYIDNXqXsowG7nMoY/Obrv1anx9fb6s23s/z9DzxYHXOCSiYOAJBrxe9u+UZxwlN0WX098tV2bWmFU1VPlIPhwdXmdt372+uBROxx8RAl0uWU5bXdKCJXVreIaGRodkO5G3dCFdVNf767Fe4+M4PjeXS+2fjpfeXGY04ku9xoMf6DXD56zGjvwe5bge6ZTgwob4cznofLhmYCbXLOP7lD74z3q/PdcGt72LBvA3I8NVivNePAdlxl0ZJjS6XD6hySpHZEnG/e7+1xohcNVgSUTdHv54FOGmcqnRynNha2AVzi3vh68Ie2DB0GD4ZdACWtTLbAT3Um7PzsXLiFHyR3x3zS3qqc/bGjsIiDM11YXjXHPNAoQlHdzW7xcmtKR44cKtlmzcNBSZGTrWYtog9JgYslyyfRJfXVEfssnmk0df5MGXfTcPM7VjqybgKy1XVwLulMFoFv7UuIt0oq6jB028uwMvvLcaqjc27wI7r6sYz4714Vi0vHZSDVybmYOLGVcisLIeffbOtwoGAek92+Xb8bWw2Xp6Qrc6ZjefU+q9jvTisJPLYErJqw07jenndvP5049bhpiH8V5XdNSn69ZdWAZ/ugGrFA7eo75suiD0mH7eouoPllOWV5TaVWbI7Pe2yNUijLzG4WTV8OMxn5nZll6rcNkdcheXzG801pwKioaQbvoYA7n7ic9z3zP/wh7eX47rnv8UrHyzBc+8sxOsfL8P6LZXWkSa9vU5MLXbjUGuZWOhCl9pqeAIBVfibr8hczqYVE8eYOFxOuAMN6lweI6BAn/eQYhd62MaLLF+3A69+uBTPv7PIuL67npyNO95citve/A53Pvm58T3SiTxVVs+xglh0GU41XrC+F2e7YsMvHRB7TE7c6tboWdl0uU1VXtxkrtPJLjXS6EsuPLRLK1MBY2iaI77C0vqwdE2T4PcH8fH8HXAdPhGrDz0Ub3cdgms+2ob7n5uPO56YjXe/sKZSsOBUUytUpTLvu61YsHybKrTlqK5rQDAUxPrNu7BoRSm+W7PdMAJGmfJYHrdwxTaUV5qFeqUq6Dxuyaoy1NTyvaqi2lhuHMfz8j38HDvvq+u48x+zcd+z83DHU/Pwfl0+1k2ejC1HTsNL1fmoS7eQTIWer1iX4VRDC+Z0mkZV7DF50eU0VRt6mnS0SyKNvuRkT4OvhXrSEWJm0TjAXIBHzAYGZAOrj7F2phn1qpDd8JdP8UCPA5BXXgFPfjZ8WV509VWjtLIOAwrceODw3jhKtb7I8vU78MTr8zBfVTiq7gKHgmx25GDxIZMwZtG36KZaY6zB1jnzsPSIQzFt1sfw+nxqVwhrPDlYOW0ajpz5PjzBoKpEA1he3APbRu6PqV/NgrPeD4c635hhPfCT6WMxtF/jJLPnPz0fb+zKQGH3AuRkubHS54RndzVrYjR0KcKm4/JR4k0/l3P/94B1tcDMKcC0FJqTl8EBRynbHJKrytxR1s40QOwxuRn6oRLvVcCHh6bmeP10tUtSrRpdh138KkKThmFFSS8EquvQY/kqFG3YBLfDh5+dMhY/P83K0K1gY2zTtkqjoedUyjDHm4EZf/8Ss0aNwy09AzihmwsetxNn/Gk2lkw7DC8NqMcgb8hoBN756Qa80mUAPhgVQhdHCOVVPlw/exvmd+mN9ydmIdtfrxqAIWV7HvRWNpitbFDz5xe+xFP/WYigI0upJSd29OuNXaMGo8HlRsGKdVh05TgUZKeXbQ75QDWg1ePpI2WXR0Sxy7gJy3tU4595jq4alN7R4Ot31mDIZ/XIUAXY4XYhxxlCX1cAC0vr4MzPwaNjs/DjvpnGsfRgXPDaKmweOAj5quIIKiOoV4V3qyMTXUL1yA6ZraE6Y18WegXr1HnNpK01ISdK1b4+wVq41WfwV9wNF3Y5M9CDx6lKbHdNPRp89bh2eA6uPagxl87055bizczu6J/jQP88DxZUBFCrKkOjMlUtuS3HFyA3em9AynKVKr/3q3LM8stynCrctQK4bomyzyFqO82iwcUekxfms7xbld07VZm91so5m0qks11Koy95oc6j3rtrpNoebO0MQ93O+LDOGm6wX7a5Tld6F3GsRg4mlmRgeg8PPp+ah3t71KLXgiXwq0LtYgm2YMurKiMTZd48FOV5MbRLNkaWeHFcFyfGdsnCYPWaywFdvDi+iwMju3oxuETtU8sY9ffjuzowopv5eog6boLad3SJE8PVOYaoxZuVgYq8IpT6m/7MzPvqUNY5o8iH/0zKwazD8nBK7yxM7uLB0+Oy4Y1bqUgu+qlGKdFlOVXQ36ef11ynE2KPyYsur6lmj5p0tssMjwuXnX0w3KqxF+hWDF9uDnIyHCgp9MLv9WJVViE21TV2M3NYyTs1WZh72FFYccJxWHrssSg7diqCebnYMOlg9foYLD3uWOw89lCEMrKw4vAjsOx7x+K7449DxVHTEFT7lh11tDrmGCw/4XvYPWk8/AUFWHqkeb6vpx2BxwsH4d/bzIaipsKVgV09usOZ60V39SzJy/IgVJKPYNdiM69tRvr1JPSzNF5zdhm3R9b6WnOdjkZix6UqiVN7e/Dvidl4bEwWBuQ4kaX2Of0Ne40EcbucqqXkQFHAh9tHZOL+3nU4Z9danLh1OU4pXYHTylYaC7dP2rYCp9r2naqW8H3TS5fjzMq1uKtnraqgsnGqswIZDfWq1lIXYIPTX5EcdbFMQDss14nH1bX+++BcnNzLY3yHdEQ3ilKtIktn2xR7TF50edXlN9VI9zpTGn3JyR67bKaejFtX+JiPgQW7gG8PB8YWWDsFg7lLt+LcJxZj5aQDMW3TCgzYvtUwlN3VPsws3g/+kYPx+pQCbPxqKR57SxmVy6NaQ62vTRiswLxdPz5mGP7v+JG48b+rcU9lLkZsWYeDKrYY40hcqvKc6SzA6hEj8ciAIH4xLg2mm4kRziww7hOz/LIcpwoHKNtcqGxznvpOY8Q2xR6ThPnKHscqexydr+qWI6ydKYTYJUD/YFWDsgMl0Niw4tSn5z6xAOumTcIT43Nxbh+PcRyD4aa/uR47+g/Ai5Pz0bu2El8t3Yaauvo9DbPWQNnDGXsOGNoNoweU4NdvrcKjtQW4pK8L900qto4CTnthGd5wd8HD/QO4aEJ3Y191IKRs14Ecdxw9c0nEPGWXByq7PEDZ5fwodhk3YVn4NlDZAOw8ASgyy4JgUbqzGre+twaPZPfDAeVb0a9uN4KqNVZfW4c5GUXI6t0Nr6mKbOmnC3B9qReVPXqAgWmtNZiAauXVNgQwyeXDZ9N746b/rsJdqiLrqz5vdF0lGtT5XOqY1blFWJ5bjH+N8WD6gFzr3cKOeqDLOzDufe1J1s4UQNtmubLNQrFNscckoUKV2SJVdgtUma1QZTfVELvcG2n0JT7lqswWq7LLMsuyG4m4CUvH6+Y6NN1cC43wDs8s9WH6XJ9q4ejb7UBQVSq7gw70dPrxypRCVZEtxNUVBfjeoEJcOjIfnGs/1h+HLvuF68tx4+wydO9ZgK+n98INb6/AfVWFCGZ6kOfmJ5tn4//scnv94BwcVJSGUQFRYGoY1xvmvQycbO1MAcQ2myL2mDykctkVu9wbafQlPnxeOVXZ5R0PRim7IizbCbZ42NLS8CbXK+Viv9srVpdi+lsbsWvAAPxnagGWfbYQV1UW4KfDC3H7hCIjkjQW+BPSsL5auR1nvbUeBf174ZvpPXDdWyvxYE0+LuzjwkOTS1AXaPxwXhsTnuorDL/edESEZeoi9piciLBML2iP0uhLbHhPWhKWMT4qhVhgZfDhl6txxP/9E8de9QrufWHunsLOHyFTlegsVUj1wsrHqDz4RxvBPcW6ZWrqGvDAM3Pwf3e+iyxvhlVR2t+tWl7W+e2fzUpSf+yfXpiD4698GVNmvGBcP7+HICQ7Yo+CkPjYyzfN77DumSg9Pg9bvpdvLXmYNdyH/mtWwqfEpT48pI7tmQGML3BhfKELE2JYxhc4MU4dv79X2b+vVlmmKYE4ZtLhCGFGtwB2fl9/bj62qmXtsfmYYBOVYo8tIx7LOMKkr0fPeAbOMSOwurAbgjvK0at0C/J37lRGEFZbqdeh+gYsHzEaweGD8MaU/D0ekguGF+COCcWq4rOObYbq2npc+9RXeNdRhAeP6YPL31iJ/AE98c30nrjpv6txd2Uueq1ZhQErlyNgTNDfFIcjiC3ZqqU2bDDqsr3wrliFudcfhoJsZbFphngsUwuxx+RHPJapCcXZx3PW4La/zoIrPxvfm9gfV501IbxNt4dFK0txylsbUTGgP/4zpbE3oTW2yUbfYy9/gyWbKnD5jyZj+ssrUWjZptmbUIAZfZ24f1L02THY6Hvzf2tRXR/EredPxBETB6RdzwIFo3SFdyAsuJMvfB4LzjkHmbsrDOMpzHBgVP0uBMJMhoWxrqYOC4JZyCvOw2tTTfd+Wyqyy579Fi/l74d7R2fjnv8uR/7A3oax3Pj2StyzOw/dnX4Mc/jQwCZeGOx+m12fxcRiYM9cQ3Yutkx1okeeCMtUIV1tU+wx+RFhmZpIoy95iUVYxvBzCLGSmeHCrb+YAkdtFTy1tdgv1wNHZgYyendHRq9uTRZPr65wqXXQ61Xq3jpBG1GtAziDQYSPAKFQcjicCOXkRLwG8zq6ISsvG56aarhqauHx+5CVKWNJhORH7FEQEhNqx5qgC5+PmIDy3HyU9+uHTYdMgutYZa/HNF1cavEfMRlV3boomwoa720rtW43thYVY6NPveAUPhYhZa+UTIFB/eD63tS9roGL59hp2DBxIjZ17Y7S7HysnDwVtek1VXjMiLCMIy7VyvnewQNw49AMHD2kGBO7ZeKxMdn47yE5eP/Qpst7at8j/RrQe8smIwJtX/zGOiIu0ik4buT0ogDenrz3NXB5R+1/9MBsHD+sq1qK8Rt17dluKRZC8iP2KAiJiTT6Uht5YsURTng/c85qvHHrM9j68vs4I3M3Tu3pRiCgWkJhiz4+9rCAyGRluHH4hAHw5mRZra5w1CdYtWS06xheVY4NL7yPJX/7Dybs3LyX0QlCMiL2KAiJiTT6UhsZYxlHOKbr0J8/h+0TDkBDUTEa6nw4tiiEUXXlCIRpeJfLgcrtu/CUrwDBYQPxRhsHJJNtviBe2+JHn5rduOy9dSiwxo3c8M5K3LsrDxPrduAUTxVqIrjtszwO/HVlHWr69UWtPwjP9nIsvXQ0iiV4J2VI5zGWYo/JjYyxTE3YiPvgf6txzUMfIrtPN1z3k0MwfVS3PY0rO7TNb5dtxQ//uwmVAwe0OXgnEAjihYXbcdUGN3430Im731u5Z/zz9W+txAM1ebiotwsPHtIl6nXM+64UMx7/Ajt31+KBnxyEYycNVCJ5H/rmkxDeGQne6UA4IPnIXz6HOaf8AAW7KlDvD4CD77OrdqkfI6zwGb9KCLU5OejqdeNVI+lr2yoyzZwVZt48Hel287urcEdFLpzqJ86qY2qFvQ1Atf9QlZePfPV3zqtV4c3F1iO96J6XflNBiLBMLcQekx8RlqmJNPqSFxGWHQyjTt/6ch1O3loET8BvTDU1rMCDC/plwhehBVSxswqPLa2Eu6gAr09rWxSqnfCK7Pq3VqhWWCEOKnbjjAE5TRIya+jJv3d+JbYHHAiymyDDg+3H56GA4alphgjL1ELsMfkRYZmaSKMveeFTS4RlB8O64s2tDXhtqx9Dc104vpsLYwtcxo8RzqIV24zcXPvi3rcTbixGbq7qfMzo58b9k4ojXgMLx9xyP97a1oANdQ5M7+HCCd09e5I4pxMiLFMPscfkRoRlaiKNvuSFd0bSDXUwrABO7unBA6O8uHKQx6zE1C9RW9eA8so6VOwylxrVYttVVb9PA5H3RrWzbBUQN5kqr87XYLQQ9WfzOng9umabUOTGtUO9uHdkJk7skb6VmJB6iD0KQuLBvLEnHNwfrx2cjXMHZuOm/XPxjwOzcdnADFw9JHOv5axiPworyhFQ74uvjZoYHkp14oNyQvhllGu4clAmXj+iGDeMzsX5g3Px6sRs5ErwTkTEY9kBcGL9p/+7GEvLahEIMQ+X0zCsut3V+G9WdziHDsDrh+arVtgCoxV2ak9VkFXF4ogYVRoZt8uJ+et24uqvK1A0sDe+Va2wG99Zhbt35WD/XdtxaHUZ6tTnmlbpQL9uufj5cSPQuyTbPIEgHss0QewxeRCPZWrD0l+p2lRZrhCy1IOX5lCrGl51vsCeRlmGx4V5y7biR5+UYtegePUmlOHstzegoL/2WK7E/TX5+Fm3EO6ZWIz6BnOQJa+HKYW8mZ4911OnHgP0aBZ4HEZjMd3gbyZd4QnA3KXKKP66EMunjG+aOkTd+gaXG72cDXhlahHWzVmKGVuykVFTi55l2+BUlV6sPw7Hf/gcLpT26o3+PQrw5Uk98Jt3V+HOilwEsrLg8fv3zGjAbghHIIi/DQni/AO7G/sEEZbpgthj8iDCMr2QRl/iw7siwjIBmLNoE857YgFWTjsE1w/JxEk93Earp2xrBa6cXYb6nt3w+pRCFO8qxy8W+rEg4IFH/Xw651as8IekS/97JcDTU4r3zH96svq8X4/OR7U/BK+qSa9+fwM+dxfgz/3qcdGEHuabBRGWaYLYY/IgwjK9kEZf4sP7LMIyAWBFdq6qyNZNm4Qnxufi3D5mFNmC5dtw2tvMzdUfr03Jx6HFbuxSlQ3d7K2txOx4lTLKdQPXvW0GC1zcx4UHJjdOrH/q80vxH09XPNw/oCoyMRaNCMv0QOwxeRBhmV5Ioy/xEWHZCeyoqMHbn6+GKysDBw7rjhG9C6JWZPO+24oz/rsFW/r2xZU5uzA4VLenpeS3RaUxYo6efiaV1TApK+fJb1AGoHFbo/z53rxMF55eWYX3S/rhol4OI+mrJrwi27C1ErNUS7G6zo+TDxmIbgVe68j0QoRl6iH2mNyIsEwvpNGX+PAJJ8KyA+GA35sfn4kXtgRRNmIYujiDuLS4Drs3bleVSg02TZqAJyY0GsvydTvws5llmFXUF9m7K420C35VYfEnYVJYw2DUr+NnBab2mRUVl5BZ0am/u6mCeJj6O2cL4Hv4XqPrwOOBz+vFNb2BOyYUGp9JTnl2Kd7M7IozqzfjmO4uvPPdDryX3QO+rEwc6a/ES+fuj+wMZW1phgjL1ELsMfkRYZm6SKMvOeFdFGHZgTCFyNRLXse8k49Btt8HHyslpwuZNTXwZ3qQmZmBR5SxnNfXzNRfowrn49/txotlqqCr1zSKhRsqUZFfhMGZAXRVO2kQ364tR1WXrhib5Uc2xxSrf6vLfdiWkYODcgLg2RoCQSyvqMeurGwclKfOFwwYQilTGdBFg7w4Y78s4zPJmS9/h1ccJXD5G+DyNcCXk4tMBFRBCaHW5cHWY3LRLdc06HRChGVqIfaY/IiwTE2k0Ze8qLspwrIj8TX4cc0jn+LPvUbDW10NpzcLmd4MDHLUqV/ChcElXlw4JBtTSqIXxB/c+QHeGzoWz4zzYnr/HGPfhCtfw4LDD8N3R+VjQK4LftXyuvLlhXg0ozfKTipGUYYD5bvrcO6LSzE7rwfWndYDhR7+7JH5x6IdeHadMuKg0zC2BbUuBOt8bNLBUZiH9ccXoiSrydDptECEZWoh9pj8iLBMTaTRl7zEIizVrRfiRabHjet+PAnnZlWhoDgXw7p48eTB+fjipF744vvd8fSk/GYrMRI0imyoyVylQRd/Jgeq/eZr/qKqalTrEKqVkRCu6pl9WbXCIs0aYOeno0rw4fd7Y85JPfH593vgnmEe9CvIQHFxHn43PAsFmelZiQmphdijICQmbiUMp44phrOhHo6qGmSHgihWDbIDilwYl8sZp9zoT2VokZ3lxpVjivC/o4swSy0fH16IwzatgDdQj7uGZ+AztW/mkUUYunAB3CE/Xjkk3zhu5uFF+KG/DE4lDP87rdA47p1DcjBp91bk1NXgnan5al8xZh9TjI/U++2ikhw3ogsO8/owRrUpx3bJgFeJSqhGX2h3jdoOwiUJ0iMidyXO9CzKxj9OHICPjijCy5PzcEL35iuucFiNqfrJqKzaRCiEDLrcWsHFowvx7lFd8IkyuiuG50DZvCCkBGKPgpB4SKMvtRFh2Q5w2MbQPBf2s7W4wlm+fgd+99K3+Mk/5+Hnz5jLpc8vwBK/B/UuZvlvXW1CA6OZ1Tk9+NWrS3Chdc6fqeWXLy3Cpyt2WEdGhtc6OMcp08cJKYfYoyAkHtLoS11EWHYSC1eU4m/zd+AZb2885e6Fpzy98BdHd6waNhL13lzktHJie2+mWxlqLurzC/CssyueUOfjOZ/29MBfAiV4ZfUu60hBEMIRexSEjkcafamJCMtOwufzI5CTj1CGB2f08eDqvsAV/Ry4smcA9/SpxfgSc9ByrDAy7ZeTe+CanJ24so86lzrfjYNcGBOqhT8zExUN1oGCIOyF2KMgJCbS6Es+RFh2Ek7LBV+IAC4ckYfbD+mGu7lM6Y6rR+ahl7fxp+GUUiTLZa7pws/mWJKQw5i4n/B8B/XOw13q/cZ51HLLhBJMzfHD1dAAzrcqCEJkxB4FITGRRl/yIcKyE1izqRyvLCjFrh7dUQ4P5m+tsf6yN/e99DU29ukLvysDN8+rwq6GkOGqf74MCGZm4cdvrkU9cyVEYHPZbszbUoMGbxY+3BnCx6vLrb8IgqARexSExEUafcmHCMtO4KNFW/FZVgmCeV54aqvx6Jo6LNxlC22zYIrR55dUoGK//dC9fBteKg1iQXkDrnxhHnb27IWuO0rxUTAX8yv3fi95en4pvsosRK7Ph62Z2bhvaQ1222YfEARB7FEQEhVp9CUnIiw7geqAA3VZOUYyZKffj9KgGzvr9y7wHJRclZuHgNuDhroGBDMy0aAaYhV1QQTVvgzVsPJ7MrCyOrKxlPudqMvOhifYoM7lRrnD02J6BUFIN8QeBSExkUZfciLCshM4e3I/HB7ahTpVK9Xm5ePsPhkYWxA5H9ZNh3SFq7YWO7p1Rw/4MLzQg5tOGGrs25RfhH6eII7rFjlNw0/Gdcfo+l0ozylCnsOPK0bkoGum/OSCYEfsURASE2n0JScypWMnUV0fwM66AJxOJ4q9Lnij5C7gr7Op2ge/MrB8rxtFHicCoSC2VvnBHLAFWWpfRvTKqUJ9RrlastX7SrLdknerGWRKx/RF7DExkSkd05uy8hr8/KVleKegN+q9WfhlXxd+PzoHBRGmSH3m8zX42Tov6rO96On04+tjivHml2sxY2sOApkZ6K8afXOPKTJm+Annu9IanP3+Fnxb0BMldbvx6PhcnD7AnMJVaAoFY0LMFd5/ytVYt6lpbqj9epdg7ax7rVeNvP3xAnz/pw9Yr0xCa56wthpp6bhFyzdh9HE3Wa+a8tgfzseF5xxuvWodjgE/MdY/Pu1QPHXf/+GIs+/CJ/9bFvX7xJvzr/ob/vnqbOvV3vfx8ec+wUU3PmW9asrCd2/DqKG9jW193ZHgdztk/OCo5yG81/peEH1u/btEux/N3a/f3Pcqbnv4P8a2/VqjYf+Nb7r0JPz+qtOMbTv2cvLWP67ECUccYGxHQoSlICQWIiwFafQlFrEIy07rh6HQpDBhxa+hKAoXi6Stx0WDgonnSDYoyuyikuj7GAsUYRRj7cGL//nS2hIEQRCE+JCT4ULf/Az0znVHFZWEwdx9cjPRn1MuKgHJ124lRvuo9/ZXS3OikhRmuTCgMAPdc0RU7isdKiwPnzTc8HTRG6WZ8Zt/WlvAHY+8aaz1cVzo2SL3/OUdY01iPU5Db1b4576QZEKIQlh7GOlx5fehB05Db184/DuP4/GacAHI+6bvoV7oibWjz2Nfwnn6359bW22HHkd9/ua8lfTaUky//PZX1h5BEARBEBKBTvFYUjRQ7BF63OhFo6dRd5efddLBxpr86NRDjLUWVbEeFwl+rhagazaUGetIsOuewkUvrfVu8nj7+ymEiBZEXAi/t36tP0N/dvhnaiHM69fd+OzWpbgms+auMNaROHTCEGsLWL95p7UVX/ibxOItbg6KY30/tGfVfo/0Eu611diP0WXK7tnmNu+vIAiCIAjtQ6d1hU8eN9jaAmYrUbRhS6Pg6duz2NoC+ti2KRRiPS4SFBtalA7o29VYh0NRoo/RtKbrnJ8dPjaRQoii8swTJ1p7zGvh99Z8/vXKJtcXPgZUC+bDDjaFpObj5681PHxcR8P+Of16Nd6neMExmeTFN+cY63jB+2EfQ2n30NILe/oJB1mvsGdspuaex/f2XAuCIKQCHBZlb0hzKTxgBqb//I/N1lVbSiuMusjuPOF7mnMKsME/9oSb9xzP7UifYXcMhC98z/NvxNZL2JZrTDR4vbzuSPeJ98H++/F78t7xe2v4XfXfuSQbnSYs7Wy0icX2gKKDP449mOfXvzje2mrEXgjYbW7vOo/1GnVXvO5i1qKL4tIeOEKxZz/n+s07sN4SldoLua/QQ8fvbRe64QEuFLL2AhypS12fh0skj58WzNE8iW1F3w/ChkM/y9tMKMTt8D7zfut7x/vJ+20Xo9zuiAArQRCEjqZydy3e+OBb43mve8nsULiMOPoG4zltd57wPXzGRxJBFECsP+cv3WDtgbEd7TOiwfecc/ljzYpe0pZrTDToEOH12nsXNbxnvA/2nlV+T97j4y+439qT/CSEsKRoiEW40VsZ63HNQcEYKTqYhcA+xq+lqORI6C527RFldLWGrRAtfPg92H2tX/N9X3xjiqUptq5rwoIaTnjrkA+A5tBCtz2g4NMCOtIY17Zi/43Cf3f7fSXhntjmhjoIgiCkMhRm4c/i6+76lyE+o3HtnS818ZpRxDU3tIyf0VovIj+jOVp7jYmI7i27fsaJxlrDe9Wc84XiOxmEcywkhLAk9q7saLDrO9bj7OjgHU1LEcx2waaJdWyivZUVCS0aKSopfviaoo/v0+Mk7cMESFsELqGHTnvseP5IDwEtOPUSKWUPz6H/Hs3jp72WzT2I2gI/k7BFpz3O+5IuShAEIZWgc4LPST6nC/K81l7gz//80NoynRN2UXPZBcfs9R4Kumde+8LYJjpIlvAzNn/5gOGUGTOir7W3aS9fOLrOsAeP8jOiidG2XGOiob9DJG+lXejz77yX/H7aKUMefeYjayu56TRhqb1zhMEl9gATu8fR7qmiZyzW4yKhf8BoEcws8FpMajHVWlhgmkOLRgowij0KZT1uUouySN5U7dmc+aV5jI6gthfKSPBc+priPQbSjv1z4oX+PXQ3t15aIyqjlQVBEIRUgs/gu647w3plOhO0s8I+zp48dMs5xprvmX7MOGObaNFHgWR3knDoWM9uhYaT4+LzjrT2ml3ULRHr87q116jrBy7ssaPI5ThTvmaXc7hnk6+5Xx+jxzbasfcEcvvyW5/bczw/o7kgWaK9lZf8+ChjreFn250u9GZqh5E9C4t9yEE0OEZzbNiY10jjV8OP47jP8OuP5Z60hU4Rliy09EARCibd7ayFiT0VkBaBrT0uErr7NJr3zt6iYGGOdExL6C5w3RVrHwvIc3KxQ6Fs78bVAjIcHQHPa7e3EptzrWu0cI3l2H1BR+bHC9344HVr49BLW2hpiIQgCEIyc/LRY60tk8WqriV2x4vd40js9Y+ut+zj28mBI/tZW3v3CLI+b45Yu3dbe412uI/jPnU3OuuMcy5/3NgmFFAcw8j9+hjWpdQh0caK/umpD/DHJ9/fczyFYXOii5/B89O7et4pk629Jt8uXm9tmdgdZETX+1w3J14pFjlGM3zMa/j4VW6HH8dGwIk/fWDP79WWexIrHSos+cNQFNiDaP5063nWVuOYBH0cF91qsgfbxHpcOPaWU6SxgP16NXq3eE4OFm4t+vN5PTwHfzRi9yzaxSNFsL3rO3x8pYbXrt9HA9LfOxbs0ejhhqGv076EFyp78I5eInGmLf1TS4R/bqSgIHplowntaNcQjr2Roe+bIAhCKkKvop3wsemkqCD6VIW6Hg0n/Lx2wkWoRj/b+dzVUHSFO1ci0dpr5D72MtoDbqkPtEh75OmP9ogs3QPGrnbCOjqSmCvMzza6/z97+QZrj3nOaPAzyC/PP7rZ+0XCnV/27C7RNAC5/u6XrS3guYcuanJt9vGr9mEM9iEMdDLp36st9yRWOnWMJb+I/QZTPLFwhBMebBPrcZHQAo8FJLwlFZ4YnGMztbBhlHEs8PPtY0oIP9N+bl1w9Lnt3bXh4yvtsNDZBSrhZ+mcoNHgNWkvL1sjLbUw2wp/y/Dr2xf4+/B30oWei/13/2zOcmurecJ/D0EQhHRiV1WdtRUb2oMVbx69LfqzuLXXGA7rOdZBdmeE7vX6z4fzjDXRjpbjpo0y1uTdmQutrUbY+0iB2JzQ09D7Rw8nhfOMHzUOFdDE436GD084++SDjWuzjz/Vvaz241atLzPuy7y3f4fX/3rZHo3UlnsSKx0yV7ggtAWOaaGwDA/WoXdTt1Bbaki0BpkrXBASC5krPDL62UgopOx5jO29MnQ6sOeHPVV0KpDw4+1/I2zAU6DYe+y4TxP+N/0cDj9POHdff0azPYrxukb7vdHfv6WeKu38iXYN9vfb74VGv09/XjjN3c9IRDo+lu+r77F9H+F34XA6ez0a6z0JJ6HnCheEltBDE+zjVHWrjR7YeIpKQRCEZCe8N2r/IXvHG5RXVltbexMtAJMeuWhEC5Ck8LH3Fs36Kvau1bZc474Qa49kNOitJLEOBwu/nzrIhoJwX7qgd1meUYpb+32iyOSQBDplYu2x3Jd7IsJSSFjYWmKrieM9aHRcOD6X+yTRuSAIQlPCI6tHD+9jrO0Ck+Pq7MLGnkpPB5/ag3XIJ//7ztraOwgyfLygHXswEYNHmhM1rb3GtkIPK0WvfbF7R1sLh2yxG5r1UrR70dz95PfUYx0pAAf1a/v3y7e6xdlF/sWrNxnC3h4IRafMjfe8Yr1qJN73RISlkNBQXIYX+EjueUEQhHSGXaX2AA4KCi10Dp80zFhr7nz0bWPN97z+/jfGNtG9QBxbaBckf3n+E0MAURjacy2efPSB1lZkeB77Mc3lkG7tNcaCznsdycvJ76MdFvsysYcOlPn1hdG7+Xkf2B2tueuxt4x7yWtgUngN73m0wJ9onuFvF6+ztoCRSpzzvPR8Tj7tNiOCn2Mr7UE+6zZtN9bteU9EWAqCIAhCkkIvF4UAx9/Zg0Ts+SYpVuhR0zCNTvh7wtPk2N/Pz+h18JVGj5H2rhH7mL1o2IVgtBzSpC3XaIddyFzsYwt1Wh97Kjydz1lHcZM+PZqmUIoVeivpBWzOW6mxjy/lPeS95D3VmWPItRd939raG57fLgaZeojf135v9L3mPeB18fooFu3s17uLsW6ve0JEWAqCIAhCCkGhEy767rz2h028kOEwubrdW8b324VeOPxbLN5De3e4FjvRaO012pl6+u3GorGLPUZqa1Gmh1bZg3QYYd0WYvFWanivWrqfLV3HHdecbm3ByFNp/746OT6/s04bxOEHFK/243S5aK97QkRYCoIgCEIKQEHAcXWRhgtRkL3z5K8MAWP3fLGrmmPsInkfeR5GOtvFHrejfUYk+Ln27nD7xCbhtOUaNVpMEW5TpGp4Xo455Hl1eh6en9/tuYcuNF63FnoMKZR5z1vyVmp4z5h/0t4t3pr7SbHH94f/HtxnvzectYjfLdI91I2B9rgnGkk3JAgWkm5IEBILSTckRCNa+p2OQqf0sYu1dEDSDQmCIAiCIMQRilqKSnoe00lUxooIS0EQBEEQhBjREdPNJXxPZ0RYCoIgCIIgxID2VnJso3grIyNjLAXBQsZYJhfhY6w0HIA+ZkQ/YwqzSJGNjH7URJqCjd6IZ1/7Yk9aFZ7vsIOHG8EAHPCuaW4KO1Y6vAb7eyJNS9cSevpSjX4PU4gwT53+GwffVyx4xNjW2N/LAfqxBlskEjLGUhASCxljKQhC2kExxTQbTMdx/lV/s/bGBgfkX3PHS01y9fF8TMcx4ugbYp5uje/neyj+wvPIxQoTHdtFJWEkKqFYteehYy47exoXim77e2NJhyIIghAPRFgKgpCyUNxdfutz1qvmoUfRnlw5HIo3HtMaKO7sM2u0hnc+WWBtNfK/b1dZW2YeOjsUkxq7yKS3MtZ0KIIgCPuKCEtBEFICPd8tc8LpvGyEM3g0N0exxj4rCLuyN3/5gHG+u683Ew8TCs9oXksey4XXYf98+3R0rcEuFDX2c9FrSdGo0XMxc+G2RryVgiB0JCIsBUFIKZgo+JfnH229Monk/QvH3nV80lFj94yNZOQnkwtTxHHO3SnWNHHR4ID+A0fuZ70yPZ2thd3n2nvKcaAaXqNdJIeLRs7FbJ+PWbyVgiB0NCIsBUFIOcK7iRd917LH0u5l/NNTHzSZZ/f1v15mBL+0JCrjxRsfzLO2gP2H9G4yU4ddJFM02v9Gr6vd8yreSkEQOhoRloIgpBz26G2yfnPTIJhITD9mnLVlehkvuvEpI2CHAUCxBu0QdmF/u3id9aqpYI2Vz79eaW1xmr5hTQTtrK+aXssvzm6cyo0eTe15pZdVvJWCIHQ0IiwFQRAU9O6Fi0AKTAYATT39diNivLkIb6Yx4sIUSPbub7tgjRU9lpJjPSmSJ48bbLwm9vGThCmV7HMCa5qbV1kQBKG9EGEpCIKgoHdv1r9ubBIQY4djHo+/4H7rVWxQGDKXZWugx1MLU+bPJOGJmHXaIc0lPz7K2jKRqeYEQegsOkRYMlGvbs3rhfsiwYdq+LGRaOk4DnAP/7te7Kk44g3TkejPaSv0jPD9+h7ZzxlLdGtb4X3RnxO+2D9XX1+khd2G0c7T3H23vyc8Gtb+W4f/LRKx/AatOZ+QPlBccizlwndvM6LBwz2BzE8Zy/ODgvKyC47BO0/+aq9u+ZZ499NF1hYw6cBB1pYpFjX2tENk5JCmXd4dNRZUEAQhnE7zWHIcUHjFzgd2pJk02npcNDh2KpbKQWhk9HE37bOo5X2nKBWE9ia8rB4wvK+1FRsUmIwGXzvr3ibphsjGLTutrabodENc5r39Ozx0yzmtFpXEnlKISd51I8ieY7OtKYwEQRDamw4Vlmxx86FLb4Bmxm/+aW0BdzzyprHWx3HRHgM96TuJ9TgN03WEf+4LtpQcwt7YcwJq7GlMCO+5vv96CZ82Tp9Hdy+ycmytqGeXnj5/c917ugIWhPCyavf8RYLBOXx2sOETPlsPBaadXVV11lb8oSC2pz2KRnjaIUEQhEShUzyW9Abo3Gz6AUlPo36gco5fjZ62TLfWYz0uEvxcLUDXbCgz1nYoeLQ4sW+Hd9uHdwVrLym7YO1zAfNv0aaU4377OaId1xz293MhvBb9Wgs4fb3aW6i7imPxHh5q61JbvzmypyYW7ILTHvEaC/bvpO+1fZ9eImHvFtf3w34sPd/RhmUIyQl/Z6YL0jAgh5HVzbFYPYM4lSOfHwzWsTdQwxurfXoWWVvxJ5Z8m5rWHCsIgtBRdFpXuD3KcfbcFdhg617q27PY2uJDvHGbYiLW4yJh9wYM6NvVWEeD3bYavkeLEgrAcPFKcRLtMyNBQcfKyw5ft0ZcRhJDFEz06GnxrLvs9PXqtU6dYhfm0eBvo+nXq/EetwU9Rmzml9HFfyzwd9RDIegR1Y0U7UG1Yxf62tMtpCYsE7QB2q49KpvJ0lvqkj756LF77IZQZOoGCbc1FKnnnTLZerVv6PPbF/tnPffQRXs89Xrh2E1NeNohQRCERKDThKWdaGOW4gXFBR/aHCeoCe/eCoddwHaRwmukoNGCUHeva158cw5+f9VpTWbJ4N/Du4Z5Di3w9GfoCi2WXHuEIlcLZAorLhr+TUeSUkDy8+zwtfbW2r2R4dgraQ2/nx1eg71SpHcwFvS1txW72CW6UcHzhn9fDn+we8eJ/XfjveM4OiE14RCM8HIbCQrPZx68sNmck/zbm6q8tGXcZFsYPbyPtdWItm0SnnZIEAQhEUgIYUlhEIu4pLcy1uOag2KjpVQcdm8oYTfwepsg0mKmtV44dsdT2HDReeZa8p6GY78H/ZQotX8XdjMfMt70BlNAahGmr5OvKbAoZnktsRDJE7gv2D1DbSFcENvvR/h3ivU7CqmD2fU93Gi4hTfsmoOR1DrdkL2McpsR3vxbR0VbR7PP8LGi4WmHBEEQOpuEEJbE3pUdDYq9WI+zs5d3sY2BOy0J1tZgH6epPZiRxn1GoqWxjlp4UUBSaLKS0hWiDlqyez4iYfeE8jyRuvp5Xi2SucTiGYoHrHB1IBY9q7q7O57iV0h87EFd9qViwSP4+PlroyYItx8bXmZZtihG6cXWx3CbEd7hQo/vtZ+rJcKPb26J5kVnMnT7cXxNwu9FR9miIAhCOHETlgUec13eYK5b4otvGgM4KITsXii7gAv3zsV6XCR0ZLJ9Lt3WEC5YIxGL8NViUgte7U2MlZbGOrIC1B4Xdt3TI6rHtGoRq72azWEfr8mu/n1Ff3ZLorYlKHI5rEHfP73sK7rsFrjNdaqgbbMiRtsUhERAl1ddflMNsUshGYnFLuMmLPezhiatqzHXzcFxcNrLRFFFIWQXQ/ZUQFoEtva4SGgxFc0D1xJ2waqFbHNiKXy8H7GPQwwXe7FiF6/snrd/F/0d7ddDb2W42A7vTo6GPk94sFFrsQcmnXniRGurbehGCcuQ9vpyaUtkvb1xst6K99gv21ynCv1aYZuCkCjo8qrLb6ohdikkI7HYZfyEpVUZ68o5EhRQFAD2IJo/3XqetQVcP+NEY62P46IDLuzBNrEeF469ayxSvsuWoGDVXk8tajRaLNm9mvye4Sl97KJQB8i0Fn4PLa55Di4a/R3tHkl+pl2Qcx1NfIdjF4HhwTm85/r+6yVc3OnvqIUp719L41v1e7hEin5nN5/+LnZaE1mv38/gJH4O0QaTqsKyOdsUhERDl9dUF5Zil0IyEYtdxk1Y6g9pTeuL3Zd2gUNRZI9w1oQH28R6XCS0MKQo1SmEWgPHX4V3XfNa9OdyrT8jErx2+/u5HR61HAuRxmDZu4PtHkm9rYOEWtMVze+jRRjFdCQvbKzwe7YmmCIaOire3hWu73msQVSP/P7H1lYjqeohkQpMSEZEWKYGdEiMPeHmPc4CbseaQURIPPbYZTMOGEdIYW3vE/esBK5ZDFw1CLh3lLVTENoBeoHZMLALeg4HoKeTQp2BG23hKlV+71fl+N6RarvlIahJw10rgOuWKPtU7Yu79rd2CkKCc60qs3ersnunKrPXxjZyJ6lIB7tkD1K0YVTMycqpT+OJ7n0i8Rh3L+wNdR713l2qnrwmSj0ZN4/lQVZqt1e3mGtBaC/69TI9qPYAML0dS9L3aLxiOWMPar+JVToF/X3+LbYpJBG6vKaaPWpS3S7Zs9Tc2Pz5Sze0qddQ6Fz22GUz6XzjJiwP7wLsnwesqQH+W2rtFIR2QA9HsAfvcJseTD3GtLW8vQ1YVwuMygem7T18M6k5UtnmkBxgRRXwYWwZrQShU2E5ZXlluWX5TUVS3S7tQaV8Xm/+8gHDi3j39WcYw6u4HhnjWH8hMfhAldOV1cDQXOCIZuwybsKSnG1NFPHcBnMtCO0Fu7v1+Eq9tDS+tjme22iuz07R55y2zRfaPkRWEDoMXU51uU1Vzkphu9xV1Th4lL1MesYqBtgyRoBrZiyZ/vM/7nEQ2D2Yet/ltz5nvOZMcvZjOVZTTxBAEct9dvRxmi2lFUbXfOEBM4z9DAwNH+upz8OFf+Oij+dn8xy8Hr2Pw7L0FMnpgC6nZ7VQT8ZXWFof9rz68Apu8+YAAAl+SURBVCq/uS0Iic4uVVaf18IyRSsyewXmD5rbgpCI+EO2CizVhaVVZ6aiXeohS4Rd4hRhkWaKsjsElqzYbKztYu24aaOM1yf+9IEm05iyK/2cyx+LafYpCsLjL7jfuI7K3abgZQAoe7qiZRJhCkP+XR/Pz+Y5/vjk+3v2caz/PY+3PsNMMtKgyucLVj3ZocJyUI4qBN3MB8Nvv7N2CkKC89tlAJ/px3cHBqRYqiHNiFyzi58NvlvFNoUE5lZljyynLK8st6kMh4+lql2G5yumCKMQpKfQ7pm0ZzDRWT0WW9lHOD0rhedfn5+5R8w999BFRrc6M4EwAIieUR7DXis7uieLPPL0R4YQJXwf93OaVkKxGcnrWLGrxvgcfp6G5/js5RuaZKWZv3S9tZXasHxWB4DDuii7VOW2OeIqLMlvrUw2960EPtpubgtCosIxIw+sMrdvGWauU5VbLNu8bTkwp9zcFoREguWS5ZPo8prqpKpdUuxxvv5w6Clk/mB2ZROmHKRAJFr8ac+lTo23fnNjKr6NW3ca3eoca8+o8ljG1f/nw3nWVqPgpSdU8+7MhdZWIweO3M/4HIpbO+y+t3tZW5MmMFn5UpXLP1h2efNQc90ccReWk4qAm6wPvnqRuRaEREWX0ZuVqDw4RaNPNQwWuGKQuX3NEnMtCImELpcsp6katBNOE7tcbK5TBYo+5pemdzBcoFFE6jGOJx011lgTjnPUnkst4CjmNNfc8ZLh9eQkJ+zijgUtWImegMM+scj6zY0zsAl7o8vllbRLMx12s8RdWJLfjwDGFwLfViqRudTaKQgJxg2qEpu/C5igyuqtaeIduXskMDgHmLkduM/y1ApCIsDyyHLJ8slymk7w+3Io2cwdZm9fKkGP5EO3nIOKBY8YHky7wNRd0McdNtpYk8UrNu0RgrqbfMaPjmwysQi9hBSYI46+IaYxli1h94gKTblXlcdP1e2hXcaab7VdhCW5x3ow0H364GpzWxAShftVJXaHNaxGl9V0wONofDjQW/uUZHAQEgCWQ917wPLJcppO8PtqMX314uS3S87QRo8iI6ntwTH0YP7y/KOtV0B5ZbWxpkdSC84/PPwfY83ucT0zH7ukmQmE4x1PPvpAYx/huMuLb3rKehUbHB+px1/qpa2TaqQ6LIe/tryVLJ+eGBVjuwlL5jh6yGqEXLlQbYu4FBIEjqm8yqrE/nQAjBys6cRpvRo9tBd8AzxrRfoJQmfAVF8sh4TlkuUzHTmtZ2rZJT2KjKRmcAxFJqHgtAfKFBXkWFvA9GPGGWsdpGPvHqdA5ZjMJSs24fW/XmYE1eiphnl8S13i+lg7fI9OLaSvT2iE5c9ul6eq8hkr7SYsyWUDgQctcXmFEpd/FHEpdDJs4PzKEpVs+Fw6wNxONzim9DdWsNJ5XwMvWeldBKEjYbk7V5U/wvLIcpnO8PvrGIVktkt6Gu1d1xSZFHCjj7vJiA7X2GdKO2R80/kB7d3jjLxm9zhTAFGc2qGnU+fI1EFAxC5gf3TqIdYW8OKbc4w1I8U1fXoUW1sCeVHdYpY/0ha7bFdhSS5X4vIBq3xcrsSljLkUOosbVdljA4ewwcOGTzrzO/Xcv84aE3/mXCW0Zcyl0IGwvLHcEZZDlkfBjFFIBbv8063n7RWwY4dpf+wR3Scf3eih5PvsATt3XHO6sebYSorTXgdfuSca2961rqPIydTTbzfELIOBOEZTey3pQeV+5qgkFMBnn9z2qYBTDTpfzrLs8nrVyGmLXba7sCRXqAr8Piuyn2MuD/lM0p0IHQdTJUxWZe52K10CGzps8Ajqgb0/cLXlKLhiEXCaasxvNHuiBKFdYPliOWN5Iyx/LIdCI6lgl/RaLv3gdkNA2ruiKeQYxMN0QXboddQeR90trqHw4/hKu0eS2zzP7686zdqjBPnFJxifZxe0+ZZH84tXb2ryN17TTZeepM57ofE63dmgyteptEvL+cLyd7tq5LQFR0hhbbc7nA+VRrJol/maF01FLAjtBcUkPZVkdD7woGrgxJIuId3gbFmXLQC21wPFGarVqu7TeY3PcEGIC89sUI06VQfsVOWsiypnfzygccY2YW/C7fKPqlF8bgrPRsQ0QvREUjDGkp9SiA+0y8uUoCxvsOxSlbN9mYWuQ4Ul4adRXOrxlmNUZX/xAODC/uZrQYgHj601l/mV5mt6KPV4XyEym+vM4Sr/MnMT41glwC9R9+3kHuZrQWgrb2wF/qye+e+Vma9/2Es1XpQ99soyXwvRoV2y0n/FskvObjdD1ZmpZpdMG8SZeQiDc/S4SaH9iGSXbOz1zDRft5UOF5YafiFG5q40sw2gh/oiFJgXKYHZbR+/lJCelPqAR9coQbkO2KoexmRILnDvSBFHreFhdQ9vXGLOoU6Yk/YSZZs/6We+FoRY+YeyxUdUA+9rK2g33w38YQRwqQxFaTWGXS5Vdtlgvmb+XQrMZLdLJknX4x0Ju6vDu8mF+NLedtlpwlLDkHaKgdlW4numL5veEzisxEwDM7bA3C8IkZhXCXyy3VzYWNGFeYoqPxerRso5Kdxt1J7UBNSDR9kllzU15r7+2cBRyiaP6GqmExNvkxDOplplizuAj8uAD5VNrrXKDufgpwjiku0y9wmtZ49dKlGwxnLK8N4epWyS9WUy2iVT/TBqnFBU3nntD8VbGWf22KWySQ5JDLdLOg68cbTLTheWGs7ZTIH56hZrh0X3TNNgDioCumZYi9pHrya343kzhMSjVj1Iy+pNb2QZF7XN5atyU0xuU/vs/KCX6fU+WsZRxo0n1puV2dywVHFjVKPvcCXg6RXW9sg1F47TEVITjvejPRo2aW2vqDIrLj30RJMqXrVEpDm7pMDkTCnaHrVtil2mLq21Sw5zuqCdxtEnjLDUrFNKmtNaaS+U9pYIQiQGqoen9m5zvZ9qgQntA7tNtDeK62qrq1wQNDlus7FBrzbXHEYhtC+0S3qiWF9yTa+mINjZY5eqnmRd2d52mXDCMpzl1cpgVEXGNT1WWo0birwOqAtaBwopSZZTtbSzLE81F6sFPlQJShrI0FzrQKHD4fyx2musW8jaPrertZCadLF5wLQ3TPcsTVOVl9C5cL51OmfC7ZLLDvVaSE0SyS4TXlgKgiAIgiAIyUGHJEgXBEEQBEEQUh8RloIgCIIgCEJcEGEpCIIgCIIgxAURloIgCIIgCEJcEGEpCIIgCIIgxAURloIgCIIgCEIcAP4fnA5EcSGlRJEAAAAASUVORK5CYII=;aspect=fixed;" vertex="1" parent="1">
          <mxGeometry x="1217.23" y="10" width="341.55" height="270" as="geometry" />
        </mxCell>
        <mxCell id="4RYRgsrVSUQU46YHIujC-4" value="&lt;font style=&quot;font-size: 18px&quot; face=&quot;Times New Roman&quot;&gt;(a)&amp;nbsp; Components for face-mask detection.&lt;/font&gt;" style="text;html=1;align=center;verticalAlign=middle;resizable=0;points=[];autosize=1;strokeColor=none;fillColor=none;" vertex="1" parent="1">
          <mxGeometry x="884.08" y="290" width="310" height="20" as="geometry" />
        </mxCell>
        <mxCell id="4RYRgsrVSUQU46YHIujC-5" value="&lt;font style=&quot;font-size: 18px&quot; face=&quot;Times New Roman&quot;&gt;(b)&amp;nbsp; Computational unit.&lt;/font&gt;" style="text;html=1;align=center;verticalAlign=middle;resizable=0;points=[];autosize=1;strokeColor=none;fillColor=none;" vertex="1" parent="1">
          <mxGeometry x="1293.01" y="290" width="190" height="20" as="geometry" />
        </mxCell>
      </root>
    </mxGraphModel>
  </diagram>
</mxfile>
